<?xml version="1.0" standalone="no"?>
<!DOCTYPE svg PUBLIC "-//W3C//DTD SVG 1.1//EN" "http://www.w3.org/Graphics/SVG/1.1/DTD/svg11.dtd" >
<svg>
<metadata>
Created by FontForge 20090914 at Thu Jul  6 19:53:18 2017
 By www-data
Copyright 2010, 2012 Adobe Systems Incorporated. All Rights Reserved.
</metadata>
<defs>
<font id="SourceSansPro-Light" horiz-adv-x="0" >
  <font-face 
    font-family="Source Sans Pro Light"
    font-weight="300"
    font-stretch="normal"
    units-per-em="1000"
    panose-1="2 11 4 3 3 4 3 2 2 4"
    ascent="750"
    descent="-250"
    x-height="479.999"
    cap-height="659"
    bbox="-453.002 -284.002 1122 939.001"
    underline-thickness="50"
    underline-position="-50"
    unicode-range="U+0020-U+1F16B"
  />
<missing-glyph horiz-adv-x="632" 
d="M94 0v660h444v-660h-444zM158 39h312l-93 164l-59 105h-4l-61 -105zM314 372h4l53 92l86 155h-284l87 -155zM139 84l147 256l-147 260v-516zM491 84v516l-145 -260z" />
    <glyph glyph-name="f_f" unicode="ff" horiz-adv-x="530" 
d="M554 715l-11.999 -35.999c-18 9.33301 -37 14 -57 14c-50 0 -75 -36.333 -75 -109v-104h111v-38h-111v-442h-44v442h-223v-442h-44v442h-66v34l66 4v89c0 49.333 11.333 87 34 113s54.667 39 96 39c28 0 55 -6 81 -18l-12 -36c-21.333 10.667 -44.333 16 -69 16
c-57.333 0 -86 -39 -86 -117v-86h223v107c0 47.333 10.167 83.166 30.5 107.499s49.5 36.5 87.5 36.5c23.333 0 46.666 -5.33301 69.999 -16z" />
    <glyph glyph-name="f_t" unicode="ft" horiz-adv-x="539" 
d="M516 42l12 -36c-33.333 -12 -59.666 -18 -78.999 -18c-43.333 0 -74 12.5 -92 37.5s-27 60.833 -27 107.5v309h-187v-442h-44v442h-66v34l66 4v107c0 47.333 10.333 83.166 31 107.499s50 36.5 88 36.5c23.333 0 46.666 -5.33301 69.999 -16l-12 -36
c-18.667 9.33301 -38 14 -58 14c-50 0 -75 -36.333 -75 -109v-104h188l6 139h37v-139h140v-38h-140v-313c0 -33.333 6 -58.666 18 -75.999s33.333 -26 64 -26c18.667 0 38.667 5 60 15z" />
    <glyph glyph-name="f_f_t" unicode="fft" horiz-adv-x="805" 
d="M783 42l12 -36c-33.333 -12 -59.666 -18 -78.999 -18c-43.333 0 -74 12.5 -92 37.5s-27 60.833 -27 107.5v309h-187v-442h-44v442h-223v-442h-44v442h-66v34l66 4v89c0 49.333 11.333 87 34 113s54.667 39 96 39c28 0 55 -6 81 -18l-12 -36
c-21.333 10.667 -44.333 16 -69 16c-57.333 0 -86 -39 -86 -117v-86h223v107c0 47.333 10.167 83.166 30.5 107.499s49.5 36.5 87.5 36.5c23.333 0 46.666 -5.33301 69.999 -16l-12 -36c-18 9.33301 -37 14 -57 14c-50 0 -75 -36.333 -75 -109v-104h188l6 139h37v-139h139
v-38h-139v-313c0 -33.333 6 -58.666 18 -75.999s33.333 -26 64 -26c18.667 0 38.667 5 60 15z" />
    <glyph glyph-name=".notdef" horiz-adv-x="632" 
d="M94 0v660h444v-660h-444zM158 39h312l-93 164l-59 105h-4l-61 -105zM314 372h4l53 92l86 155h-284l87 -155zM139 84l147 256l-147 260v-516zM491 84v516l-145 -260z" />
    <glyph glyph-name="space" unicode=" " horiz-adv-x="200" 
 />
    <glyph glyph-name="exclam" unicode="!" horiz-adv-x="259" 
d="M113 179l-6 420v71h46l-1 -71l-6 -420h-33zM130 -12c-11.333 0 -21.333 4.16699 -30 12.5s-13 19.166 -13 32.499c0 14 4.33301 25.167 13 33.5s18.667 12.5 30 12.5s21.166 -4.16699 29.499 -12.5s12.5 -19.5 12.5 -33.5c0 -13.333 -4.16699 -24.166 -12.5 -32.499
s-18.166 -12.5 -29.499 -12.5z" />
    <glyph glyph-name="quotedbl" unicode="&#x22;" horiz-adv-x="360" 
d="M92 477l-8 147l-1 69h51v-69l-9 -147h-33zM233 477l-8 147l-1 69h51v-69l-9 -147h-33z" />
    <glyph glyph-name="numbersign" unicode="#" horiz-adv-x="479" 
d="M93 0l26 214h-83v36h87l21 170h-88v36h92l25 194h35l-25 -194h149l26 194h34l-25 -194h82v-36h-85l-21 -170h86v-36h-91l-25 -214h-35l25 214h-149l-26 -214h-35zM158 250h150l21 170h-150z" />
    <glyph glyph-name="dollar" unicode="$" horiz-adv-x="479" 
d="M402 580l-26.001 -27.999c-22 21.333 -42 36.666 -60 45.999s-41.333 14 -70 14c-34 0 -61.833 -10.833 -83.5 -32.5s-32.5 -49.167 -32.5 -82.5c0 -32 10 -58.667 30 -80s44 -38.666 72 -51.999l84.5 -42c28.333 -14.667 52.5 -36.167 72.5 -64.5s30 -63.5 30 -105.5
c0 -46.667 -14.333 -84.667 -43 -114s-65.667 -46 -111 -50v-99h-39v99c-62 4.66699 -117.667 30.334 -167 77.001l24 31c52 -46.667 105.667 -70 161 -70c41.333 0 73.333 11.167 96 33.5s34 52.166 34 89.499c0 36 -10 66.333 -30 91s-44 44 -72 58l-84.5 42.5
c-28.333 14.333 -52.5 34.166 -72.5 59.499s-30 56.666 -30 93.999c0 41.333 13.333 76.333 40 105s60.334 45.334 101.001 50.001v99h39v-99c30 -2 55.333 -8.83301 76 -20.5s41 -28.167 61 -49.5z" />
    <glyph glyph-name="percent" unicode="%" horiz-adv-x="805" 
d="M181 257c-44 0 -78.5 18.167 -103.5 54.5s-37.5 87.5 -37.5 153.5c0 65.333 12.5 116 37.5 152s59.5 54 103.5 54s78.5 -18 103.5 -54s37.5 -86.667 37.5 -152c0 -66 -12.5 -117.167 -37.5 -153.5s-59.5 -54.5 -103.5 -54.5zM181 290c31.333 0 56.166 15.5 74.499 46.5
s27.5 73.833 27.5 128.5s-9.16699 97.167 -27.5 127.5s-43.166 45.5 -74.499 45.5s-56.166 -15.167 -74.499 -45.5s-27.5 -72.833 -27.5 -127.5s9.16699 -97.5 27.5 -128.5s43.166 -46.5 74.499 -46.5zM624 -12c-44 0 -78.5 18.167 -103.5 54.5s-37.5 87.5 -37.5 153.5
c0 65.333 12.5 116 37.5 152s59.5 54 103.5 54s78.5 -18 103.5 -54s37.5 -86.667 37.5 -152c0 -66 -12.5 -117.167 -37.5 -153.5s-59.5 -54.5 -103.5 -54.5zM624 21c31.333 0 56.166 15.5 74.499 46.5s27.5 73.833 27.5 128.5s-9.16699 97.167 -27.5 127.5
s-43.166 45.5 -74.499 45.5s-56.166 -15.167 -74.499 -45.5s-27.5 -72.833 -27.5 -127.5s9.16699 -97.5 27.5 -128.5s43.166 -46.5 74.499 -46.5zM198 -12l368 683h38l-367 -683h-39z" />
    <glyph glyph-name="ampersand" unicode="&#x26;" horiz-adv-x="575" 
d="M230 26c51.333 0 100 23.667 146 71c-79.333 72.667 -141.666 150 -186.999 232c-34.667 -27.333 -61.334 -53.166 -80.001 -77.499s-28 -51.5 -28 -81.5c0 -42.667 14.5 -77.334 43.5 -104.001s64.167 -40 105.5 -40zM168 526c0 -42 12.334 -88.667 37.001 -140
c42 30 73.833 57 95.5 81s32.5 51.333 32.5 82c0 24 -5.83301 44.333 -17.5 61s-29.834 25 -54.501 25c-28 0 -50.5 -10.5 -67.5 -31.5s-25.5 -46.833 -25.5 -77.5zM562.001 27l-14.999 -39.0029c-43.333 15.333 -90.333 43 -141 83c-54 -55.333 -114 -83 -180 -83
c-54 0 -99.167 16.5 -135.5 49.5s-54.5 76.167 -54.5 129.5c0 39.333 11.667 73.5 35 102.5s56.666 59.5 99.999 91.5c-29.333 60.667 -44 115 -44 163c0 42.667 12.667 77.834 38 105.501s58 41.5 98 41.5c34.667 0 61.667 -11.167 81 -33.5s29 -51.166 29 -86.499
c0 -20 -3.83301 -39 -11.5 -57s-20.5 -36 -38.5 -54s-33 -32 -45 -42s-31 -24.667 -57 -44c45.333 -83.333 106.333 -158.666 183 -225.999c45.333 56.667 80 129 104 217h43c-28.667 -98.667 -67.667 -179.334 -117 -242.001c44 -35.333 86.667 -60.666 128 -75.999z" />
    <glyph glyph-name="quotesingle" unicode="'" horiz-adv-x="219" 
d="M92 477l-8 147l-1 69h51v-69l-9 -147h-33z" />
    <glyph glyph-name="parenleft" unicode="(" horiz-adv-x="279" 
d="M220 -175c-88 142.667 -132 293.667 -132 453s44 310.333 132 453l27 -16c-80 -127.333 -120 -273 -120 -437s40 -309.667 120 -437z" />
    <glyph glyph-name="parenright" unicode=")" horiz-adv-x="279" 
d="M59 -175l-27 16c80 127.333 120 273 120 437s-40 309.667 -120 437l27 16c88 -142.667 132 -293.667 132 -453s-44 -310.333 -132 -453z" />
    <glyph glyph-name="asterisk" unicode="*" horiz-adv-x="395" 
d="M132 462l-27 20l55 88l-90 36l10 30l94 -26l7 102h32l7 -100l95 24l10 -30l-90 -36l54 -88l-27 -20l-64 83z" />
    <glyph glyph-name="plus" unicode="+" horiz-adv-x="479" 
d="M219 110v201h-185v38h185v201h41v-201h185v-38h-185v-201h-41z" />
    <glyph glyph-name="comma" unicode="," horiz-adv-x="219" 
d="M62 -155l-14 29.999c50.667 26.667 76.334 67 77.001 121c-2.66699 -0.666992 -6.66699 -1 -12 -1c-12 0 -22 3.66699 -30 11s-12 17.666 -12 30.999c0 12.667 4.16699 22.834 12.5 30.501s18.5 11.5 30.5 11.5c15.333 0 27.666 -6.33301 36.999 -19s14 -30 14 -52
c0 -35.333 -9.33301 -67.166 -28 -95.499s-43.667 -50.833 -75 -67.5z" />
    <glyph glyph-name="hyphen" unicode="-" horiz-adv-x="299" 
d="M40 230v39h220v-39h-220z" />
    <glyph glyph-name="period" unicode="." horiz-adv-x="219" 
d="M110 -12c-11.333 0 -21.333 4.16699 -30 12.5s-13 19.166 -13 32.499c0 14 4.33301 25.167 13 33.5s18.667 12.5 30 12.5s21.166 -4.16699 29.499 -12.5s12.5 -19.5 12.5 -33.5c0 -13.333 -4.16699 -24.166 -12.5 -32.499s-18.166 -12.5 -29.499 -12.5z" />
    <glyph glyph-name="slash" unicode="/" horiz-adv-x="357" 
d="M9 -160l305 870h38l-305 -870h-38z" />
    <glyph glyph-name="zero" unicode="0" horiz-adv-x="479" 
d="M239 -12c-60.667 0 -107.667 29 -141 87s-50 140.333 -50 247c0 106 16.5 187.333 49.5 244s80.167 85 141.5 85s108.5 -28.333 141.5 -85s49.5 -138 49.5 -244c0 -106.667 -16.667 -189 -50 -247s-80.333 -87 -141 -87zM239 26c45.333 0 81 25.333 107 76s39 124 39 220
c0 95.333 -13 167.666 -39 216.999s-61.667 74 -107 74s-81 -24.667 -107 -74s-39 -121.666 -39 -216.999s13 -168.5 39 -219.5s61.667 -76.5 107 -76.5z" />
    <glyph glyph-name="one" unicode="1" horiz-adv-x="479" 
d="M84 0v39h150v530h-114v30c50 8.66699 91 22 123 40h36v-600h139v-39h-334z" />
    <glyph glyph-name="two" unicode="2" horiz-adv-x="479" 
d="M41 0l-0.00292969 28c116 118 197.5 208.333 244.5 271s70.5 120 70.5 172c0 42 -11.667 76.167 -35 102.5s-58 39.5 -104 39.5c-54 0 -103.667 -28 -149 -84l-29 28c56.667 62.667 117.334 94 182.001 94c56.667 0 100.834 -16.167 132.501 -48.5
s47.5 -75.833 47.5 -130.5c0 -20.667 -2.66699 -41.167 -8 -61.5s-15.333 -43 -30 -68s-28.167 -46.5 -40.5 -64.5s-32.833 -43.333 -61.5 -76l-68.5 -76.5l-84.5 -90.5c58.667 3.33301 94.334 5 107.001 5h218v-40h-392z" />
    <glyph glyph-name="three" unicode="3" horiz-adv-x="479" 
d="M232 -12c-78 0 -145.668 29.999 -203.001 89.999l26 31c49.333 -54.667 108.333 -82 177 -82c43.333 0 79 13 107 39s42 60 42 102c0 98.667 -74.333 148 -223 148v39c70 0 120.833 12.667 152.5 38s47.5 59 47.5 101c0 36 -11.667 64.833 -35 86.5
s-54.666 32.5 -93.999 32.5c-54 0 -103 -23.333 -147 -70l-26 30c53.333 52 111 78 173 78c51.333 0 93.333 -13.667 126 -41s49 -65 49 -113c0 -77.333 -40.667 -130 -122 -158v-4c42 -8.66699 76.667 -27.667 104 -57s41 -65.666 41 -108.999
c0 -54.667 -18.5 -98.5 -55.5 -131.5s-83.5 -49.5 -139.5 -49.5z" />
    <glyph glyph-name="four" unicode="4" horiz-adv-x="479" 
d="M70 229l240 -0.000976562v234c0 34.667 1.33301 71.334 4 110.001h-4c-6 -10 -14.833 -23.667 -26.5 -41s-20.167 -30.333 -25.5 -39zM448 228.999v-38h-95v-191h-43v191h-294v26l297 422h40v-410h95z" />
    <glyph glyph-name="five" unicode="5" horiz-adv-x="479" 
d="M227 -12c-76.667 0 -143.665 28.6689 -200.998 86.002l25 31c50.667 -52 109 -78 175 -78c44 0 81.5 16.167 112.5 48.5s46.5 73.5 46.5 123.5c0 51.333 -14 91.666 -42 120.999s-66 44 -114 44c-37.333 0 -77 -14.333 -119 -43l-31 19l23 299h295v-39h-255l-20 -231
c37.333 22.667 75.333 34 114 34c57.333 0 104.166 -17 140.499 -51s54.5 -84.333 54.5 -151c0 -64.667 -20.333 -116.334 -61 -155.001s-88.334 -58 -143.001 -58z" />
    <glyph glyph-name="six" unicode="6" horiz-adv-x="479" 
d="M262 26c36.667 0 67.334 15.5 92.001 46.5s37 69.5 37 115.5c0 48.667 -11.333 87.5 -34 116.5s-57.334 43.5 -104.001 43.5c-56 0 -107.667 -32 -155 -96c4 -70 19.833 -125.167 47.5 -165.5s66.5 -60.5 116.5 -60.5zM422 589l-27.002 -30c-28 35.333 -64 53 -108 53
c-55.333 0 -100.666 -25 -135.999 -75s-53.333 -130 -54 -240c48.667 59.333 102.334 89 161.001 89c56.667 0 100.5 -17 131.5 -51s46.5 -83 46.5 -147c0 -57.333 -17.167 -105 -51.5 -143s-75.5 -57 -123.5 -57c-64.667 0 -115.667 26.333 -153 79s-56 127 -56 223
c0 125.333 22.167 216.833 66.5 274.5s100.5 86.5 168.5 86.5c53.333 0 98.333 -20.667 135 -62z" />
    <glyph glyph-name="seven" unicode="7" horiz-adv-x="479" 
d="M188 0c4.66699 128 21.832 237.332 51.499 327.999s76.834 181.334 141.501 272.001h-337v39h393v-26c-73.333 -97.333 -123.833 -190.833 -151.5 -280.5s-44.167 -200.5 -49.5 -332.5h-48z" />
    <glyph glyph-name="eight" unicode="8" horiz-adv-x="479" 
d="M243 -12c-58.667 0 -107.167 16.667 -145.5 50s-57.5 75.333 -57.5 126c0 39.333 12.5 74.5 37.5 105.5s55.167 55.833 90.5 74.5v4c-61.333 40.667 -92 89.667 -92 147c0 45.333 16 82.666 48 111.999s71.667 44 119 44c53.333 0 95.5 -15.5 126.5 -46.5
s46.5 -71.167 46.5 -120.5c0 -31.333 -9.33301 -61.5 -28 -90.5s-39.667 -52.833 -63 -71.5v-4c34.667 -21.333 62 -44.166 82 -68.499s30 -55.833 30 -94.5c0 -47.333 -18 -87 -54 -119s-82.667 -48 -140 -48zM290 335c56 45.333 83.9971 94.667 83.9971 148
c0 36.667 -11.833 67.667 -35.5 93s-55.5 38 -95.5 38c-35.333 0 -64.666 -11.167 -87.999 -33.5s-35 -50.833 -35 -85.5c0 -21.333 4.5 -40.5 13.5 -57.5s22.833 -32 41.5 -45s35.834 -23.167 51.501 -30.5s36.834 -16.333 63.501 -27zM242.997 25.001
c44 0 79.834 12.501 107.501 37.501s41.5 56.167 41.5 93.5c0 22.667 -4.83301 42.667 -14.5 60s-24.167 32.5 -43.5 45.5s-38.166 23.667 -56.499 32s-41.5 18.166 -69.5 29.499c-4.66699 2 -8.33398 3.33301 -11.001 4c-75.333 -44 -113 -97.667 -113 -161
c0 -40 15.167 -73.5 45.5 -100.5s68.166 -40.5 113.499 -40.5z" />
    <glyph glyph-name="nine" unicode="9" horiz-adv-x="479" 
d="M226 291c56 0 107.669 32.333 155.002 97c-4 70 -19.833 125 -47.5 165s-66.834 60 -117.501 60c-36.667 0 -67.334 -15.5 -92.001 -46.5s-37 -69.167 -37 -114.5c0 -49.333 11.5 -88.5 34.5 -117.5s57.833 -43.5 104.5 -43.5zM56.002 50l27.001 30
c28 -35.333 64.333 -53 109 -53c55.333 0 100.666 25 135.999 75s53.333 130 54 240c-48.667 -58.667 -102.667 -88 -162 -88c-56 0 -99.5 17 -130.5 51s-46.5 83 -46.5 147c0 57.333 17.167 104.833 51.5 142.5s75.5 56.5 123.5 56.5c64.667 0 115.5 -26.167 152.5 -78.5
s55.5 -126.5 55.5 -222.5c0 -125.333 -22 -217 -66 -275s-100.333 -87 -169 -87c-54 0 -99 20.667 -135 62z" />
    <glyph glyph-name="colon" unicode=":" horiz-adv-x="219" 
d="M110 370c-11.333 0 -21.333 4.16699 -30 12.5s-13 19.166 -13 32.499c0 14 4.33301 25.167 13 33.5s18.667 12.5 30 12.5s21.166 -4.16699 29.499 -12.5s12.5 -19.5 12.5 -33.5c0 -13.333 -4.16699 -24.166 -12.5 -32.499s-18.166 -12.5 -29.499 -12.5zM110 -12
c-11.333 0 -21.333 4.16699 -30 12.5s-13 19.166 -13 32.499c0 14 4.33301 25.167 13 33.5s18.667 12.5 30 12.5s21.166 -4.16699 29.499 -12.5s12.5 -19.5 12.5 -33.5c0 -13.333 -4.16699 -24.166 -12.5 -32.499s-18.166 -12.5 -29.499 -12.5z" />
    <glyph glyph-name="semicolon" unicode=";" horiz-adv-x="219" 
d="M110 370c-11.333 0 -21.333 4.16699 -30 12.5s-13 19.166 -13 32.499c0 14 4.33301 25.167 13 33.5s18.667 12.5 30 12.5s21.166 -4.16699 29.499 -12.5s12.5 -19.5 12.5 -33.5c0 -13.333 -4.16699 -24.166 -12.5 -32.499s-18.166 -12.5 -29.499 -12.5zM62 -155
l-14 29.999c50.667 26.667 76.334 67 77.001 121c-2.66699 -0.666992 -6.66699 -1 -12 -1c-12 0 -22 3.66699 -30 11s-12 17.666 -12 30.999c0 12.667 4.16699 22.834 12.5 30.501s18.5 11.5 30.5 11.5c15.333 0 27.666 -6.33301 36.999 -19s14 -30 14 -52
c0 -35.333 -9.33301 -67.166 -28 -95.499s-43.667 -50.833 -75 -67.5z" />
    <glyph glyph-name="less" unicode="&#x3c;" horiz-adv-x="479" 
d="M445 146l-411 164v44l411 164v-43l-232 -90l-133 -51v-4l133 -51l232 -90v-43z" />
    <glyph glyph-name="equal" unicode="=" horiz-adv-x="479" 
d="M34 413v38h411v-38h-411zM34 209v38h411v-38h-411z" />
    <glyph glyph-name="greater" unicode="&#x3e;" horiz-adv-x="479" 
d="M34 146v43l232 90l133 51v4l-133 51l-232 90v43l411 -164v-44z" />
    <glyph glyph-name="question" unicode="?" horiz-adv-x="402" 
d="M163 179c-4 30.667 -1.83105 59.6689 6.50195 87.002s19.833 51.333 34.5 72s29.667 40.5 45 59.5s28.666 39.667 39.999 62s17 44.5 17 66.5c0 33.333 -9.66699 61.166 -29 83.499s-47.333 33.5 -84 33.5c-51.333 0 -94.333 -21.333 -129 -64l-27 25
c46 52 99.333 78 160 78c47.333 0 85 -14.333 113 -43s42 -65.334 42 -110.001c0 -24.667 -5.66699 -49 -17 -73s-25 -45.833 -41 -65.5l-47 -60.5c-15.333 -20.667 -27.333 -44 -36 -70s-11.334 -53 -8.00098 -81h-40zM186.002 -11.998
c-11.333 0 -21.166 4.16699 -29.499 12.5s-12.5 19.166 -12.5 32.499c0 14 4.16699 25.167 12.5 33.5s18.166 12.5 29.499 12.5s21.333 -4.16699 30 -12.5s13 -19.5 13 -33.5c0 -13.333 -4.33301 -24.166 -13 -32.499s-18.667 -12.5 -30 -12.5z" />
    <glyph glyph-name="at" unicode="@" horiz-adv-x="814" 
d="M388 -146c-98.667 0 -179.335 31.1689 -242.002 93.502s-94 147.166 -94 254.499c0 126.667 38.833 230.167 116.5 310.5s171.167 120.5 280.5 120.5c96 0 172.333 -29 229 -87s85 -134.667 85 -230c0 -79.333 -19.167 -142.5 -57.5 -189.5s-80.5 -70.5 -126.5 -70.5
c-27.333 0 -49.666 6.33301 -66.999 19s-27.333 31.667 -30 57h-2c-42 -46.667 -82.667 -70 -122 -70c-32.667 0 -59.834 11.833 -81.501 35.5s-32.5 57.167 -32.5 100.5c0 54 17.333 105 52 153s79.334 72 134.001 72c35.333 0 63 -16 83 -48h2l9 40h34l-36 -189
c-22.667 -90 -2.66699 -135 60 -135c35.333 0 68 20.5 98 61.5s45 94.5 45 160.5c0 86.667 -25 155.834 -75 207.501s-118 77.5 -204 77.5c-95.333 0 -178.5 -36.833 -249.5 -110.5s-106.5 -167.834 -106.5 -282.501c0 -96.667 27.5 -173.334 82.5 -230.001
s127.833 -85 218.5 -85c59.333 0 115.333 16 168 48l16 -30c-57.333 -36 -119.666 -54 -186.999 -54zM363.999 98.002c33.333 0 69.333 22.333 108 67l31 173c-21.333 32.667 -46 49 -74 49c-42.667 0 -77.5 -19.5 -104.5 -58.5s-40.5 -81.5 -40.5 -127.5
c0 -68.667 26.667 -103 80 -103z" />
    <glyph glyph-name="A" unicode="A" horiz-adv-x="526" 
d="M146 265h234l-42 123c-30.667 88.667 -55 164.667 -73 228h-4c-18 -63.333 -42.333 -139.333 -73 -228zM470 0l-77 226h-261l-78 -226h-46l232 659h46l232 -659h-48z" />
    <glyph glyph-name="B" unicode="B" horiz-adv-x="578" 
d="M97 0l0.000976562 658.998h178c68.667 0 122.167 -13.333 160.5 -40s57.5 -66.667 57.5 -120c0 -35.333 -8.83301 -65.666 -26.5 -90.999s-42.834 -43 -75.501 -53v-4c44 -7.33301 78.667 -24.666 104 -51.999s38 -63 38 -107c0 -62 -21.833 -109.5 -65.5 -142.5
s-103.5 -49.5 -179.5 -49.5h-191zM143.001 368.998h114c126.667 0 190 41.667 190 125c0 45.333 -15.167 77.833 -45.5 97.5s-76.833 29.5 -139.5 29.5h-119v-252zM143.001 37.998l133 0.000976562c67.333 0 119.5 12.667 156.5 38s55.5 63.666 55.5 114.999
c0 93.333 -70.667 140 -212 140h-133v-293z" />
    <glyph glyph-name="C" unicode="C" horiz-adv-x="564" 
d="M331 -12c-82 0 -148.501 31.167 -199.501 93.5s-76.5 145.5 -76.5 249.5s25.833 186.667 77.5 248s119.5 92 203.5 92c70 0 127.333 -26.333 172 -79l-27 -31c-40 45.333 -88 68 -144 68c-72.667 0 -129.834 -26.667 -171.501 -80s-62.5 -126 -62.5 -218
s20.667 -165.167 62 -219.5s97.333 -81.5 168 -81.5c62.667 0 118.334 27 167.001 81l27 -29c-55.333 -62.667 -120.666 -94 -195.999 -94z" />
    <glyph glyph-name="D" unicode="D" horiz-adv-x="604" 
d="M97 0v659.001h153c98.667 0 173.167 -28.833 223.5 -86.5s75.5 -137.834 75.5 -240.501c0 -103.333 -25.167 -184.5 -75.5 -243.5s-124.5 -88.5 -222.5 -88.5h-154zM143 39.001l102 0.000976562c86 0 150.167 26.333 192.5 79s63.5 124 63.5 214
c0 89.333 -21.167 159.666 -63.5 210.999s-106.5 77 -192.5 77h-102v-581z" />
    <glyph glyph-name="E" unicode="E" horiz-adv-x="515" 
d="M97 0v659h361v-40h-315v-249h264v-40h-264v-290h325v-40h-371z" />
    <glyph glyph-name="F" unicode="F" horiz-adv-x="477" 
d="M97 0v659h359v-40h-313v-262h265v-40h-265v-317h-46z" />
    <glyph glyph-name="G" unicode="G" horiz-adv-x="605" 
d="M338 -12c-85.333 0 -153.831 31 -205.498 93s-77.5 145.333 -77.5 250c0 104 26.667 186.667 80 248s123.666 92 210.999 92c70 0 130 -26.333 180 -79l-27 -31c-41.333 45.333 -92 68 -152 68c-75.333 0 -134.833 -26.667 -178.5 -80s-65.5 -126 -65.5 -218
s21 -165.167 63 -219.5s100.333 -81.5 175 -81.5c65.333 0 114.666 16.667 147.999 50v205h-158v39h202v-261c-46.667 -50 -111.667 -75 -195 -75z" />
    <glyph glyph-name="H" unicode="H" horiz-adv-x="639" 
d="M97 0v659h46v-289h353v289h46v-659h-46v330h-353v-330h-46z" />
    <glyph glyph-name="I" unicode="I" horiz-adv-x="240" 
d="M97 0v659h46v-659h-46z" />
    <glyph glyph-name="J" unicode="J" horiz-adv-x="462" 
d="M203 -12c-73.333 0 -127.333 32.333 -162 97l35 23c30 -52 72.333 -78 127 -78c40 0 69.667 12.333 89 37s29 63.667 29 117v475h46v-480c0 -57.333 -13.167 -103.5 -39.5 -138.5s-67.833 -52.5 -124.5 -52.5z" />
    <glyph glyph-name="K" unicode="K" horiz-adv-x="558" 
d="M97 0v659h46v-366h2l319 366h55l-210 -244l239 -415h-53l-218 380l-134 -153v-227h-46z" />
    <glyph glyph-name="L" unicode="L" horiz-adv-x="467" 
d="M97 0v659h46v-619h304v-40h-350z" />
    <glyph glyph-name="M" unicode="M" horiz-adv-x="706" 
d="M97 0l0.000976562 659.001h65l138 -387c3.33301 -10 11.166 -32.167 23.499 -66.5l28.5 -79.5h4l24 69.5l26 76.5l137 387h66v-659h-45v433c0 45.333 2 104.666 6 177.999h-4l-51 -147l-142 -392h-40l-143 392l-52 147h-4c4 -110 6 -169.333 6 -178v-433h-43z" />
    <glyph glyph-name="N" unicode="N" horiz-adv-x="636" 
d="M97 0v659h48l278 -465l74 -131h4l-6 192v404h44v-659h-48l-278 465l-74 131h-4c0.666992 -14 1.5 -33.5 2.5 -58.5s1.83301 -48 2.5 -69s1 -40.833 1 -59.5v-409h-44z" />
    <glyph glyph-name="O" unicode="O" horiz-adv-x="652" 
d="M326 -12c-80 0 -145.167 31.5 -195.5 94.5s-75.5 146.167 -75.5 249.5c0 102.667 25.167 184.834 75.5 246.501s115.5 92.5 195.5 92.5c80.667 0 146.167 -30.833 196.5 -92.5s75.5 -143.834 75.5 -246.501c0 -103.333 -25.333 -186.5 -76 -249.5s-116 -94.5 -196 -94.5z
M326 30c67.333 0 121.333 27.5 162 82.5s61 128.167 61 219.5c0 90.667 -20.333 162.834 -61 216.501s-94.667 80.5 -162 80.5s-121.333 -26.833 -162 -80.5s-61 -125.834 -61 -216.501c0 -91.333 20.333 -164.5 61 -219.5s94.667 -82.5 162 -82.5z" />
    <glyph glyph-name="P" unicode="P" horiz-adv-x="549" 
d="M97 0v658.999h166c78 0 137.333 -14.333 178 -43s61 -75.667 61 -141c0 -63.333 -20.5 -111.166 -61.5 -143.499s-98.833 -48.5 -173.5 -48.5h-124v-283h-46zM143 321.999l113 0.000976562c68 0 118.167 12.167 150.5 36.5s48.5 63.166 48.5 116.499
c0 54 -16.167 91.667 -48.5 113s-83.833 32 -154.5 32h-109v-298z" />
    <glyph glyph-name="Q" unicode="Q" horiz-adv-x="652" 
d="M103 332c0 -92 20.333 -165.833 61 -221.5s94.667 -83.5 162 -83.5s121.333 27.833 162 83.5s61 129.5 61 221.5c0 90.667 -20.333 162.834 -61 216.501s-94.667 80.5 -162 80.5s-121.333 -26.833 -162 -80.5s-61 -125.834 -61 -216.501zM590 -105l10 -39
c-27.333 -8 -54.333 -12 -81 -12c-53.333 0 -98.833 13.333 -136.5 40s-65.167 61.667 -82.5 105c-72.667 7.33301 -131.667 42 -177 104s-68 141.667 -68 239c0 102.667 25.167 184.834 75.5 246.501s115.5 92.5 195.5 92.5c80.667 0 146.167 -30.833 196.5 -92.5
s75.5 -143.834 75.5 -246.501c0 -98 -22.667 -177.833 -68 -239.5s-105 -96.167 -179 -103.5c30.667 -68 88 -102 172 -102c22 0 44.333 2.66699 67 8z" />
    <glyph glyph-name="R" unicode="R" horiz-adv-x="544" 
d="M143 341h131c120.667 0 181 48 181 144c0 48 -15.167 82.5 -45.5 103.5s-75.5 31.5 -135.5 31.5h-131v-279zM515 0l-53 0.000976562l-179 303h-140v-303h-46v659h189c144 0 216 -58 216 -174c0 -51.333 -14.833 -92.333 -44.5 -123s-71.167 -49.334 -124.5 -56.001z" />
    <glyph glyph-name="S" unicode="S" horiz-adv-x="521" 
d="M269 -12c-89.333 0 -163.666 32.998 -222.999 98.998l30 32c52.667 -59.333 117 -89 193 -89c50 0 89.833 12.167 119.5 36.5s44.5 56.166 44.5 95.499c0 20 -2.83301 37.333 -8.5 52s-14.834 27.334 -27.501 38.001s-24.5 19 -35.5 25s-26.5 13.667 -46.5 23l-100 45
c-18 8 -33.333 15.833 -46 23.5s-26.5 17.834 -41.5 30.501s-26.5 28.334 -34.5 47.001s-12 39.667 -12 63c0 47.333 18.167 86.166 54.5 116.499s82.166 45.5 137.499 45.5c73.333 0 134.333 -26.333 183 -79l-26 -30c-43.333 44.667 -95.666 67 -156.999 67
c-44 0 -79.333 -10.667 -106 -32s-40 -50 -40 -86c0 -18 3.16699 -34 9.5 -48s16.5 -26.167 30.5 -36.5s25.5 -18 34.5 -23s22.167 -11.5 39.5 -19.5l100 -44c44.667 -20 79 -42.667 103 -68s36 -61 36 -107c0 -51.333 -19.333 -93.666 -58 -126.999s-89.667 -50 -153 -50z
" />
    <glyph glyph-name="T" unicode="T" horiz-adv-x="524" 
d="M239 0v619h-210v40h466v-40h-210v-619h-46z" />
    <glyph glyph-name="U" unicode="U" horiz-adv-x="634" 
d="M316 -12c-30 0 -57.499 4.33301 -82.499 13s-48.333 22.667 -70 42s-38.5 46.833 -50.5 82.5s-18 78.167 -18 127.5v406h46v-401c0 -81.333 16.167 -139.666 48.5 -174.999s74.5 -53 126.5 -53c53.333 0 96.666 17.667 129.999 53s50 93.666 50 174.999v401h43v-406
c0 -49.333 -6.16699 -91.833 -18.5 -127.5s-29.333 -63.167 -51 -82.5s-45 -33.333 -70 -42s-52.833 -13 -83.5 -13z" />
    <glyph glyph-name="V" unicode="V" horiz-adv-x="491" 
d="M222 0l-218 659h49l122 -385c38 -122 61.333 -195.667 70 -221h4l23 71.5l24 78.5l22 71l122 385h47l-216 -659h-49z" />
    <glyph glyph-name="W" unicode="W" horiz-adv-x="770" 
d="M178 0l-149.999 658.999h48l83 -388l45 -215h4c16.667 74.667 33.667 146.334 51 215.001l103 388h47l103 -388l26.5 -107.5l26.5 -107.5h4l21 107.5c9.33301 47.667 16.666 83.5 21.999 107.5l83 388h45l-147 -659h-51l-120 452c-2 10 -7.33301 32.333 -16 67
s-15 62 -19 82h-4c-4 -18.667 -10.333 -44.5 -19 -77.5s-14.667 -56.833 -18 -71.5l-118 -452h-50z" />
    <glyph glyph-name="X" unicode="X" horiz-adv-x="482" 
d="M17 0l197.999 341l-184 318h50l108 -194l54 -90h4l49 90l108 194h47l-184 -320l198 -339h-50l-115 202c-13.333 24.667 -33.666 59.667 -60.999 105h-4l-56 -105l-115 -202h-47z" />
    <glyph glyph-name="Y" unicode="Y" horiz-adv-x="447" 
d="M200 0v267l-197 392h49l100 -206c35.333 -74 58.666 -121.333 69.999 -142h4c36.667 70.667 60.334 118 71.001 142l100 206h47l-198 -392v-267h-46z" />
    <glyph glyph-name="Z" unicode="Z" horiz-adv-x="538" 
d="M50 0v27l379 592h-346v40h404v-27l-380 -592h383v-40h-440z" />
    <glyph glyph-name="bracketleft" unicode="[" horiz-adv-x="279" 
d="M98 -152v860h160v-29h-125v-802h125v-29h-160z" />
    <glyph glyph-name="backslash" unicode="\" horiz-adv-x="357" 
d="M311 -160l-306 870h38l306 -870h-38z" />
    <glyph glyph-name="bracketright" unicode="]" horiz-adv-x="279" 
d="M21 -152v29h125v802h-125v29h160v-860h-160z" />
    <glyph glyph-name="asciicircum" unicode="^" horiz-adv-x="479" 
d="M66 290l150 380h46l151 -380h-43l-77 203l-52 133h-4l-51 -133l-77 -203h-43z" />
    <glyph glyph-name="underscore" unicode="_" horiz-adv-x="500" 
d="M12 -117v38h476v-38h-476z" />
    <glyph glyph-name="grave" unicode="`" horiz-adv-x="535" 
d="M282 572l-116 156h56l100 -156h-40z" />
    <glyph glyph-name="a" unicode="a" horiz-adv-x="491" 
d="M197 -12c-40.667 0 -74.001 11.168 -100.001 33.501s-39 55.166 -39 98.499c0 52.667 24.5 93 73.5 121s127.833 48 236.5 60c1.33301 101.333 -36.667 152 -114 152c-50.667 0 -101.667 -18.667 -153 -56l-20 33c58.667 41.333 118.334 62 179.001 62
c53.333 0 92 -16.833 116 -50.5s36 -78.5 36 -134.5v-307h-38l-4 62h-3c-62 -49.333 -118.667 -74 -170 -74zM204.999 26.001c47.333 0 101.667 26.001 163 78.001v163c-96 -11.333 -164.167 -28.5 -204.5 -51.5s-60.5 -54.167 -60.5 -93.5
c0 -32.667 9.5 -56.834 28.5 -72.501s43.5 -23.5 73.5 -23.5z" />
    <glyph glyph-name="b" unicode="b" horiz-adv-x="542" 
d="M280 -12c-46.667 0 -94.668 20.333 -144.001 61h-2l-5 -49h-37v719h44v-208l-2 -94c60 50 115.333 75 166 75c62.667 0 110.334 -21.833 143.001 -65.5s49 -103.5 49 -179.5c0 -78.667 -20.667 -141.5 -62 -188.5s-91.333 -70.5 -150 -70.5zM277.999 27
c48.667 0 88.667 20.5 120 61.5s47 93.833 47 158.5c0 63.333 -12.333 113.5 -37 150.5s-63 55.5 -115 55.5c-46 0 -98.333 -26.333 -157 -79v-285c48.667 -41.333 96 -62 142 -62z" />
    <glyph glyph-name="c" unicode="c" horiz-adv-x="449" 
d="M270 -12c-64 0 -116.333 22.5 -157 67.5s-61 106.167 -61 183.5s21.167 138.833 63.5 184.5s94.166 68.5 155.499 68.5c50.667 0 97.667 -19.667 141 -59l-26 -31c-36.667 34 -74.667 51 -114 51c-49.333 0 -90.666 -20 -123.999 -60s-50 -91.333 -50 -154
c0 -63.333 16 -114.5 48 -153.5s74 -58.5 126 -58.5c45.333 0 88 18.333 128 55l23 -31c-48 -42 -99 -63 -153 -63z" />
    <glyph glyph-name="d" unicode="d" horiz-adv-x="544" 
d="M251 -12c-61.333 0 -109.833 21.833 -145.5 65.5s-53.5 105.5 -53.5 185.5c0 75.333 20.833 136.333 62.5 183s91.834 70 150.501 70c27.333 0 51.666 -4.66699 72.999 -14s45.333 -24.333 72 -45l-2 88v198h44v-719h-38l-4 62h-3c-49.333 -49.333 -101.333 -74 -156 -74
zM257 27c48 0 98.334 26.333 151.001 79v285c-46.667 41.333 -93.334 62 -140.001 62c-48 0 -88.167 -20.5 -120.5 -61.5s-48.5 -91.833 -48.5 -152.5c0 -64.667 13.833 -116.167 41.5 -154.5s66.5 -57.5 116.5 -57.5z" />
    <glyph glyph-name="e" unicode="e" horiz-adv-x="483" 
d="M274 -12c-63.333 0 -116.167 22.667 -158.5 68s-63.5 106.333 -63.5 183c0 75.333 20.833 136.333 62.5 183s90.5 70 146.5 70c57.333 0 102.333 -19.5 135 -58.5s49 -93.5 49 -163.5c0 -16 -0.666992 -28 -2 -36h-346c1.33301 -61.333 18.5 -111.333 51.5 -150
s76.167 -58 129.5 -58c46 0 89 14.333 129 43l18 -34c-52 -31.333 -102.333 -47 -151 -47zM96.999 270h306c0 60 -12.5 105.667 -37.5 137s-59.5 47 -103.5 47c-42.667 0 -79.667 -16.667 -111 -50s-49.333 -78 -54 -134z" />
    <glyph glyph-name="f" unicode="f" horiz-adv-x="263" 
d="M288 715l-11.999 -35.999c-18.667 9.33301 -38 14 -58 14c-50 0 -75 -36.333 -75 -109v-104h111v-38h-111v-442h-44v442h-66v34l66 4v107c0 47.333 10.333 83.166 31 107.499s50 36.5 88 36.5c23.333 0 46.666 -5.33301 69.999 -16z" />
    <glyph glyph-name="g" unicode="g" horiz-adv-x="487" 
d="M249 -231c-60.667 0 -108.666 11.9971 -143.999 35.9971s-53 56.333 -53 97c0 42.667 23.667 81.334 71 116.001v4c-28 16.667 -42 42.334 -42 77.001c0 34 17.333 63.333 52 88v4c-40 34.667 -60 78.667 -60 132c0 48.667 16.333 89 49 121s72.667 48 120 48
c22 0 43 -4 63 -12h163v-37h-112c35.333 -30.667 53 -71 53 -121c0 -48.667 -16 -89 -48 -121s-71.667 -48 -119 -48c-30.667 0 -57.334 6.66699 -80.001 20c-26 -21.333 -39 -44.333 -39 -69c0 -42 30.667 -63 92 -63h103c54 0 93.833 -8.83301 119.5 -26.5
s38.5 -45.5 38.5 -83.5c0 -43.333 -21.167 -81.166 -63.5 -113.499s-96.833 -48.5 -163.5 -48.5zM242.001 187.997c34 0 63.167 12.667 87.5 38s36.5 57.666 36.5 96.999s-12 71.333 -36 96s-53.333 37 -88 37c-35.333 0 -65 -12.167 -89 -36.5s-36 -56.5 -36 -96.5
c0 -39.333 12.167 -71.666 36.5 -96.999s53.833 -38 88.5 -38zM254.001 -195.003c52 0 94.5 12.334 127.5 37.001s49.5 52.667 49.5 84c0 48.667 -37 73 -111 73h-103c-18 0 -38 2.66699 -60 8c-42 -28.667 -63 -62.334 -63 -101.001c0 -30.667 14.167 -55.167 42.5 -73.5
s67.5 -27.5 117.5 -27.5z" />
    <glyph glyph-name="h" unicode="h" horiz-adv-x="528" 
d="M92 0v719.001h44v-208v-106c58 58 113.333 87 166 87c49.333 0 85.833 -15.167 109.5 -45.5s35.5 -76.5 35.5 -138.5v-308h-44v302c0 51.333 -8.66699 89.166 -26 113.499s-45.333 36.5 -84 36.5c-27.333 0 -52.5 -7 -75.5 -21s-50.167 -37 -81.5 -69v-362h-44z" />
    <glyph glyph-name="i" unicode="i" horiz-adv-x="229" 
d="M92 0v480h44v-480h-44zM115 596c-11.333 0 -20.833 3.66699 -28.5 11s-11.5 16.666 -11.5 27.999c0 12 3.83301 21.667 11.5 29s17.167 11 28.5 11s20.833 -3.66699 28.5 -11s11.5 -17 11.5 -29c0 -11.333 -3.83301 -20.666 -11.5 -27.999s-17.167 -11 -28.5 -11z" />
    <glyph glyph-name="j" unicode="j" horiz-adv-x="229" 
d="M29 -229c-21.333 0 -42 3.99902 -62 11.999l11 36c20 -6.66699 36.667 -10 50 -10c25.333 0 42.333 8.83301 51 26.5s13 43.834 13 78.501v566h45v-569c0 -93.333 -36 -140 -108 -140zM115 595.999c-10.667 0 -20 3.66699 -28 11s-12 16.666 -12 27.999
c0 12 4 21.667 12 29s17.333 11 28 11c11.333 0 21 -3.66699 29 -11s12 -17 12 -29c0 -11.333 -4 -20.666 -12 -27.999s-17.667 -11 -29 -11z" />
    <glyph glyph-name="k" unicode="k" horiz-adv-x="464" 
d="M92 0v719h44v-530h2l237 291h51l-156 -190l182 -290h-49l-159 257l-108 -126v-131h-44z" />
    <glyph glyph-name="l" unicode="l" horiz-adv-x="237" 
d="M151 -12c-39.333 0 -59 25.333 -59 76v655h44v-661c0 -20.667 7 -31 21 -31c5.33301 0 11.333 0.666992 18 2l8 -36c-10 -3.33301 -20.667 -5 -32 -5z" />
    <glyph glyph-name="m" unicode="m" horiz-adv-x="812" 
d="M92 0l0.000976562 480.001h38l4 -74h3c50 57.333 100.333 86 151 86c70 0 114.333 -32.667 133 -98c60 65.333 114.333 98 163 98c96 0 144 -61.333 144 -184v-308h-45v302c0 100 -35.667 150 -107 150c-42.667 0 -90.667 -30 -144 -90v-362h-44v302
c0 51.333 -8.83301 89.166 -26.5 113.499s-44.834 36.5 -81.501 36.5c-42.667 0 -90.667 -30 -144 -90v-362h-44z" />
    <glyph glyph-name="n" unicode="n" horiz-adv-x="532" 
d="M92 0v480.001h38l4 -74h3c57.333 57.333 112.333 86 165 86c49.333 0 85.833 -15.167 109.5 -45.5s35.5 -76.5 35.5 -138.5v-308h-44v302c0 51.333 -8.66699 89.166 -26 113.499s-45.333 36.5 -84 36.5c-27.333 0 -52.5 -7 -75.5 -21s-50.167 -37 -81.5 -69v-362h-44z
" />
    <glyph glyph-name="o" unicode="o" horiz-adv-x="535" 
d="M267 -12c-60 0 -110.833 22.667 -152.5 68s-62.5 106.333 -62.5 183c0 77.333 20.833 138.833 62.5 184.5s92.5 68.5 152.5 68.5c60.667 0 111.834 -22.833 153.501 -68.5s62.5 -107.167 62.5 -184.5c0 -76.667 -20.833 -137.667 -62.5 -183s-92.834 -68 -153.501 -68z
M267 27c48.667 0 89.167 19.667 121.5 59s48.5 90.333 48.5 153s-16.167 114 -48.5 154s-72.833 60 -121.5 60s-89 -19.833 -121 -59.5s-48 -91.167 -48 -154.5c0 -62.667 16 -113.667 48 -153s72.333 -59 121 -59z" />
    <glyph glyph-name="p" unicode="p" horiz-adv-x="544" 
d="M92 -217l-0.000976562 697h38l4 -60h3c60.667 48 115 72 163 72c62.667 0 110.334 -21.833 143.001 -65.5s49 -103.5 49 -179.5c0 -78.667 -20.667 -141.5 -62 -188.5s-91.333 -70.5 -150 -70.5c-42.667 0 -90.667 19.667 -144 59v-89v-175h-44zM277.999 27
c48.667 0 88.667 20.5 120 61.5s47 93.833 47 158.5c0 63.333 -12.333 113.5 -37 150.5s-63 55.5 -115 55.5c-44.667 0 -97 -26.333 -157 -79v-285c50.667 -41.333 98 -62 142 -62z" />
    <glyph glyph-name="q" unicode="q" horiz-adv-x="544" 
d="M408 -217l-0.000976562 185l2 95c-52.667 -50 -105.667 -75 -159 -75c-61.333 0 -109.833 21.833 -145.5 65.5s-53.5 105.5 -53.5 185.5c0 75.333 20.833 136.333 62.5 183s91.834 70 150.501 70c47.333 0 95 -18.667 143 -56h2l5 44h37v-697h-44zM256.999 27
c48 0 98.334 26.333 151.001 79v285c-46.667 41.333 -93.334 62 -140.001 62c-48 0 -88.167 -20.5 -120.5 -61.5s-48.5 -91.833 -48.5 -152.5c0 -64.667 13.833 -116.167 41.5 -154.5s66.5 -57.5 116.5 -57.5z" />
    <glyph glyph-name="r" unicode="r" horiz-adv-x="317" 
d="M92 0v480h38l4 -89h3c36.667 67.333 82 101 136 101c18.667 0 34.667 -3.33301 48 -10l-10 -40c-14 5.33301 -28.667 8 -44 8c-53.333 0 -97 -41 -131 -123v-327h-44z" />
    <glyph glyph-name="s" unicode="s" horiz-adv-x="405" 
d="M208 -12c-64.667 0 -123.332 22.002 -175.999 66.002l26 33c49.333 -40.667 100.333 -61 153 -61c36 0 64 9.16699 84 27.5s30 40.833 30 67.5s-10.5 47.667 -31.5 63s-49.5 29.666 -85.5 42.999c-19.333 6.66699 -34.333 12.167 -45 16.5s-24 10.666 -40 18.999
s-28 16.833 -36 25.5s-15.333 19.5 -22 32.5s-10 27.5 -10 43.5c0 36.667 13.833 67.167 41.5 91.5s65.5 36.5 113.5 36.5c51.333 0 97 -16.667 137 -50l-24 -31c-38 28.667 -76.333 43 -115 43c-34.667 0 -61.334 -8.5 -80.001 -25.5s-28 -37.5 -28 -61.5
c0 -13.333 2.83301 -25 8.5 -35s14.834 -19 27.501 -27s24 -14.167 34 -18.5s24.333 -9.83301 43 -16.5c55.333 -20.667 91.666 -37.667 108.999 -51c32 -24 48 -56 48 -96c0 -38 -14.5 -70 -43.5 -96s-68.5 -39 -118.5 -39z" />
    <glyph glyph-name="t" unicode="t" horiz-adv-x="312" 
d="M223 -12c-44 0 -75.001 12.499 -93.001 37.499s-27 60.833 -27 107.5v309h-75v34l76 4l6 139h38v-139h139v-38h-139v-313c0 -33.333 5.83301 -58.666 17.5 -75.999s32.834 -26 63.501 -26c18.667 0 38.667 5 60 15l12 -36c-33.333 -12 -59.333 -18 -78 -18z" />
    <glyph glyph-name="u" unicode="u" horiz-adv-x="529" 
d="M230 -12c-49.333 0 -85.833 15.166 -109.5 45.499s-35.5 76.5 -35.5 138.5v308h44v-302c0 -51.333 8.66699 -89.166 26 -113.499s45 -36.5 83 -36.5c28 0 53.667 7.66699 77 23s49.333 40.333 78 75v354h44v-480h-37l-5 80h-2c-52.667 -61.333 -107 -92 -163 -92z" />
    <glyph glyph-name="v" unicode="v" horiz-adv-x="434" 
d="M192 0l-179.999 480h48l108 -301l26 -74c11.333 -32 18.666 -53.333 21.999 -64h4l49 138l108 301h45l-178 -480h-52z" />
    <glyph glyph-name="w" unicode="w" horiz-adv-x="685" 
d="M166 0l-141.997 479.999h48l86 -311c14.667 -53.333 25.667 -96 33 -128h4l10.5 40c3.66699 14 8 29.667 13 47s8.83301 31 11.5 41l87 311h53l87 -311l19.5 -69.5l16.5 -58.5h4l16.5 61.5c7.66699 28.333 13.5 50.5 17.5 66.5l85 311h45l-138 -480h-58l-84 298
c-4.66699 16 -10.834 39 -18.501 69s-13.834 52.667 -18.501 68h-4c-12.667 -53.333 -25.334 -99.666 -38.001 -138.999l-83 -296h-53z" />
    <glyph glyph-name="x" unicode="x" horiz-adv-x="407" 
d="M14 0l163 250.998l-150 229h49l78 -122l51 -79h4c6 8.66699 14.167 21.834 24.5 39.501s18.5 30.834 24.5 39.501l75 122h46l-149 -233l163 -247h-49l-85 131c-20.667 34 -39.667 63.333 -57 88h-4c-7.33301 -10.667 -17.5 -26.667 -30.5 -48l-24.5 -40l-82 -131h-47z
" />
    <glyph glyph-name="y" unicode="y" horiz-adv-x="436" 
d="M73 -219c-18 0 -34.332 3.33301 -48.999 10l10 39c13.333 -5.33301 26.333 -8 39 -8c54 0 95 42.333 123 127l13 42l-197 489h48l116 -302c25.333 -67.333 42.666 -112 51.999 -134h4c3.33301 9.33301 18 54 44 134l103 302h45l-190 -540
c-35.333 -106 -89 -159 -161 -159z" />
    <glyph glyph-name="z" unicode="z" horiz-adv-x="404" 
d="M27 0v24l284 418h-253v38h310v-23l-283 -418h293v-39h-351z" />
    <glyph glyph-name="braceleft" unicode="{" horiz-adv-x="279" 
d="M224 -152c-38.667 0 -66.834 9.16797 -84.501 27.501s-26.5 51.833 -26.5 100.5c0 25.333 1.33301 60.166 4 104.499s4 77.833 4 100.5c0 54 -28.667 81 -86 81v32c57.333 0 86 26.333 86 79c0 23.333 -1.33301 57.5 -4 102.5s-4 79.833 -4 104.5
c0 48.667 8.83301 82.167 26.5 100.5s45.834 27.5 84.501 27.5h34v-29h-31c-29.333 0 -49.5 -8 -60.5 -24s-16.5 -42.333 -16.5 -79c0 -21.333 1 -52.5 3 -93.5s3 -73.833 3 -98.5c0 -30.667 -3.66699 -54.167 -11 -70.5s-20.666 -27.5 -39.999 -33.5v-4
c19.333 -6 32.666 -17.333 39.999 -34s11 -40 11 -70c0 -24.667 -1 -57.5 -3 -98.5s-3 -72.167 -3 -93.5c0 -36.667 5.5 -63 16.5 -79s31.167 -24 60.5 -24h31v-29h-34z" />
    <glyph glyph-name="bar" unicode="|" horiz-adv-x="226" 
d="M95 -250v1000h36v-1000h-36z" />
    <glyph glyph-name="braceright" unicode="}" horiz-adv-x="279" 
d="M21 -152l0.000976562 28.998h31c29.333 0 49.5 8 60.5 24s16.5 42.333 16.5 79c0 21.333 -1 52.5 -3 93.5s-3 73.833 -3 98.5c0 58.667 17 93.334 51 104.001v4c-18.667 6 -31.834 17.167 -39.501 33.5s-11.5 39.833 -11.5 70.5c0 24.667 1 57.5 3 98.5s3 72.167 3 93.5
c0 36.667 -5.5 63 -16.5 79s-31.167 24 -60.5 24h-31v29h34c38.667 0 66.834 -9.16699 84.501 -27.5s26.5 -51.833 26.5 -100.5c0 -24.667 -1.33301 -59.5 -4 -104.5s-4 -79.167 -4 -102.5c0 -52.667 28.667 -79 86 -79v-32c-57.333 0 -86 -27 -86 -81
c0 -22.667 1.33301 -56.167 4 -100.5s4 -79.166 4 -104.499c0 -48.667 -8.83301 -82.167 -26.5 -100.5s-45.834 -27.5 -84.501 -27.5h-34z" />
    <glyph glyph-name="asciitilde" unicode="~" horiz-adv-x="479" 
d="M329 266c-22 0 -44.001 7.5 -66.001 22.5s-42.667 30 -62 45s-37 22.5 -53 22.5c-31.333 0 -57.666 -21 -78.999 -63l-29 18c28.667 55.333 65.334 83 110.001 83c22 0 44 -7.5 66 -22.5s42.667 -30 62 -45s37 -22.5 53 -22.5c31.333 0 57.666 21 78.999 63l28 -20
c-13.333 -26 -29.833 -46 -49.5 -60s-39.5 -21 -59.5 -21z" />
    <glyph glyph-name="uni00A0" unicode="&#xa0;" horiz-adv-x="199" 
 />
    <glyph glyph-name="exclamdown" unicode="&#xa1;" horiz-adv-x="259" 
d="M107 -190v71l6 420h33l6 -420l1 -71h-46zM130 401c-12 0 -22.167 4.16699 -30.5 12.5s-12.5 19.833 -12.5 34.5c0 12.667 4.33301 23.167 13 31.5s18.667 12.5 30 12.5s21.166 -4 29.499 -12s12.5 -18.667 12.5 -32c0 -14.667 -4.16699 -26.167 -12.5 -34.5
s-18.166 -12.5 -29.499 -12.5z" />
    <glyph glyph-name="cent" unicode="&#xa2;" horiz-adv-x="479" 
d="M255 121v380.998c-44 -7.33301 -79.667 -28.166 -107 -62.499s-41 -77.166 -41 -128.499c0 -52 13.333 -95 40 -129s62.667 -54.333 108 -61zM412 172.998l23 -29.001c-44 -40.667 -92.667 -62 -146 -64v-108h-34v109c-58 5.33301 -104.667 28.333 -140 69
s-53 94.334 -53 161.001s18.167 120.167 54.5 160.5s82.5 63.5 138.5 69.5v111h34v-109c50 -1.33301 95 -21.333 135 -60l-24 -28c-34.667 30.667 -71.667 47 -111 49v-385c44 2 85 20 123 54z" />
    <glyph glyph-name="sterling" unicode="&#xa3;" horiz-adv-x="479" 
d="M133 40l294.999 -0.000976562v-40h-371v27c35.333 20 61.833 47.167 79.5 81.5s26.5 71.833 26.5 112.5c0 20.667 -3 44.667 -9 72h-100v33l66 3h24c-1.33301 6 -4.16602 15.833 -8.49902 29.5s-7.5 24.167 -9.5 31.5s-4.33301 16.833 -7 28.5s-4.5 22.5 -5.5 32.5
s-1.5 20 -1.5 30c0 52.667 15.167 94.167 45.5 124.5s71.833 45.5 124.5 45.5c58.667 0 106.667 -23.667 144 -71l-29 -27c-33.333 39.333 -71.666 59 -114.999 59c-39.333 0 -70 -12.333 -92 -37s-33 -56 -33 -94c0 -12.667 1.16699 -26 3.5 -40
s4.66602 -25.667 6.99902 -35s6 -22.666 11 -39.999l10.5 -37h165v-36h-157c5.33301 -24.667 8 -48.667 8 -72c0 -72 -24 -131 -72 -177v-4z" />
    <glyph glyph-name="currency" unicode="&#xa4;" horiz-adv-x="479" 
d="M57 114l-26.002 28l65 67c-25.333 34 -38 73.667 -38 119c0 47.333 12.667 88 38 122l-65 68l26 28l66 -69c32.667 29.333 71.334 44 116.001 44s83.334 -14.667 116.001 -44l67 69l26 -28l-66 -68c25.333 -34 38 -74.667 38 -122c0 -45.333 -12.333 -85 -37 -119l65 -67
l-26 -28l-67 68c-32 -30 -70.667 -45 -116 -45c-44 0 -82.667 15 -116 45zM238.998 174c38 0 70.333 14.5 97 43.5s40 65.833 40 110.5c0 45.333 -13.333 82.666 -40 111.999s-59 44 -97 44s-70.333 -14.667 -97 -44s-40 -66.666 -40 -111.999
c0 -44.667 13.333 -81.5 40 -110.5s59 -43.5 97 -43.5z" />
    <glyph glyph-name="yen" unicode="&#xa5;" horiz-adv-x="479" 
d="M216 0v165.002h-166v34h166v71h-166v33h152l-172 336h48l94 -193l66 -137h4c8 15.333 19.167 38.166 33.5 68.499s25.5 53.166 33.5 68.499l94 193h46l-174 -336h154v-33h-168v-71h168v-34h-168v-165h-45z" />
    <glyph glyph-name="brokenbar" unicode="&#xa6;" horiz-adv-x="226" 
d="M95 279v471h36v-471h-36zM95 -250v470h36v-470h-36z" />
    <glyph glyph-name="section" unicode="&#xa7;" horiz-adv-x="479" 
d="M312 181c26 12 45 25.334 57 40.001s18 34.667 18 60s-8 47.5 -24 66.5s-33.667 33.167 -53 42.5s-44 20.666 -74 33.999s-52.667 25 -68 35c-25.333 -14.667 -44.333 -29.667 -57 -45s-19 -35 -19 -59c0 -24.667 8 -46.167 24 -64.5s33.833 -32 53.5 -41l74 -33
c29.667 -13 52.5 -24.833 68.5 -35.5zM381 628.001l-23.9971 -30.9961c-38 30.667 -76.333 46 -115 46c-31.333 0 -54.833 -7.33301 -70.5 -22s-23.5 -32.667 -23.5 -54c0 -24 9.66699 -44.5 29 -61.5s42.666 -31.167 69.999 -42.5s54.833 -23.5 82.5 -36.5
s51.167 -31.5 70.5 -55.5s29 -53 29 -87c0 -30.667 -7.33301 -55.834 -22 -75.501s-36.334 -37.167 -65.001 -52.5c22.667 -22.667 34 -50.667 34 -84c0 -35.333 -14 -64.833 -42 -88.5s-61.667 -35.5 -101 -35.5c-63.333 0 -117 21 -161 63l30 28
c38 -36 81.667 -54 131 -54c30 0 54.167 8.16699 72.5 24.5s27.5 36.5 27.5 60.5c0 24.667 -9.66699 45.667 -29 63s-42.833 31.666 -70.5 42.999s-55.5 23.5 -83.5 36.5s-51.667 31.167 -71 54.5s-29 51.666 -29 84.999c0 55.333 29.667 99 89 131c-22 22 -33 49 -33 81
c0 31.333 11.667 58.666 35 81.999s56.666 35 99.999 35c50 0 96.667 -17.667 140 -53z" />
    <glyph glyph-name="dieresis" unicode="&#xa8;" horiz-adv-x="535" 
d="M188 598c-10.667 0 -19.334 3.5 -26.001 10.5s-10 15.833 -10 26.5c0 10 3.33301 18.5 10 25.5s15.334 10.5 26.001 10.5s19.5 -3.5 26.5 -10.5s10.5 -15.5 10.5 -25.5c0 -10.667 -3.5 -19.5 -10.5 -26.5s-15.833 -10.5 -26.5 -10.5zM346 598
c-10.667 0 -19.5 3.5 -26.5 10.5s-10.5 15.833 -10.5 26.5c0 10 3.5 18.5 10.5 25.5s15.833 10.5 26.5 10.5s19.334 -3.5 26.001 -10.5s10 -15.5 10 -25.5c0 -10.667 -3.33301 -19.5 -10 -26.5s-15.334 -10.5 -26.001 -10.5z" />
    <glyph glyph-name="copyright" unicode="&#xa9;" horiz-adv-x="741" 
d="M371 -12c-88.667 0 -164.167 31 -226.5 93s-93.5 142.333 -93.5 241c0 98 31 177.5 93 238.5s137.667 91.5 227 91.5c88.667 0 164 -30.5 226 -91.5s93 -140.5 93 -238.5c0 -98.667 -31 -179 -93 -241s-137.333 -93 -226 -93zM371 19c78.667 0 145.665 28.333 200.998 85
s83 129.334 83 218.001c0 88 -27.667 160 -83 216s-122.333 84 -201 84c-79.333 0 -146.666 -28 -201.999 -84s-83 -128 -83 -216c0 -88.667 27.833 -161.334 83.5 -218.001s122.834 -85 201.501 -85zM375.998 124c-49.333 0 -90.832 17.833 -124.499 53.5
s-50.5 83.834 -50.5 144.501c0 56 17.667 101.167 53 135.5s77.666 51.5 126.999 51.5c43.333 0 83.333 -18.333 120 -55l-23 -26c-31.333 29.333 -64 44 -98 44c-40 0 -72.667 -13.833 -98 -41.5s-38 -63.834 -38 -108.501c0 -49.333 12.167 -88.5 36.5 -117.5
s56.833 -43.5 97.5 -43.5c40 0 78.333 16.667 115 50l20 -28c-22 -19.333 -43 -34 -63 -44s-44.667 -15 -74 -15z" />
    <glyph glyph-name="ordfeminine" unicode="&#xaa;" horiz-adv-x="337" 
d="M139 261c-28.667 0 -52.001 8.16504 -70.001 24.498s-27 38.5 -27 66.5c0 34.667 16.333 61.334 49 80.001s85 31.334 157 38.001c-1.33301 61.333 -24.666 92 -69.999 92c-36 0 -71.667 -12.333 -107 -37l-15 27c41.333 28.667 83.333 43 126 43
c68.667 0 103 -42 103 -126v-200h-30l-6 39h-4c-36.667 -31.333 -72 -47 -106 -47zM147.999 292.998c31.333 0 64.667 16.333 100 49v102c-60 -6 -102.833 -16.5 -128.5 -31.5s-38.5 -34.167 -38.5 -57.5c0 -41.333 22.333 -62 67 -62z" />
    <glyph glyph-name="guillemotleft" unicode="&#xab;" horiz-adv-x="399" 
d="M180 72l-137 161v38l137 161l25 -21l-123 -159l123 -161zM321 72l-137 161v38l137 161l25 -21l-123 -159l123 -161z" />
    <glyph glyph-name="logicalnot" unicode="&#xac;" horiz-adv-x="479" 
d="M404 110v201h-370v38h411v-239h-41z" />
    <glyph glyph-name="uni00AD" unicode="&#xad;" horiz-adv-x="299" 
d="M40 230v39h220v-39h-220z" />
    <glyph glyph-name="registered" unicode="&#xae;" horiz-adv-x="401" 
d="M200 324c-50.667 0 -93.667 18 -129 54s-53 82.333 -53 139c0 57.333 17.667 104.166 53 140.499s78.333 54.5 129 54.5c51.333 0 94.5 -18.167 129.5 -54.5s52.5 -83.166 52.5 -140.499c0 -56.667 -17.5 -103 -52.5 -139s-78.167 -54 -129.5 -54zM200 353
c42.667 0 78.5 15.5 107.5 46.5s43.5 70.167 43.5 117.5s-14.667 87 -44 119s-65 48 -107 48s-77.667 -16 -107 -48s-44 -71.667 -44 -119s14.5 -86.5 43.5 -117.5s64.833 -46.5 107.5 -46.5zM132 418v206.001h69c51.333 0 77 -21.333 77 -64
c0 -12.667 -3.83301 -24.334 -11.5 -35.001s-17.167 -17.667 -28.5 -21l49 -86h-37l-39 76h-47v-76h-32zM164 521.001h29c34 0 51 12.333 51 37c0 25.333 -16 38 -48 38h-32v-75z" />
    <glyph glyph-name="macron" unicode="&#xaf;" horiz-adv-x="535" 
d="M153 606v36h228v-36h-228z" />
    <glyph glyph-name="degree" unicode="&#xb0;" horiz-adv-x="311" 
d="M156 447c-31.333 0 -58.166 10.833 -80.499 32.5s-33.5 50.167 -33.5 85.5c0 36 11.167 64.833 33.5 86.5s49.166 32.5 80.499 32.5s58.166 -10.833 80.499 -32.5s33.5 -50.5 33.5 -86.5c0 -35.333 -11.167 -63.833 -33.5 -85.5s-49.166 -32.5 -80.499 -32.5zM156 479
c23.333 0 42.5 8.16699 57.5 24.5s22.5 36.833 22.5 61.5c0 25.333 -7.5 46.333 -22.5 63s-34.167 25 -57.5 25s-42.5 -8.33301 -57.5 -25s-22.5 -37.667 -22.5 -63c0 -24.667 7.5 -45.167 22.5 -61.5s34.167 -24.5 57.5 -24.5z" />
    <glyph glyph-name="plusminus" unicode="&#xb1;" horiz-adv-x="479" 
d="M219 109v201h-185v37h185v203h41v-203h185v-37h-185v-201h-41zM34 0v37h411v-37h-411z" />
    <glyph glyph-name="two.sups" unicode="&#xb2;" horiz-adv-x="362" 
d="M56 440l-0.000976562 24.9971c74 68.667 124.667 119.834 152 153.501s41 65.834 41 96.501c0 28.667 -7.83301 51.334 -23.5 68.001s-36.5 25 -62.5 25c-34 0 -64.333 -20.667 -91 -62l-25 23c12.667 20.667 29.834 38 51.501 52s44.5 21 68.5 21
c37.333 0 66.833 -10.5 88.5 -31.5s32.5 -51.5 32.5 -91.5c0 -15.333 -2.83301 -31 -8.5 -47s-11.5 -29.5 -17.5 -40.5s-17.833 -26.5 -35.5 -46.5s-31 -34.5 -40 -43.5l-53.5 -53.5l-14 -14h192v-34h-255z" />
    <glyph glyph-name="three.sups" unicode="&#xb3;" horiz-adv-x="362" 
d="M177 428c-57.333 0 -102.999 25.001 -136.999 75.001l29 22c26.667 -42.667 63 -64 109 -64c25.333 0 46.833 7.5 64.5 22.5s26.5 35.167 26.5 60.5s-12.333 45 -37 59s-58.334 21 -101.001 21v28c37.333 0 67 8.16699 89 24.5s33 36.166 33 59.499
c0 22 -7.5 39.667 -22.5 53s-35.167 20 -60.5 20c-31.333 0 -61 -17.333 -89 -52l-25 22c32.667 42 72 63 118 63c33.333 0 61.333 -9.33301 84 -28s34 -43.667 34 -75c0 -46 -25 -79 -75 -99c25.333 -4.66699 46.833 -15.5 64.5 -32.5s26.5 -38.5 26.5 -64.5
c0 -35.333 -12.5 -63.333 -37.5 -84s-56.167 -31 -93.5 -31z" />
    <glyph glyph-name="acute" unicode="&#xb4;" horiz-adv-x="535" 
d="M212 572l100 156h56l-116 -156h-40z" />
    <glyph glyph-name="uni00B5" unicode="&#xb5;" horiz-adv-x="543" 
d="M92 -180l-0.00195312 659.998h44v-302c0 -100 35.333 -150 106 -150c29.333 0 56 7.33301 80 22s49 44.334 75 89.001v341h44c0 -31.333 -0.333008 -75.333 -1 -132s-1.16699 -108.167 -1.5 -154.5s-0.5 -89.5 -0.5 -129.5c0 -24.667 10 -37 30 -37c8 0 17.333 2 28 6
l8 -36c-13.333 -6 -27.333 -9 -42 -9c-23.333 0 -39.666 7.83301 -48.999 23.5s-14 41.5 -14 77.5h-3c-39.333 -66.667 -89.666 -100 -150.999 -100c-26.667 0 -49.167 4.33301 -67.5 13s-33.5 24.334 -45.5 47.001c0 -98.667 1.66699 -175 5 -229h-45z" />
    <glyph glyph-name="paragraph" unicode="&#xb6;" horiz-adv-x="515" 
d="M373 -80v739h46v-739h-46zM291 244c-78 0 -139 16.668 -183 50.001s-66 85.666 -66 156.999c0 72 20.667 124.667 62 158s98.333 50 171 50h44v-415h-28z" />
    <glyph glyph-name="periodcentered" unicode="&#xb7;" horiz-adv-x="219" 
d="M110 277c-11.333 0 -21.333 4.16699 -30 12.5s-13 19.166 -13 32.499c0 14 4.33301 25.167 13 33.5s18.667 12.5 30 12.5s21.166 -4.16699 29.499 -12.5s12.5 -19.5 12.5 -33.5c0 -13.333 -4.16699 -24.166 -12.5 -32.499s-18.166 -12.5 -29.499 -12.5z" />
    <glyph glyph-name="cedilla" unicode="&#xb8;" horiz-adv-x="535" 
d="M199 -208l-7 29.998c42 2.66699 71.333 8.33398 88 17.001s25 20.667 25 36c0 14.667 -6 25.834 -18 33.501s-32 13.5 -60 17.5l41 76h35l-30 -56c47.333 -12 71 -35 71 -69c0 -50.667 -48.333 -79 -145 -85z" />
    <glyph glyph-name="one.sups" unicode="&#xb9;" horiz-adv-x="362" 
d="M176 440v324h-82v27c35.333 7.33301 64.333 20.333 87 39h33v-390h-38z" />
    <glyph glyph-name="ordmasculine" unicode="&#xba;" horiz-adv-x="360" 
d="M179 261c-42 0 -76.833 15 -104.5 45s-41.5 70.667 -41.5 122s13.833 92 41.5 122s62.5 45 104.5 45s76.833 -15 104.5 -45s41.5 -70.667 41.5 -122s-13.833 -92 -41.5 -122s-62.5 -45 -104.5 -45zM179 294c32 0 57.833 12.333 77.5 37s29.5 57 29.5 97
s-9.66699 72.333 -29 97s-45.333 37 -78 37c-32 0 -57.833 -12.333 -77.5 -37s-29.5 -57 -29.5 -97c0 -39.333 9.83301 -71.5 29.5 -96.5s45.5 -37.5 77.5 -37.5z" />
    <glyph glyph-name="guillemotright" unicode="&#xbb;" horiz-adv-x="399" 
d="M78 72l-24 19l122 161l-122 159l24 21l138 -161v-38zM219 72l-24 19l122 161l-122 159l24 21l138 -161v-38z" />
    <glyph glyph-name="onequarter" unicode="&#xbc;" horiz-adv-x="764" 
d="M193 269h-38v324h-82v27c35.333 7.33301 64.333 20.333 87 39h33v-390zM545 671h38l-367 -683h-39zM496 146h129v87l4 104h-4l-56 -83zM719 146v-32h-58v-114h-36v114h-177v21l177 255h36v-244h58z" />
    <glyph glyph-name="onehalf" unicode="&#xbd;" horiz-adv-x="786" 
d="M155 269v324h-82v27c35.333 7.33301 64.333 20.333 87 39h33v-390h-38zM480 0l-0.000976562 24.9971c74 68.667 124.667 119.834 152 153.501s41 65.834 41 96.501c0 28.667 -7.83301 51.334 -23.5 68.001s-36.5 25 -62.5 25c-34 0 -64.333 -20.667 -91 -62l-25 23
c12.667 20.667 29.834 38 51.501 52s44.5 21 68.5 21c37.333 0 66.833 -10.5 88.5 -31.5s32.5 -51.5 32.5 -91.5c0 -15.333 -2.83301 -31 -8.5 -47s-11.5 -29.5 -17.5 -40.5s-17.833 -26.5 -35.5 -46.5s-31 -34.5 -40 -43.5l-53.5 -53.5l-14 -14h192v-34h-255z
M153.999 -12.0029l368 683h38l-367 -683h-39z" />
    <glyph glyph-name="threequarters" unicode="&#xbe;" horiz-adv-x="783" 
d="M81 586l-24.999 22.001c32.667 42 72 63 118 63c33.333 0 61.333 -9.33301 84 -28s34 -43.667 34 -75c0 -46 -25 -79 -75 -99c25.333 -4.66699 46.833 -15.5 64.5 -32.5s26.5 -38.5 26.5 -64.5c0 -35.333 -12.5 -63.333 -37.5 -84s-56.167 -31 -93.5 -31
c-57.333 0 -103 25 -137 75l29 22c26.667 -42.667 63 -64 109 -64c25.333 0 46.833 7.5 64.5 22.5s26.5 35.167 26.5 60.5s-12.333 45 -37 59s-58.334 21 -101.001 21v28c37.333 0 67 8.16699 89 24.5s33 36.166 33 59.499c0 22 -7.5 39.667 -22.5 53s-35.167 20 -60.5 20
c-31.333 0 -61 -17.333 -89 -52zM592.001 671.001h38l-367 -683h-39zM515.001 146.001h129v87l4 104h-4l-56 -83zM738.001 146.001v-32h-58v-114h-36v114h-177v21l177 255h36v-244h58z" />
    <glyph glyph-name="questiondown" unicode="&#xbf;" horiz-adv-x="402" 
d="M206 -202c-48 0 -85.835 14.3311 -113.502 42.998s-41.5 65.334 -41.5 110.001c0 24.667 5.66699 49 17 73s24.833 46 40.5 66l46.5 60.5c15.333 20.333 27.333 43.5 36 69.5s11.334 53 8.00098 81h41c4 -30.667 1.83301 -59.667 -6.5 -87s-20 -51.333 -35 -72
s-30.167 -40.5 -45.5 -59.5s-28.666 -39.667 -39.999 -62s-17 -44.5 -17 -66.5c0 -33.333 9.66699 -61.166 29 -83.499s47.666 -33.5 84.999 -33.5c50 0 92.667 21.333 128 64l28 -25c-47.333 -52 -100.666 -78 -159.999 -78zM215.998 400.998
c-11.333 0 -21.166 4.16699 -29.499 12.5s-12.5 19.833 -12.5 34.5c0 13.333 4.16699 24 12.5 32s18.166 12 29.499 12s21.166 -4 29.499 -12s12.5 -18.667 12.5 -32c0 -14.667 -4.16699 -26.167 -12.5 -34.5s-18.166 -12.5 -29.499 -12.5z" />
    <glyph glyph-name="Agrave" unicode="&#xc0;" horiz-adv-x="526" 
d="M301 709h-42l-112 111h61zM146 265h234l-42 123c-30.667 88.667 -55 164.667 -73 228h-4c-18 -63.333 -42.333 -139.333 -73 -228zM470 0l-77 226h-261l-78 -226h-46l232 659h46l232 -659h-48z" />
    <glyph glyph-name="Aacute" unicode="&#xc1;" horiz-adv-x="526" 
d="M379 820l-112 -111h-42l93 111h61zM146 265h234l-42 123c-30.667 88.667 -55 164.667 -73 228h-4c-18 -63.333 -42.333 -139.333 -73 -228zM470 0l-77 226h-261l-78 -226h-46l232 659h46l232 -659h-48z" />
    <glyph glyph-name="Acircumflex" unicode="&#xc2;" horiz-adv-x="526" 
d="M261 785l-75 -76h-41l96 111h44l96 -111h-41l-75 76h-4zM146 265h234l-42 123c-30.667 88.667 -55 164.667 -73 228h-4c-18 -63.333 -42.333 -139.333 -73 -228zM470 0l-77 226h-261l-78 -226h-46l232 659h46l232 -659h-48z" />
    <glyph glyph-name="Atilde" unicode="&#xc3;" horiz-adv-x="526" 
d="M368 808h33c-1.33301 -24.667 -9 -46.167 -23 -64.5s-32 -27.5 -54 -27.5c-19.333 0 -41.666 9.33301 -66.999 28s-44 28 -56 28c-11.333 0 -20.833 -5.16699 -28.5 -15.5s-12.5 -23.833 -14.5 -40.5h-33c1.33301 24.667 9 46.167 23 64.5s32 27.5 54 27.5
c19.333 0 41.666 -9.33301 66.999 -28s44 -28 56 -28c11.333 0 20.833 5.16699 28.5 15.5s12.5 23.833 14.5 40.5zM146 265h234l-42 123c-30.667 88.667 -55 164.667 -73 228h-4c-18 -63.333 -42.333 -139.333 -73 -228zM470 0l-77 226h-261l-78 -226h-46l232 659h46
l232 -659h-48z" />
    <glyph glyph-name="Adieresis" unicode="&#xc4;" horiz-adv-x="526" 
d="M342 725c-10.667 0 -19.5 3.33301 -26.5 10s-10.5 15.334 -10.5 26.001c0 11.333 3.5 20.333 10.5 27s15.833 10 26.5 10s19.334 -3.33301 26.001 -10s10 -15.667 10 -27c0 -10.667 -3.33301 -19.334 -10 -26.001s-15.334 -10 -26.001 -10zM184 725
c-10.667 0 -19.334 3.33301 -26.001 10s-10 15.334 -10 26.001c0 11.333 3.33301 20.333 10 27s15.334 10 26.001 10s19.5 -3.33301 26.5 -10s10.5 -15.667 10.5 -27c0 -10.667 -3.5 -19.334 -10.5 -26.001s-15.833 -10 -26.5 -10zM146 265h234l-42 123
c-30.667 88.667 -55 164.667 -73 228h-4c-18 -63.333 -42.333 -139.333 -73 -228zM470 0l-77 226h-261l-78 -226h-46l232 659h46l232 -659h-48z" />
    <glyph glyph-name="Aring" unicode="&#xc5;" horiz-adv-x="526" 
d="M263 838c-14.667 0 -27 -5 -37 -15s-15 -23.667 -15 -41c0 -18 4.83301 -31.833 14.5 -41.5s22.167 -14.5 37.5 -14.5c14 0 26 5 36 15s15 23.667 15 41c0 16.667 -5 30.167 -15 40.5s-22 15.5 -36 15.5zM263 700c-24 0 -43.667 7.5 -59 22.5s-23 34.833 -23 59.5
c0 24 7.66699 43.667 23 59s35 23 59 23c22.667 0 42 -7.66699 58 -23s24 -35 24 -59c0 -24.667 -7.83301 -44.5 -23.5 -59.5s-35.167 -22.5 -58.5 -22.5zM146 265h234l-42 123c-30.667 88.667 -55 164.667 -73 228h-4c-18 -63.333 -42.333 -139.333 -73 -228zM470 0
l-77 226h-261l-78 -226h-46l232 659h46l232 -659h-48z" />
    <glyph glyph-name="AE" unicode="&#xc6;" horiz-adv-x="809" 
d="M210 255h201v364h-4l-124 -231zM457 40h305v-40h-351v217h-222l-119 -217h-49l365 659h366v-40h-295v-249h245v-40h-245v-290z" />
    <glyph glyph-name="Ccedilla" unicode="&#xc7;" horiz-adv-x="564" 
d="M500 111l27 -29.002c-48.667 -54.667 -104.667 -85.667 -168 -93l-23 -43c47.333 -12 71 -35 71 -69c0 -50.667 -48.333 -79 -145 -85l-7 30c42 2.66699 71.333 8.33398 88 17.001s25 20.667 25 36c0 14.667 -6 25.834 -18 33.501s-32 13.5 -60 17.5l33 62
c-80 2 -144.667 34 -194 96s-74 144.333 -74 247c0 104 25.833 186.667 77.5 248s119.5 92 203.5 92c70 0 127.333 -26.333 172 -79l-27 -31c-40 45.333 -88 68 -144 68c-72.667 0 -129.834 -26.667 -171.501 -80s-62.5 -126 -62.5 -218s20.667 -165.167 62 -219.5
s97.333 -81.5 168 -81.5c62.667 0 118.334 27 167.001 81z" />
    <glyph glyph-name="Egrave" unicode="&#xc8;" horiz-adv-x="515" 
d="M97 0v659h361v-40h-315v-249h264v-40h-264v-290h325v-40h-371zM278 709l-112 111h61l93 -111h-42z" />
    <glyph glyph-name="Eacute" unicode="&#xc9;" horiz-adv-x="515" 
d="M97 0v659h361v-40h-315v-249h264v-40h-264v-290h325v-40h-371zM244 709l93 111h61l-112 -111h-42z" />
    <glyph glyph-name="Ecircumflex" unicode="&#xca;" horiz-adv-x="515" 
d="M164 709l96 111h44l96 -111h-41l-75 76h-4l-75 -76h-41zM97 0v659h361v-40h-315v-249h264v-40h-264v-290h325v-40h-371z" />
    <glyph glyph-name="Edieresis" unicode="&#xcb;" horiz-adv-x="515" 
d="M203 725c-10.667 0 -19.334 3.33301 -26.001 10s-10 15.334 -10 26.001c0 11.333 3.33301 20.333 10 27s15.334 10 26.001 10s19.5 -3.33301 26.5 -10s10.5 -15.667 10.5 -27c0 -10.667 -3.5 -19.334 -10.5 -26.001s-15.833 -10 -26.5 -10zM361 725
c-10.667 0 -19.5 3.33301 -26.5 10s-10.5 15.334 -10.5 26.001c0 11.333 3.5 20.333 10.5 27s15.833 10 26.5 10s19.334 -3.33301 26.001 -10s10 -15.667 10 -27c0 -10.667 -3.33301 -19.334 -10 -26.001s-15.334 -10 -26.001 -10zM97 0v659h361v-40h-315v-249h264v-40h-264
v-290h325v-40h-371z" />
    <glyph glyph-name="Igrave" unicode="&#xcc;" horiz-adv-x="240" 
d="M97 0v659h46v-659h-46zM116 709l-112 111h61l93 -111h-42z" />
    <glyph glyph-name="Iacute" unicode="&#xcd;" horiz-adv-x="240" 
d="M97 0v659h46v-659h-46zM82 709l93 111h61l-112 -111h-42z" />
    <glyph glyph-name="Icircumflex" unicode="&#xce;" horiz-adv-x="240" 
d="M97 0v659h46v-659h-46zM2 709l96 111h44l96 -111h-41l-75 76h-4l-75 -76h-41z" />
    <glyph glyph-name="Idieresis" unicode="&#xcf;" horiz-adv-x="240" 
d="M97 0v659h46v-659h-46zM41 725c-10.667 0 -19.334 3.33301 -26.001 10s-10 15.334 -10 26.001c0 11.333 3.33301 20.333 10 27s15.334 10 26.001 10s19.5 -3.33301 26.5 -10s10.5 -15.667 10.5 -27c0 -10.667 -3.5 -19.334 -10.5 -26.001s-15.833 -10 -26.5 -10zM199 725
c-10.667 0 -19.5 3.33301 -26.5 10s-10.5 15.334 -10.5 26.001c0 11.333 3.5 20.333 10.5 27s15.833 10 26.5 10s19.334 -3.33301 26.001 -10s10 -15.667 10 -27c0 -10.667 -3.33301 -19.334 -10 -26.001s-15.334 -10 -26.001 -10z" />
    <glyph glyph-name="Eth" unicode="&#xd0;" horiz-adv-x="625" 
d="M164 39l102 0.000976562c86 0 150.167 26.333 192.5 79s63.5 124 63.5 214c0 89.333 -21.167 159.666 -63.5 210.999s-106.5 77 -192.5 77h-102v-255h163v-33h-163v-293zM118 659.001l153 0.000976562c98.667 0 173.167 -28.833 223.5 -86.5s75.5 -137.834 75.5 -240.501
c0 -103.333 -25.167 -184.5 -75.5 -243.5s-124.5 -88.5 -222.5 -88.5h-154v332h-81v31l81 2v294z" />
    <glyph glyph-name="Ntilde" unicode="&#xd1;" horiz-adv-x="636" 
d="M384 716c-19.333 0 -41.666 9.33301 -66.999 28s-44 28 -56 28c-11.333 0 -20.833 -5.16699 -28.5 -15.5s-12.5 -23.833 -14.5 -40.5h-33c1.33301 24.667 9 46.167 23 64.5s32 27.5 54 27.5c19.333 0 41.666 -9.33301 66.999 -28s44 -28 56 -28
c11.333 0 20.833 5.16699 28.5 15.5s12.5 23.833 14.5 40.5h33c-1.33301 -24.667 -9 -46.167 -23 -64.5s-32 -27.5 -54 -27.5zM97 0v659h48l278 -465l74 -131h4l-6 192v404h44v-659h-48l-278 465l-74 131h-4c0.666992 -14 1.5 -33.5 2.5 -58.5s1.83301 -48 2.5 -69
s1 -40.833 1 -59.5v-409h-44z" />
    <glyph glyph-name="Ograve" unicode="&#xd2;" horiz-adv-x="652" 
d="M322 709l-112 111h61l93 -111h-42zM326 -12c-80 0 -145.167 31.5 -195.5 94.5s-75.5 146.167 -75.5 249.5c0 102.667 25.167 184.834 75.5 246.501s115.5 92.5 195.5 92.5c80.667 0 146.167 -30.833 196.5 -92.5s75.5 -143.834 75.5 -246.501
c0 -103.333 -25.333 -186.5 -76 -249.5s-116 -94.5 -196 -94.5zM326 30c67.333 0 121.333 27.5 162 82.5s61 128.167 61 219.5c0 90.667 -20.333 162.834 -61 216.501s-94.667 80.5 -162 80.5s-121.333 -26.833 -162 -80.5s-61 -125.834 -61 -216.501
c0 -91.333 20.333 -164.5 61 -219.5s94.667 -82.5 162 -82.5z" />
    <glyph glyph-name="Oacute" unicode="&#xd3;" horiz-adv-x="652" 
d="M288 709l93 111h61l-112 -111h-42zM326 -12c-80 0 -145.167 31.5 -195.5 94.5s-75.5 146.167 -75.5 249.5c0 102.667 25.167 184.834 75.5 246.501s115.5 92.5 195.5 92.5c80.667 0 146.167 -30.833 196.5 -92.5s75.5 -143.834 75.5 -246.501
c0 -103.333 -25.333 -186.5 -76 -249.5s-116 -94.5 -196 -94.5zM326 30c67.333 0 121.333 27.5 162 82.5s61 128.167 61 219.5c0 90.667 -20.333 162.834 -61 216.501s-94.667 80.5 -162 80.5s-121.333 -26.833 -162 -80.5s-61 -125.834 -61 -216.501
c0 -91.333 20.333 -164.5 61 -219.5s94.667 -82.5 162 -82.5z" />
    <glyph glyph-name="Ocircumflex" unicode="&#xd4;" horiz-adv-x="652" 
d="M208 709l96 111h44l96 -111h-41l-75 76h-4l-75 -76h-41zM326 -12c-80 0 -145.167 31.5 -195.5 94.5s-75.5 146.167 -75.5 249.5c0 102.667 25.167 184.834 75.5 246.501s115.5 92.5 195.5 92.5c80.667 0 146.167 -30.833 196.5 -92.5s75.5 -143.834 75.5 -246.501
c0 -103.333 -25.333 -186.5 -76 -249.5s-116 -94.5 -196 -94.5zM326 30c67.333 0 121.333 27.5 162 82.5s61 128.167 61 219.5c0 90.667 -20.333 162.834 -61 216.501s-94.667 80.5 -162 80.5s-121.333 -26.833 -162 -80.5s-61 -125.834 -61 -216.501
c0 -91.333 20.333 -164.5 61 -219.5s94.667 -82.5 162 -82.5z" />
    <glyph glyph-name="Otilde" unicode="&#xd5;" horiz-adv-x="652" 
d="M326 -12c-80 0 -145.167 31.5 -195.5 94.5s-75.5 146.167 -75.5 249.5c0 102.667 25.167 184.834 75.5 246.501s115.5 92.5 195.5 92.5c80.667 0 146.167 -30.833 196.5 -92.5s75.5 -143.834 75.5 -246.501c0 -103.333 -25.333 -186.5 -76 -249.5s-116 -94.5 -196 -94.5z
M326 30c67.333 0 121.333 27.5 162 82.5s61 128.167 61 219.5c0 90.667 -20.333 162.834 -61 216.501s-94.667 80.5 -162 80.5s-121.333 -26.833 -162 -80.5s-61 -125.834 -61 -216.501c0 -91.333 20.333 -164.5 61 -219.5s94.667 -82.5 162 -82.5zM387 716
c-19.333 0 -41.666 9.33301 -66.999 28s-44 28 -56 28c-11.333 0 -20.833 -5.16699 -28.5 -15.5s-12.5 -23.833 -14.5 -40.5h-33c1.33301 24.667 9 46.167 23 64.5s32 27.5 54 27.5c19.333 0 41.666 -9.33301 66.999 -28s44 -28 56 -28c11.333 0 20.833 5.16699 28.5 15.5
s12.5 23.833 14.5 40.5h33c-1.33301 -24.667 -9 -46.167 -23 -64.5s-32 -27.5 -54 -27.5z" />
    <glyph glyph-name="Odieresis" unicode="&#xd6;" horiz-adv-x="652" 
d="M247 725c-10.667 0 -19.334 3.33301 -26.001 10s-10 15.334 -10 26.001c0 11.333 3.33301 20.333 10 27s15.334 10 26.001 10s19.5 -3.33301 26.5 -10s10.5 -15.667 10.5 -27c0 -10.667 -3.5 -19.334 -10.5 -26.001s-15.833 -10 -26.5 -10zM405 725
c-10.667 0 -19.5 3.33301 -26.5 10s-10.5 15.334 -10.5 26.001c0 11.333 3.5 20.333 10.5 27s15.833 10 26.5 10s19.334 -3.33301 26.001 -10s10 -15.667 10 -27c0 -10.667 -3.33301 -19.334 -10 -26.001s-15.334 -10 -26.001 -10zM326 -12c-80 0 -145.167 31.5 -195.5 94.5
s-75.5 146.167 -75.5 249.5c0 102.667 25.167 184.834 75.5 246.501s115.5 92.5 195.5 92.5c80.667 0 146.167 -30.833 196.5 -92.5s75.5 -143.834 75.5 -246.501c0 -103.333 -25.333 -186.5 -76 -249.5s-116 -94.5 -196 -94.5zM326 30c67.333 0 121.333 27.5 162 82.5
s61 128.167 61 219.5c0 90.667 -20.333 162.834 -61 216.501s-94.667 80.5 -162 80.5s-121.333 -26.833 -162 -80.5s-61 -125.834 -61 -216.501c0 -91.333 20.333 -164.5 61 -219.5s94.667 -82.5 162 -82.5z" />
    <glyph glyph-name="multiply" unicode="&#xd7;" horiz-adv-x="479" 
d="M78 135l-26 28l161 167l-161 167l26 28l161 -169l162 169l26 -28l-161 -167l161 -167l-26 -28l-162 168z" />
    <glyph glyph-name="Oslash" unicode="&#xd8;" horiz-adv-x="652" 
d="M501 535l-324 -434c40 -47.333 91 -71 153 -71c67.333 0 121.333 27.5 162 82.5s61 128.167 61 219.5c0 82 -17.333 149.667 -52 203zM155 132l322.999 433.002c-39.333 42.667 -88.666 64 -147.999 64c-67.333 0 -121.333 -26.833 -162 -80.5s-61 -125.834 -61 -216.501
c0 -80.667 16 -147.334 48 -200.001zM594.999 660.002l-65.001 -86.002c48 -61.333 72 -142 72 -242c0 -103.333 -25.333 -186.5 -76 -249.5s-116 -94.5 -196 -94.5c-70.667 0 -130.667 25.667 -180 77l-66 -88l-28 22l70 94c-44.667 62.667 -67 142.334 -67 239.001
c0 102.667 25.167 184.834 75.5 246.501s115.5 92.5 195.5 92.5c68.667 0 127.334 -23.333 176.001 -70l60 81z" />
    <glyph glyph-name="Ugrave" unicode="&#xd9;" horiz-adv-x="634" 
d="M316 -12c-30 0 -57.499 4.33301 -82.499 13s-48.333 22.667 -70 42s-38.5 46.833 -50.5 82.5s-18 78.167 -18 127.5v406h46v-401c0 -81.333 16.167 -139.666 48.5 -174.999s74.5 -53 126.5 -53c53.333 0 96.666 17.667 129.999 53s50 93.666 50 174.999v401h43v-406
c0 -49.333 -6.16699 -91.833 -18.5 -127.5s-29.333 -63.167 -51 -82.5s-45 -33.333 -70 -42s-52.833 -13 -83.5 -13zM313.001 709l-112 111h61l93 -111h-42z" />
    <glyph glyph-name="Uacute" unicode="&#xda;" horiz-adv-x="634" 
d="M316 -12c-30 0 -57.499 4.33301 -82.499 13s-48.333 22.667 -70 42s-38.5 46.833 -50.5 82.5s-18 78.167 -18 127.5v406h46v-401c0 -81.333 16.167 -139.666 48.5 -174.999s74.5 -53 126.5 -53c53.333 0 96.666 17.667 129.999 53s50 93.666 50 174.999v401h43v-406
c0 -49.333 -6.16699 -91.833 -18.5 -127.5s-29.333 -63.167 -51 -82.5s-45 -33.333 -70 -42s-52.833 -13 -83.5 -13zM279.001 709l93 111h61l-112 -111h-42z" />
    <glyph glyph-name="Ucircumflex" unicode="&#xdb;" horiz-adv-x="634" 
d="M199 709l96 111h44l96 -111h-41l-75 76h-4l-75 -76h-41zM316 -12c-30 0 -57.499 4.33301 -82.499 13s-48.333 22.667 -70 42s-38.5 46.833 -50.5 82.5s-18 78.167 -18 127.5v406h46v-401c0 -81.333 16.167 -139.666 48.5 -174.999s74.5 -53 126.5 -53
c53.333 0 96.666 17.667 129.999 53s50 93.666 50 174.999v401h43v-406c0 -49.333 -6.16699 -91.833 -18.5 -127.5s-29.333 -63.167 -51 -82.5s-45 -33.333 -70 -42s-52.833 -13 -83.5 -13z" />
    <glyph glyph-name="Udieresis" unicode="&#xdc;" horiz-adv-x="634" 
d="M238 725c-10.667 0 -19.334 3.33301 -26.001 10s-10 15.334 -10 26.001c0 11.333 3.33301 20.333 10 27s15.334 10 26.001 10s19.5 -3.33301 26.5 -10s10.5 -15.667 10.5 -27c0 -10.667 -3.5 -19.334 -10.5 -26.001s-15.833 -10 -26.5 -10zM396 725
c-10.667 0 -19.5 3.33301 -26.5 10s-10.5 15.334 -10.5 26.001c0 11.333 3.5 20.333 10.5 27s15.833 10 26.5 10s19.334 -3.33301 26.001 -10s10 -15.667 10 -27c0 -10.667 -3.33301 -19.334 -10 -26.001s-15.334 -10 -26.001 -10zM316 -12
c-30 0 -57.499 4.33301 -82.499 13s-48.333 22.667 -70 42s-38.5 46.833 -50.5 82.5s-18 78.167 -18 127.5v406h46v-401c0 -81.333 16.167 -139.666 48.5 -174.999s74.5 -53 126.5 -53c53.333 0 96.666 17.667 129.999 53s50 93.666 50 174.999v401h43v-406
c0 -49.333 -6.16699 -91.833 -18.5 -127.5s-29.333 -63.167 -51 -82.5s-45 -33.333 -70 -42s-52.833 -13 -83.5 -13z" />
    <glyph glyph-name="Yacute" unicode="&#xdd;" horiz-adv-x="447" 
d="M200 0v267l-197 392h49l100 -206c35.333 -74 58.666 -121.333 69.999 -142h4c36.667 70.667 60.334 118 71.001 142l100 206h47l-198 -392v-267h-46zM185 709l93 111h61l-112 -111h-42z" />
    <glyph glyph-name="Thorn" unicode="&#xde;" horiz-adv-x="563" 
d="M97 0v658.999h46v-117h134c76.667 0 135 -14.333 175 -43s60 -75.667 60 -141c0 -63.333 -20.5 -111.166 -61.5 -143.499s-98.833 -48.5 -173.5 -48.5h-134v-166h-46zM143 204.999l123 0.000976562c68 0 118.167 12.167 150.5 36.5s48.5 63.166 48.5 116.499
s-15.833 90.833 -47.5 112.5s-82.167 32.5 -151.5 32.5h-123v-298z" />
    <glyph glyph-name="germandbls" unicode="&#xdf;" horiz-adv-x="542" 
d="M367 -12c-48.667 0 -94.0049 17.0029 -136.005 51.0029l22 33c37.333 -30.667 75.333 -46 114 -46c32 0 56.833 9.66699 74.5 29s26.5 42.666 26.5 69.999c0 25.333 -7.16699 46.833 -21.5 64.5s-31.666 31.667 -51.999 42l-61.5 31.5
c-20.667 10.667 -38.167 25 -52.5 43s-21.5 40.333 -21.5 67c0 21.333 5.16699 42 15.5 62s21.5 36.5 33.5 49.5s23.167 29 33.5 48s15.5 38.5 15.5 58.5c0 30 -8.16699 54.167 -24.5 72.5s-39.833 27.5 -70.5 27.5c-39.333 0 -70.166 -14.5 -92.499 -43.5
s-33.5 -72.5 -33.5 -130.5v-517h-44v532c0 60.667 15.5 108.667 46.5 144s72.5 53 124.5 53c42.667 0 76.5 -12.667 101.5 -38s37.5 -57.333 37.5 -96c0 -23.333 -5.16699 -45.5 -15.5 -66.5s-21.666 -38.167 -33.999 -51.5s-23.666 -29 -33.999 -47
s-15.5 -35.667 -15.5 -53c0 -20.667 7.16699 -38.334 21.5 -53.001s31.833 -27 52.5 -37s41.334 -20.667 62.001 -32s38.167 -27.833 52.5 -49.5s21.5 -47.834 21.5 -78.501c0 -40 -13.833 -73.167 -41.5 -99.5s-62.5 -39.5 -104.5 -39.5z" />
    <glyph glyph-name="agrave" unicode="&#xe0;" horiz-adv-x="491" 
d="M197 -12c-40.667 0 -74.001 11.168 -100.001 33.501s-39 55.166 -39 98.499c0 52.667 24.5 93 73.5 121s127.833 48 236.5 60c1.33301 101.333 -36.667 152 -114 152c-50.667 0 -101.667 -18.667 -153 -56l-20 33c58.667 41.333 118.334 62 179.001 62
c53.333 0 92 -16.833 116 -50.5s36 -78.5 36 -134.5v-307h-38l-4 62h-3c-62 -49.333 -118.667 -74 -170 -74zM204.999 26.001c47.333 0 101.667 26.001 163 78.001v163c-96 -11.333 -164.167 -28.5 -204.5 -51.5s-60.5 -54.167 -60.5 -93.5
c0 -32.667 9.5 -56.834 28.5 -72.501s43.5 -23.5 73.5 -23.5zM270 572.002l-116 156h56l100 -156h-40z" />
    <glyph glyph-name="aacute" unicode="&#xe1;" horiz-adv-x="491" 
d="M197 -12c-40.667 0 -74.001 11.168 -100.001 33.501s-39 55.166 -39 98.499c0 52.667 24.5 93 73.5 121s127.833 48 236.5 60c1.33301 101.333 -36.667 152 -114 152c-50.667 0 -101.667 -18.667 -153 -56l-20 33c58.667 41.333 118.334 62 179.001 62
c53.333 0 92 -16.833 116 -50.5s36 -78.5 36 -134.5v-307h-38l-4 62h-3c-62 -49.333 -118.667 -74 -170 -74zM204.999 26.001c47.333 0 101.667 26.001 163 78.001v163c-96 -11.333 -164.167 -28.5 -204.5 -51.5s-60.5 -54.167 -60.5 -93.5
c0 -32.667 9.5 -56.834 28.5 -72.501s43.5 -23.5 73.5 -23.5zM200 572.002l100 156h56l-116 -156h-40z" />
    <glyph glyph-name="acircumflex" unicode="&#xe2;" horiz-adv-x="491" 
d="M197 -12c-40.667 0 -74.001 11.168 -100.001 33.501s-39 55.166 -39 98.499c0 52.667 24.5 93 73.5 121s127.833 48 236.5 60c1.33301 101.333 -36.667 152 -114 152c-50.667 0 -101.667 -18.667 -153 -56l-20 33c58.667 41.333 118.334 62 179.001 62
c53.333 0 92 -16.833 116 -50.5s36 -78.5 36 -134.5v-307h-38l-4 62h-3c-62 -49.333 -118.667 -74 -170 -74zM204.999 26.001c47.333 0 101.667 26.001 163 78.001v163c-96 -11.333 -164.167 -28.5 -204.5 -51.5s-60.5 -54.167 -60.5 -93.5
c0 -32.667 9.5 -56.834 28.5 -72.501s43.5 -23.5 73.5 -23.5zM129 572.002l105 156h42l105 -156h-39l-85 118h-4l-85 -118h-39z" />
    <glyph glyph-name="atilde" unicode="&#xe3;" horiz-adv-x="491" 
d="M197 -12c-40.667 0 -74.001 11.168 -100.001 33.501s-39 55.166 -39 98.499c0 52.667 24.5 93 73.5 121s127.833 48 236.5 60c1.33301 101.333 -36.667 152 -114 152c-50.667 0 -101.667 -18.667 -153 -56l-20 33c58.667 41.333 118.334 62 179.001 62
c53.333 0 92 -16.833 116 -50.5s36 -78.5 36 -134.5v-307h-38l-4 62h-3c-62 -49.333 -118.667 -74 -170 -74zM204.999 26.001c47.333 0 101.667 26.001 163 78.001v163c-96 -11.333 -164.167 -28.5 -204.5 -51.5s-60.5 -54.167 -60.5 -93.5
c0 -32.667 9.5 -56.834 28.5 -72.501s43.5 -23.5 73.5 -23.5zM312 572.002c-17.333 0 -38.167 10.668 -62.5 32.001s-41.833 32 -52.5 32c-24.667 0 -39.667 -21.333 -45 -64h-34c2 27.333 9.66699 50.833 23 70.5s32.333 29.5 57 29.5c17.333 0 38.333 -10.833 63 -32.5
s42 -32.5 52 -32.5c24.667 0 39.667 21.333 45 64h34c-2 -26.667 -9.66699 -49.834 -23 -69.501s-32.333 -29.5 -57 -29.5z" />
    <glyph glyph-name="adieresis" unicode="&#xe4;" horiz-adv-x="491" 
d="M197 -12c-40.667 0 -74.001 11.168 -100.001 33.501s-39 55.166 -39 98.499c0 52.667 24.5 93 73.5 121s127.833 48 236.5 60c1.33301 101.333 -36.667 152 -114 152c-50.667 0 -101.667 -18.667 -153 -56l-20 33c58.667 41.333 118.334 62 179.001 62
c53.333 0 92 -16.833 116 -50.5s36 -78.5 36 -134.5v-307h-38l-4 62h-3c-62 -49.333 -118.667 -74 -170 -74zM204.999 26.001c47.333 0 101.667 26.001 163 78.001v163c-96 -11.333 -164.167 -28.5 -204.5 -51.5s-60.5 -54.167 -60.5 -93.5
c0 -32.667 9.5 -56.834 28.5 -72.501s43.5 -23.5 73.5 -23.5zM176 598.002c-10.667 0 -19.334 3.5 -26.001 10.5s-10 15.833 -10 26.5c0 10 3.33301 18.5 10 25.5s15.334 10.5 26.001 10.5s19.5 -3.5 26.5 -10.5s10.5 -15.5 10.5 -25.5c0 -10.667 -3.5 -19.5 -10.5 -26.5
s-15.833 -10.5 -26.5 -10.5zM334 598.002c-10.667 0 -19.5 3.5 -26.5 10.5s-10.5 15.833 -10.5 26.5c0 10 3.5 18.5 10.5 25.5s15.833 10.5 26.5 10.5s19.334 -3.5 26.001 -10.5s10 -15.5 10 -25.5c0 -10.667 -3.33301 -19.5 -10 -26.5s-15.334 -10.5 -26.001 -10.5z" />
    <glyph glyph-name="aring" unicode="&#xe5;" horiz-adv-x="491" 
d="M197 -12c-40.667 0 -74.001 11.168 -100.001 33.501s-39 55.166 -39 98.499c0 52.667 24.5 93 73.5 121s127.833 48 236.5 60c1.33301 101.333 -36.667 152 -114 152c-50.667 0 -101.667 -18.667 -153 -56l-20 33c58.667 41.333 118.334 62 179.001 62
c53.333 0 92 -16.833 116 -50.5s36 -78.5 36 -134.5v-307h-38l-4 62h-3c-62 -49.333 -118.667 -74 -170 -74zM204.999 26.001c47.333 0 101.667 26.001 163 78.001v163c-96 -11.333 -164.167 -28.5 -204.5 -51.5s-60.5 -54.167 -60.5 -93.5
c0 -32.667 9.5 -56.834 28.5 -72.501s43.5 -23.5 73.5 -23.5zM255 539.002c-24 0 -43.667 8 -59 24s-23 36.667 -23 62c0 26 7.66699 47 23 63s35 24 59 24s43.667 -8 59 -24s23 -37 23 -63c0 -25.333 -7.66699 -46 -23 -62s-35 -24 -59 -24zM255 565.002
c14.667 0 27 5.5 37 16.5s15 25.5 15 43.5s-5 32.667 -15 44s-22.333 17 -37 17s-27 -5.66699 -37 -17s-15 -26 -15 -44s5 -32.5 15 -43.5s22.333 -16.5 37 -16.5z" />
    <glyph glyph-name="ae" unicode="&#xe6;" horiz-adv-x="784" 
d="M205 -12c-40.667 0 -74.168 11.168 -100.501 33.501s-39.5 54.833 -39.5 97.5c0 52.667 24.5 93.167 73.5 121.5s126.167 48.5 231.5 60.5c1.33301 101.333 -36.334 152 -113.001 152c-48.667 0 -98 -18.667 -148 -56l-20 33c58.667 41.333 116 62 172 62
c38 0 68.833 -10.5 92.5 -31.5s39.5 -50.5 47.5 -88.5c18 37.333 41.667 66.666 71 87.999s61.333 32 96 32c56 0 99.667 -19.333 131 -58s47 -93.334 47 -164.001c0 -16 -0.666992 -28 -2 -36h-332c0 -60 16.333 -109.5 49 -148.5s73.334 -58.5 122.001 -58.5
c43.333 0 85 14.333 125 43l19 -35c-16.667 -10 -30.167 -17.667 -40.5 -23s-25.333 -10.666 -45 -15.999s-40.5 -8 -62.5 -8c-67.333 0 -124.666 33 -171.999 99c-31.333 -30 -65.333 -54 -102 -72s-70 -27 -100 -27zM211.999 26.001c26.667 0 56.5 8.33301 89.5 25
s62.833 39.334 89.5 68.001c-14 28.667 -21 69 -21 121l-1 27c-92 -11.333 -158 -28.5 -198 -51.5s-60 -54.167 -60 -93.5c0 -32.667 9.33301 -56.834 28 -72.501s43 -23.5 73 -23.5zM411.999 268.001h292.999c0 60.667 -12.167 106.834 -36.5 138.501
s-58.166 47.5 -101.499 47.5c-40 0 -74.667 -17.333 -104 -52s-46.333 -79.334 -51 -134.001z" />
    <glyph glyph-name="ccedilla" unicode="&#xe7;" horiz-adv-x="449" 
d="M285 -11l-22.999 -43c47.333 -12 71 -35 71 -69c0 -50.667 -48.333 -79 -145 -85l-7 30c42 2.66699 71.333 8.33398 88 17.001s25 20.667 25 36c0 14.667 -6 25.834 -18 33.501s-32 13.5 -60 17.5l34 63c-58.667 4.66699 -106.334 29.167 -143.001 73.5
s-55 103.166 -55 176.499c0 77.333 21.167 138.833 63.5 184.5s94.166 68.5 155.499 68.5c50.667 0 97.667 -19.667 141 -59l-26 -31c-36.667 34 -74.667 51 -114 51c-49.333 0 -90.666 -20 -123.999 -60s-50 -91.333 -50 -154c0 -63.333 16 -114.5 48 -153.5
s74 -58.5 126 -58.5c45.333 0 88 18.333 128 55l23 -31c-44.667 -38.667 -90.667 -59.334 -138 -62.001z" />
    <glyph glyph-name="egrave" unicode="&#xe8;" horiz-adv-x="483" 
d="M276 572l-116 156h56l100 -156h-40zM274 -12c-63.333 0 -116.167 22.667 -158.5 68s-63.5 106.333 -63.5 183c0 75.333 20.833 136.333 62.5 183s90.5 70 146.5 70c57.333 0 102.333 -19.5 135 -58.5s49 -93.5 49 -163.5c0 -16 -0.666992 -28 -2 -36h-346
c1.33301 -61.333 18.5 -111.333 51.5 -150s76.167 -58 129.5 -58c46 0 89 14.333 129 43l18 -34c-52 -31.333 -102.333 -47 -151 -47zM96.999 270h306c0 60 -12.5 105.667 -37.5 137s-59.5 47 -103.5 47c-42.667 0 -79.667 -16.667 -111 -50s-49.333 -78 -54 -134z" />
    <glyph glyph-name="eacute" unicode="&#xe9;" horiz-adv-x="483" 
d="M206 572l100 156h56l-116 -156h-40zM274 -12c-63.333 0 -116.167 22.667 -158.5 68s-63.5 106.333 -63.5 183c0 75.333 20.833 136.333 62.5 183s90.5 70 146.5 70c57.333 0 102.333 -19.5 135 -58.5s49 -93.5 49 -163.5c0 -16 -0.666992 -28 -2 -36h-346
c1.33301 -61.333 18.5 -111.333 51.5 -150s76.167 -58 129.5 -58c46 0 89 14.333 129 43l18 -34c-52 -31.333 -102.333 -47 -151 -47zM96.999 270h306c0 60 -12.5 105.667 -37.5 137s-59.5 47 -103.5 47c-42.667 0 -79.667 -16.667 -111 -50s-49.333 -78 -54 -134z" />
    <glyph glyph-name="ecircumflex" unicode="&#xea;" horiz-adv-x="483" 
d="M135 572l105 156h42l105 -156h-39l-85 118h-4l-85 -118h-39zM274 -12c-63.333 0 -116.167 22.667 -158.5 68s-63.5 106.333 -63.5 183c0 75.333 20.833 136.333 62.5 183s90.5 70 146.5 70c57.333 0 102.333 -19.5 135 -58.5s49 -93.5 49 -163.5
c0 -16 -0.666992 -28 -2 -36h-346c1.33301 -61.333 18.5 -111.333 51.5 -150s76.167 -58 129.5 -58c46 0 89 14.333 129 43l18 -34c-52 -31.333 -102.333 -47 -151 -47zM96.999 270h306c0 60 -12.5 105.667 -37.5 137s-59.5 47 -103.5 47
c-42.667 0 -79.667 -16.667 -111 -50s-49.333 -78 -54 -134z" />
    <glyph glyph-name="edieresis" unicode="&#xeb;" horiz-adv-x="483" 
d="M274 -12c-63.333 0 -116.167 22.667 -158.5 68s-63.5 106.333 -63.5 183c0 75.333 20.833 136.333 62.5 183s90.5 70 146.5 70c57.333 0 102.333 -19.5 135 -58.5s49 -93.5 49 -163.5c0 -16 -0.666992 -28 -2 -36h-346c1.33301 -61.333 18.5 -111.333 51.5 -150
s76.167 -58 129.5 -58c46 0 89 14.333 129 43l18 -34c-52 -31.333 -102.333 -47 -151 -47zM96.999 270h306c0 60 -12.5 105.667 -37.5 137s-59.5 47 -103.5 47c-42.667 0 -79.667 -16.667 -111 -50s-49.333 -78 -54 -134zM181.999 598c-10.667 0 -19.334 3.5 -26.001 10.5
s-10 15.833 -10 26.5c0 10 3.33301 18.5 10 25.5s15.334 10.5 26.001 10.5s19.5 -3.5 26.5 -10.5s10.5 -15.5 10.5 -25.5c0 -10.667 -3.5 -19.5 -10.5 -26.5s-15.833 -10.5 -26.5 -10.5zM339.999 598c-10.667 0 -19.5 3.5 -26.5 10.5s-10.5 15.833 -10.5 26.5
c0 10 3.5 18.5 10.5 25.5s15.833 10.5 26.5 10.5s19.334 -3.5 26.001 -10.5s10 -15.5 10 -25.5c0 -10.667 -3.33301 -19.5 -10 -26.5s-15.334 -10.5 -26.001 -10.5z" />
    <glyph glyph-name="igrave" unicode="&#xec;" horiz-adv-x="229" 
d="M129 572l-116 156h56l100 -156h-40zM92 0v480h44v-480h-44z" />
    <glyph glyph-name="iacute" unicode="&#xed;" horiz-adv-x="229" 
d="M59 572l100 156h56l-116 -156h-40zM92 0v480h44v-480h-44z" />
    <glyph glyph-name="icircumflex" unicode="&#xee;" horiz-adv-x="229" 
d="M-12 572l105 156h42l105 -156h-39l-85 118h-4l-85 -118h-39zM92 0v480h44v-480h-44z" />
    <glyph glyph-name="idieresis" unicode="&#xef;" horiz-adv-x="229" 
d="M92 0v480h44v-480h-44zM35 598c-10.667 0 -19.334 3.5 -26.001 10.5s-10 15.833 -10 26.5c0 10 3.33301 18.5 10 25.5s15.334 10.5 26.001 10.5s19.5 -3.5 26.5 -10.5s10.5 -15.5 10.5 -25.5c0 -10.667 -3.5 -19.5 -10.5 -26.5s-15.833 -10.5 -26.5 -10.5zM193 598
c-10.667 0 -19.5 3.5 -26.5 10.5s-10.5 15.833 -10.5 26.5c0 10 3.5 18.5 10.5 25.5s15.833 10.5 26.5 10.5s19.334 -3.5 26.001 -10.5s10 -15.5 10 -25.5c0 -10.667 -3.33301 -19.5 -10 -26.5s-15.334 -10.5 -26.001 -10.5z" />
    <glyph glyph-name="eth" unicode="&#xf0;" horiz-adv-x="535" 
d="M267 27c52 0 91.333 20.832 118 62.499s40 95.5 40 161.5c0 21.333 -1 42 -3 62c-41.333 60.667 -92.333 91 -153 91c-52 0 -92.5 -17.667 -121.5 -53s-43.5 -79.333 -43.5 -132c0 -55.333 15.833 -101.166 47.5 -137.499s70.167 -54.5 115.5 -54.5zM468 675.999
l-132.999 -69c90 -92 135 -210.333 135 -355c0 -79.333 -18.667 -143.166 -56 -191.499s-86.333 -72.5 -147 -72.5c-56 0 -104.5 21.167 -145.5 63.5s-61.5 98.166 -61.5 167.499c0 66 19.167 119.667 57.5 161s88.166 62 149.499 62c60 0 109.333 -25.333 148 -76
c-16 88 -54.667 162 -116 222l-142 -73l-15 27l132 68c-32 27.333 -73 55.333 -123 84l22 30c53.333 -28 99.333 -59.667 138 -95l142 74z" />
    <glyph glyph-name="ntilde" unicode="&#xf1;" horiz-adv-x="532" 
d="M340 572c-17.333 0 -38.167 10.668 -62.5 32.001s-41.833 32 -52.5 32c-24.667 0 -39.667 -21.333 -45 -64h-34c2 27.333 9.66699 50.833 23 70.5s32.333 29.5 57 29.5c17.333 0 38.333 -10.833 63 -32.5s42 -32.5 52 -32.5c24.667 0 39.667 21.333 45 64h34
c-2 -26.667 -9.66699 -49.834 -23 -69.501s-32.333 -29.5 -57 -29.5zM91.999 0.000976562v480.001h38l4 -74h3c57.333 57.333 112.333 86 165 86c49.333 0 85.833 -15.167 109.5 -45.5s35.5 -76.5 35.5 -138.5v-308h-44v302c0 51.333 -8.66699 89.166 -26 113.499
s-45.333 36.5 -84 36.5c-27.333 0 -52.5 -7 -75.5 -21s-50.167 -37 -81.5 -69v-362h-44z" />
    <glyph glyph-name="ograve" unicode="&#xf2;" horiz-adv-x="535" 
d="M282 572l-116 156h56l100 -156h-40zM267 -12c-60 0 -110.833 22.667 -152.5 68s-62.5 106.333 -62.5 183c0 77.333 20.833 138.833 62.5 184.5s92.5 68.5 152.5 68.5c60.667 0 111.834 -22.833 153.501 -68.5s62.5 -107.167 62.5 -184.5
c0 -76.667 -20.833 -137.667 -62.5 -183s-92.834 -68 -153.501 -68zM267 27c48.667 0 89.167 19.667 121.5 59s48.5 90.333 48.5 153s-16.167 114 -48.5 154s-72.833 60 -121.5 60s-89 -19.833 -121 -59.5s-48 -91.167 -48 -154.5c0 -62.667 16 -113.667 48 -153
s72.333 -59 121 -59z" />
    <glyph glyph-name="oacute" unicode="&#xf3;" horiz-adv-x="535" 
d="M212 572l100 156h56l-116 -156h-40zM267 -12c-60 0 -110.833 22.667 -152.5 68s-62.5 106.333 -62.5 183c0 77.333 20.833 138.833 62.5 184.5s92.5 68.5 152.5 68.5c60.667 0 111.834 -22.833 153.501 -68.5s62.5 -107.167 62.5 -184.5
c0 -76.667 -20.833 -137.667 -62.5 -183s-92.834 -68 -153.501 -68zM267 27c48.667 0 89.167 19.667 121.5 59s48.5 90.333 48.5 153s-16.167 114 -48.5 154s-72.833 60 -121.5 60s-89 -19.833 -121 -59.5s-48 -91.167 -48 -154.5c0 -62.667 16 -113.667 48 -153
s72.333 -59 121 -59z" />
    <glyph glyph-name="ocircumflex" unicode="&#xf4;" horiz-adv-x="535" 
d="M141 572l105 156h42l105 -156h-39l-85 118h-4l-85 -118h-39zM267 -12c-60 0 -110.833 22.667 -152.5 68s-62.5 106.333 -62.5 183c0 77.333 20.833 138.833 62.5 184.5s92.5 68.5 152.5 68.5c60.667 0 111.834 -22.833 153.501 -68.5s62.5 -107.167 62.5 -184.5
c0 -76.667 -20.833 -137.667 -62.5 -183s-92.834 -68 -153.501 -68zM267 27c48.667 0 89.167 19.667 121.5 59s48.5 90.333 48.5 153s-16.167 114 -48.5 154s-72.833 60 -121.5 60s-89 -19.833 -121 -59.5s-48 -91.167 -48 -154.5c0 -62.667 16 -113.667 48 -153
s72.333 -59 121 -59z" />
    <glyph glyph-name="otilde" unicode="&#xf5;" horiz-adv-x="535" 
d="M324 572c-17.333 0 -38.167 10.668 -62.5 32.001s-41.833 32 -52.5 32c-24.667 0 -39.667 -21.333 -45 -64h-34c2 27.333 9.66699 50.833 23 70.5s32.333 29.5 57 29.5c17.333 0 38.333 -10.833 63 -32.5s42 -32.5 52 -32.5c24.667 0 39.667 21.333 45 64h34
c-2 -26.667 -9.66699 -49.834 -23 -69.501s-32.333 -29.5 -57 -29.5zM266.999 -11.999c-60 0 -110.833 22.667 -152.5 68s-62.5 106.333 -62.5 183c0 77.333 20.833 138.833 62.5 184.5s92.5 68.5 152.5 68.5c60.667 0 111.834 -22.833 153.501 -68.5
s62.5 -107.167 62.5 -184.5c0 -76.667 -20.833 -137.667 -62.5 -183s-92.834 -68 -153.501 -68zM266.999 27.001c48.667 0 89.167 19.667 121.5 59s48.5 90.333 48.5 153s-16.167 114 -48.5 154s-72.833 60 -121.5 60s-89 -19.833 -121 -59.5s-48 -91.167 -48 -154.5
c0 -62.667 16 -113.667 48 -153s72.333 -59 121 -59z" />
    <glyph glyph-name="odieresis" unicode="&#xf6;" horiz-adv-x="535" 
d="M188 598c-10.667 0 -19.334 3.5 -26.001 10.5s-10 15.833 -10 26.5c0 10 3.33301 18.5 10 25.5s15.334 10.5 26.001 10.5s19.5 -3.5 26.5 -10.5s10.5 -15.5 10.5 -25.5c0 -10.667 -3.5 -19.5 -10.5 -26.5s-15.833 -10.5 -26.5 -10.5zM346 598
c-10.667 0 -19.5 3.5 -26.5 10.5s-10.5 15.833 -10.5 26.5c0 10 3.5 18.5 10.5 25.5s15.833 10.5 26.5 10.5s19.334 -3.5 26.001 -10.5s10 -15.5 10 -25.5c0 -10.667 -3.33301 -19.5 -10 -26.5s-15.334 -10.5 -26.001 -10.5zM267 -12c-60 0 -110.833 22.667 -152.5 68
s-62.5 106.333 -62.5 183c0 77.333 20.833 138.833 62.5 184.5s92.5 68.5 152.5 68.5c60.667 0 111.834 -22.833 153.501 -68.5s62.5 -107.167 62.5 -184.5c0 -76.667 -20.833 -137.667 -62.5 -183s-92.834 -68 -153.501 -68zM267 27c48.667 0 89.167 19.667 121.5 59
s48.5 90.333 48.5 153s-16.167 114 -48.5 154s-72.833 60 -121.5 60s-89 -19.833 -121 -59.5s-48 -91.167 -48 -154.5c0 -62.667 16 -113.667 48 -153s72.333 -59 121 -59z" />
    <glyph glyph-name="divide" unicode="&#xf7;" horiz-adv-x="479" 
d="M34 311v38h411v-38h-411zM239 109c-10.667 0 -19.667 3.83301 -27 11.5s-11 17.5 -11 29.5c0 11.333 3.66699 20.666 11 27.999s16.333 11 27 11c11.333 0 20.5 -3.66699 27.5 -11s10.5 -16.666 10.5 -27.999c0 -12.667 -3.5 -22.667 -10.5 -30s-16.167 -11 -27.5 -11z
M239 469c-10.667 0 -19.667 3.83301 -27 11.5s-11 17.5 -11 29.5c0 11.333 3.66699 20.666 11 27.999s16.333 11 27 11c11.333 0 20.5 -3.66699 27.5 -11s10.5 -16.666 10.5 -27.999c0 -12.667 -3.5 -22.667 -10.5 -30s-16.167 -11 -27.5 -11z" />
    <glyph glyph-name="oslash" unicode="&#xf8;" horiz-adv-x="535" 
d="M402 376l-248.999 -300c31.333 -33.333 69.333 -50 114 -50c49.333 0 90.166 19.833 122.499 59.5s48.5 90.5 48.5 152.5c0 54.667 -12 100.667 -36 138zM133.001 103l249 300c-30.667 34 -69 51 -115 51c-48.667 0 -89.167 -20 -121.5 -60s-48.5 -91.333 -48.5 -154
c0 -54 12 -99.667 36 -137zM489.001 480l-57.998 -69c34.667 -46.667 52 -104 52 -172c0 -76.667 -20.833 -137.667 -62.5 -183s-92.834 -68 -153.501 -68c-54.667 0 -101.667 18.667 -141 56l-54 -66l-26 21l58 70c-34.667 45.333 -52 102 -52 170
c0 77.333 20.833 138.833 62.5 184.5s92.5 68.5 152.5 68.5c55.333 0 102.666 -18.667 141.999 -56l54 65z" />
    <glyph glyph-name="ugrave" unicode="&#xf9;" horiz-adv-x="529" 
d="M280 572l-116 156h56l100 -156h-40zM230 -12c-49.333 0 -85.833 15.166 -109.5 45.499s-35.5 76.5 -35.5 138.5v308h44v-302c0 -51.333 8.66699 -89.166 26 -113.499s45 -36.5 83 -36.5c28 0 53.667 7.66699 77 23s49.333 40.333 78 75v354h44v-480h-37l-5 80h-2
c-52.667 -61.333 -107 -92 -163 -92z" />
    <glyph glyph-name="uacute" unicode="&#xfa;" horiz-adv-x="529" 
d="M210 572l100 156h56l-116 -156h-40zM230 -12c-49.333 0 -85.833 15.166 -109.5 45.499s-35.5 76.5 -35.5 138.5v308h44v-302c0 -51.333 8.66699 -89.166 26 -113.499s45 -36.5 83 -36.5c28 0 53.667 7.66699 77 23s49.333 40.333 78 75v354h44v-480h-37l-5 80h-2
c-52.667 -61.333 -107 -92 -163 -92z" />
    <glyph glyph-name="ucircumflex" unicode="&#xfb;" horiz-adv-x="529" 
d="M139 572l105 156h42l105 -156h-39l-85 118h-4l-85 -118h-39zM230 -12c-49.333 0 -85.833 15.166 -109.5 45.499s-35.5 76.5 -35.5 138.5v308h44v-302c0 -51.333 8.66699 -89.166 26 -113.499s45 -36.5 83 -36.5c28 0 53.667 7.66699 77 23s49.333 40.333 78 75v354h44
v-480h-37l-5 80h-2c-52.667 -61.333 -107 -92 -163 -92z" />
    <glyph glyph-name="udieresis" unicode="&#xfc;" horiz-adv-x="529" 
d="M230 -12c-49.333 0 -85.833 15.166 -109.5 45.499s-35.5 76.5 -35.5 138.5v308h44v-302c0 -51.333 8.66699 -89.166 26 -113.499s45 -36.5 83 -36.5c28 0 53.667 7.66699 77 23s49.333 40.333 78 75v354h44v-480h-37l-5 80h-2c-52.667 -61.333 -107 -92 -163 -92z
M186 597.999c-10.667 0 -19.334 3.5 -26.001 10.5s-10 15.833 -10 26.5c0 10 3.33301 18.5 10 25.5s15.334 10.5 26.001 10.5s19.5 -3.5 26.5 -10.5s10.5 -15.5 10.5 -25.5c0 -10.667 -3.5 -19.5 -10.5 -26.5s-15.833 -10.5 -26.5 -10.5zM344 597.999
c-10.667 0 -19.5 3.5 -26.5 10.5s-10.5 15.833 -10.5 26.5c0 10 3.5 18.5 10.5 25.5s15.833 10.5 26.5 10.5s19.334 -3.5 26.001 -10.5s10 -15.5 10 -25.5c0 -10.667 -3.33301 -19.5 -10 -26.5s-15.334 -10.5 -26.001 -10.5z" />
    <glyph glyph-name="yacute" unicode="&#xfd;" horiz-adv-x="436" 
d="M73 -219c-18 0 -34.332 3.33301 -48.999 10l10 39c13.333 -5.33301 26.333 -8 39 -8c54 0 95 42.333 123 127l13 42l-197 489h48l116 -302c25.333 -67.333 42.666 -112 51.999 -134h4c3.33301 9.33301 18 54 44 134l103 302h45l-190 -540
c-35.333 -106 -89 -159 -161 -159zM174.001 572l100 156h56l-116 -156h-40z" />
    <glyph glyph-name="thorn" unicode="&#xfe;" horiz-adv-x="544" 
d="M92 -217l0.000976562 936h44v-207v-91c61.333 47.333 115.666 71 162.999 71c63.333 0 111.333 -21.667 144 -65s49 -103.333 49 -180c0 -78.667 -20.667 -141.5 -62 -188.5s-91.333 -70.5 -150 -70.5c-44 0 -92 19.333 -144 58v-88v-175h-44zM278.001 27
c48.667 0 88.667 20.5 120 61.5s47 93.833 47 158.5c0 63.333 -12.333 113.5 -37 150.5s-63 55.5 -115 55.5c-44.667 0 -97 -26.333 -157 -79v-285c50.667 -41.333 98 -62 142 -62z" />
    <glyph glyph-name="ydieresis" unicode="&#xff;" horiz-adv-x="436" 
d="M73 -219c-18 0 -34.332 3.33301 -48.999 10l10 39c13.333 -5.33301 26.333 -8 39 -8c54 0 95 42.333 123 127l13 42l-197 489h48l116 -302c25.333 -67.333 42.666 -112 51.999 -134h4c3.33301 9.33301 18 54 44 134l103 302h45l-190 -540
c-35.333 -106 -89 -159 -161 -159zM150.001 598c-10.667 0 -19.334 3.5 -26.001 10.5s-10 15.833 -10 26.5c0 10 3.33301 18.5 10 25.5s15.334 10.5 26.001 10.5s19.5 -3.5 26.5 -10.5s10.5 -15.5 10.5 -25.5c0 -10.667 -3.5 -19.5 -10.5 -26.5s-15.833 -10.5 -26.5 -10.5z
M308.001 598c-10.667 0 -19.5 3.5 -26.5 10.5s-10.5 15.833 -10.5 26.5c0 10 3.5 18.5 10.5 25.5s15.833 10.5 26.5 10.5s19.334 -3.5 26.001 -10.5s10 -15.5 10 -25.5c0 -10.667 -3.33301 -19.5 -10 -26.5s-15.334 -10.5 -26.001 -10.5z" />
    <glyph glyph-name="Amacron" unicode="&#x100;" horiz-adv-x="526" 
d="M377 779v-36h-228v36h228zM146 265h234l-42 123c-30.667 88.667 -55 164.667 -73 228h-4c-18 -63.333 -42.333 -139.333 -73 -228zM470 0l-77 226h-261l-78 -226h-46l232 659h46l232 -659h-48z" />
    <glyph glyph-name="amacron" unicode="&#x101;" horiz-adv-x="491" 
d="M197 -12c-40.667 0 -74.001 11.168 -100.001 33.501s-39 55.166 -39 98.499c0 52.667 24.5 93 73.5 121s127.833 48 236.5 60c1.33301 101.333 -36.667 152 -114 152c-50.667 0 -101.667 -18.667 -153 -56l-20 33c58.667 41.333 118.334 62 179.001 62
c53.333 0 92 -16.833 116 -50.5s36 -78.5 36 -134.5v-307h-38l-4 62h-3c-62 -49.333 -118.667 -74 -170 -74zM204.999 26.001c47.333 0 101.667 26.001 163 78.001v163c-96 -11.333 -164.167 -28.5 -204.5 -51.5s-60.5 -54.167 -60.5 -93.5
c0 -32.667 9.5 -56.834 28.5 -72.501s43.5 -23.5 73.5 -23.5zM141 606.002v36h228v-36h-228z" />
    <glyph glyph-name="Abreve" unicode="&#x102;" horiz-adv-x="526" 
d="M346 820h34.998c-3.33301 -30 -15 -55.833 -35 -77.5s-47.667 -32.5 -83 -32.5s-63 10.833 -83 32.5s-31.667 47.5 -35 77.5h35c3.33301 -22.667 11.833 -41.334 25.5 -56.001s32.834 -22 57.501 -22s43.834 7.33301 57.501 22s22.167 33.334 25.5 56.001zM145.998 265
h234l-42 123c-30.667 88.667 -55 164.667 -73 228h-4c-18 -63.333 -42.333 -139.333 -73 -228zM469.998 0l-77 226h-261l-78 -226h-46l232 659h46l232 -659h-48z" />
    <glyph glyph-name="abreve" unicode="&#x103;" horiz-adv-x="491" 
d="M197 -12c-40.667 0 -74.001 11.168 -100.001 33.501s-39 55.166 -39 98.499c0 52.667 24.5 93 73.5 121s127.833 48 236.5 60c1.33301 101.333 -36.667 152 -114 152c-50.667 0 -101.667 -18.667 -153 -56l-20 33c58.667 41.333 118.334 62 179.001 62
c53.333 0 92 -16.833 116 -50.5s36 -78.5 36 -134.5v-307h-38l-4 62h-3c-62 -49.333 -118.667 -74 -170 -74zM204.999 26.001c47.333 0 101.667 26.001 163 78.001v163c-96 -11.333 -164.167 -28.5 -204.5 -51.5s-60.5 -54.167 -60.5 -93.5
c0 -32.667 9.5 -56.834 28.5 -72.501s43.5 -23.5 73.5 -23.5zM255 570.002c-37.333 0 -65.833 13.5 -85.5 40.5s-31.5 56.833 -35.5 89.5h34c3.33301 -25.333 12.5 -47.666 27.5 -66.999s34.833 -29 59.5 -29s44.5 9.66699 59.5 29s24.167 41.666 27.5 66.999h34
c-4 -32.667 -15.833 -62.5 -35.5 -89.5s-48.167 -40.5 -85.5 -40.5z" />
    <glyph glyph-name="Aogonek" unicode="&#x104;" horiz-adv-x="526" 
d="M146 265h234l-42 123c-30.667 88.667 -55 164.667 -73 228h-4c-18 -63.333 -42.333 -139.333 -73 -228zM538 -154l16.001 -26.999c-18.667 -16 -40.334 -24 -65.001 -24c-24 0 -44 7 -60 21s-24 34.333 -24 61c0 23.333 7 46.166 21 68.499s30.667 40.5 50 54.5h-6
l-77 226h-261l-78 -226h-46l232 659h46l232 -659c-20.667 -14 -38.167 -31.833 -52.5 -53.5s-21.5 -42.5 -21.5 -62.5c0 -16.667 5 -29.5 15 -38.5s22 -13.5 36 -13.5c16.667 0 31 4.66699 43 14z" />
    <glyph glyph-name="aogonek" unicode="&#x105;" horiz-adv-x="491" 
d="M369 -203c-24 0 -43.666 7.00195 -58.999 21.002s-23 34 -23 60c0 24 8.33301 47.667 25 71s37.667 42.666 63 57.999l-5 55h-3c-62 -49.333 -118.667 -74 -170 -74c-40.667 0 -74 11.167 -100 33.5s-39 54.833 -39 97.5c0 52.667 24.5 93.167 73.5 121.5
s127.833 48.5 236.5 60.5c1.33301 101.333 -36.667 152 -114 152c-50.667 0 -101.667 -18.667 -153 -56l-20 33c58.667 41.333 118.334 62 179.001 62c53.333 0 92 -16.833 116 -50.5s36 -78.5 36 -134.5v-307c-25.333 -12.667 -46 -29.834 -62 -51.501
s-24 -43.167 -24 -64.5c0 -16.667 4.66699 -29.5 14 -38.5s21 -13.5 35 -13.5c15.333 0 29.666 4.66699 42.999 14l16 -26c-18.667 -15.333 -40.334 -23 -65.001 -23zM205.001 26.002c47.333 0 101.667 26.001 163 78.001v163c-96 -11.333 -164.167 -28.5 -204.5 -51.5
s-60.5 -54.167 -60.5 -93.5c0 -32.667 9.5 -56.834 28.5 -72.501s43.5 -23.5 73.5 -23.5z" />
    <glyph glyph-name="Cacute" unicode="&#x106;" horiz-adv-x="564" 
d="M331 -12c-82 0 -148.501 31.167 -199.501 93.5s-76.5 145.5 -76.5 249.5s25.833 186.667 77.5 248s119.5 92 203.5 92c70 0 127.333 -26.333 172 -79l-27 -31c-40 45.333 -88 68 -144 68c-72.667 0 -129.834 -26.667 -171.501 -80s-62.5 -126 -62.5 -218
s20.667 -165.167 62 -219.5s97.333 -81.5 168 -81.5c62.667 0 118.334 27 167.001 81l27 -29c-55.333 -62.667 -120.666 -94 -195.999 -94zM284.999 709l93 111h61l-112 -111h-42z" />
    <glyph glyph-name="cacute" unicode="&#x107;" horiz-adv-x="449" 
d="M270 -12c-64 0 -116.333 22.5 -157 67.5s-61 106.167 -61 183.5s21.167 138.833 63.5 184.5s94.166 68.5 155.499 68.5c50.667 0 97.667 -19.667 141 -59l-26 -31c-36.667 34 -74.667 51 -114 51c-49.333 0 -90.666 -20 -123.999 -60s-50 -91.333 -50 -154
c0 -63.333 16 -114.5 48 -153.5s74 -58.5 126 -58.5c45.333 0 88 18.333 128 55l23 -31c-48 -42 -99 -63 -153 -63zM217 572l100 156h56l-116 -156h-40z" />
    <glyph glyph-name="Ccircumflex" unicode="&#x108;" horiz-adv-x="564" 
d="M331 -12c-82 0 -148.501 31.167 -199.501 93.5s-76.5 145.5 -76.5 249.5s25.833 186.667 77.5 248s119.5 92 203.5 92c70 0 127.333 -26.333 172 -79l-27 -31c-40 45.333 -88 68 -144 68c-72.667 0 -129.834 -26.667 -171.501 -80s-62.5 -126 -62.5 -218
s20.667 -165.167 62 -219.5s97.333 -81.5 168 -81.5c62.667 0 118.334 27 167.001 81l27 -29c-55.333 -62.667 -120.666 -94 -195.999 -94zM204.999 709l96 111h44l96 -111h-41l-75 76h-4l-75 -76h-41z" />
    <glyph glyph-name="ccircumflex" unicode="&#x109;" horiz-adv-x="449" 
d="M146 572l105 156h42l105 -156h-39l-85 118h-4l-85 -118h-39zM270 -12c-64 0 -116.333 22.5 -157 67.5s-61 106.167 -61 183.5s21.167 138.833 63.5 184.5s94.166 68.5 155.499 68.5c50.667 0 97.667 -19.667 141 -59l-26 -31c-36.667 34 -74.667 51 -114 51
c-49.333 0 -90.666 -20 -123.999 -60s-50 -91.333 -50 -154c0 -63.333 16 -114.5 48 -153.5s74 -58.5 126 -58.5c45.333 0 88 18.333 128 55l23 -31c-48 -42 -99 -63 -153 -63z" />
    <glyph glyph-name="Cdotaccent" unicode="&#x10a;" horiz-adv-x="564" 
d="M331 -12c-82 0 -148.501 31.167 -199.501 93.5s-76.5 145.5 -76.5 249.5s25.833 186.667 77.5 248s119.5 92 203.5 92c70 0 127.333 -26.333 172 -79l-27 -31c-40 45.333 -88 68 -144 68c-72.667 0 -129.834 -26.667 -171.501 -80s-62.5 -126 -62.5 -218
s20.667 -165.167 62 -219.5s97.333 -81.5 168 -81.5c62.667 0 118.334 27 167.001 81l27 -29c-55.333 -62.667 -120.666 -94 -195.999 -94zM322.999 721c-11.333 0 -20.833 3.83301 -28.5 11.5s-11.5 17.5 -11.5 29.5c0 11.333 3.83301 20.666 11.5 27.999
s17.167 11 28.5 11s20.833 -3.66699 28.5 -11s11.5 -16.666 11.5 -27.999c0 -12 -3.83301 -21.833 -11.5 -29.5s-17.167 -11.5 -28.5 -11.5z" />
    <glyph glyph-name="cdotaccent" unicode="&#x10b;" horiz-adv-x="449" 
d="M270 -12c-64 0 -116.333 22.5 -157 67.5s-61 106.167 -61 183.5s21.167 138.833 63.5 184.5s94.166 68.5 155.499 68.5c50.667 0 97.667 -19.667 141 -59l-26 -31c-36.667 34 -74.667 51 -114 51c-49.333 0 -90.666 -20 -123.999 -60s-50 -91.333 -50 -154
c0 -63.333 16 -114.5 48 -153.5s74 -58.5 126 -58.5c45.333 0 88 18.333 128 55l23 -31c-48 -42 -99 -63 -153 -63zM272 596c-11.333 0 -20.5 3.66699 -27.5 11s-10.5 17.333 -10.5 30c0 11.333 3.5 20.666 10.5 27.999s16.167 11 27.5 11s20.5 -3.66699 27.5 -11
s10.5 -16.666 10.5 -27.999c0 -12.667 -3.5 -22.667 -10.5 -30s-16.167 -11 -27.5 -11z" />
    <glyph glyph-name="Ccaron" unicode="&#x10c;" horiz-adv-x="564" 
d="M331 -12c-82 0 -148.501 31.167 -199.501 93.5s-76.5 145.5 -76.5 249.5s25.833 186.667 77.5 248s119.5 92 203.5 92c70 0 127.333 -26.333 172 -79l-27 -31c-40 45.333 -88 68 -144 68c-72.667 0 -129.834 -26.667 -171.501 -80s-62.5 -126 -62.5 -218
s20.667 -165.167 62 -219.5s97.333 -81.5 168 -81.5c62.667 0 118.334 27 167.001 81l27 -29c-55.333 -62.667 -120.666 -94 -195.999 -94zM300.999 709l-96 111h41l75 -77h4l75 77h41l-96 -111h-44z" />
    <glyph glyph-name="ccaron" unicode="&#x10d;" horiz-adv-x="449" 
d="M251 572l-105 156h39l85 -118h4l85 118h39l-105 -156h-42zM270 -12c-64 0 -116.333 22.5 -157 67.5s-61 106.167 -61 183.5s21.167 138.833 63.5 184.5s94.166 68.5 155.499 68.5c50.667 0 97.667 -19.667 141 -59l-26 -31c-36.667 34 -74.667 51 -114 51
c-49.333 0 -90.666 -20 -123.999 -60s-50 -91.333 -50 -154c0 -63.333 16 -114.5 48 -153.5s74 -58.5 126 -58.5c45.333 0 88 18.333 128 55l23 -31c-48 -42 -99 -63 -153 -63z" />
    <glyph glyph-name="Dcaron" unicode="&#x10e;" horiz-adv-x="604" 
d="M280 709l-96 111h41l75 -77h4l75 77h41l-96 -111h-44zM97 0v659.001h153c98.667 0 173.167 -28.833 223.5 -86.5s75.5 -137.834 75.5 -240.501c0 -103.333 -25.167 -184.5 -75.5 -243.5s-124.5 -88.5 -222.5 -88.5h-154zM143 39.001l102 0.000976562
c86 0 150.167 26.333 192.5 79s63.5 124 63.5 214c0 89.333 -21.167 159.666 -63.5 210.999s-106.5 77 -192.5 77h-102v-581z" />
    <glyph glyph-name="dcaron" unicode="&#x10f;" horiz-adv-x="549" 
d="M517 548l-3 206h38v-50l-8 -156h-27zM251 -12c-61.333 0 -109.833 21.833 -145.5 65.5s-53.5 105.5 -53.5 185.5c0 75.333 20.833 136.333 62.5 183s91.834 70 150.501 70c27.333 0 51.666 -4.66699 72.999 -14s45.333 -24.333 72 -45l-2 88v198h44v-719h-38l-4 62h-3
c-49.333 -49.333 -101.333 -74 -156 -74zM257 27c48 0 98.334 26.333 151.001 79v285c-46.667 41.333 -93.334 62 -140.001 62c-48 0 -88.167 -20.5 -120.5 -61.5s-48.5 -91.833 -48.5 -152.5c0 -64.667 13.833 -116.167 41.5 -154.5s66.5 -57.5 116.5 -57.5z" />
    <glyph glyph-name="Dcroat" unicode="&#x110;" horiz-adv-x="625" 
d="M164 39l102 0.000976562c86 0 150.167 26.333 192.5 79s63.5 124 63.5 214c0 89.333 -21.167 159.666 -63.5 210.999s-106.5 77 -192.5 77h-102v-255h163v-33h-163v-293zM118 659.001l153 0.000976562c98.667 0 173.167 -28.833 223.5 -86.5s75.5 -137.834 75.5 -240.501
c0 -103.333 -25.167 -184.5 -75.5 -243.5s-124.5 -88.5 -222.5 -88.5h-154v332h-81v31l81 2v294z" />
    <glyph glyph-name="dcroat" unicode="&#x111;" horiz-adv-x="544" 
d="M408 106l0.000976562 251c-46.667 41.333 -93.334 62 -140.001 62c-48 0 -88.167 -19 -120.5 -57s-48.5 -84.333 -48.5 -139c0 -60 13.833 -107.667 41.5 -143s66.5 -53 116.5 -53c48 0 98.333 26.333 151 79zM527.001 614v-29.001l-75 -4v-581h-38l-5 62h-2
c-48 -49.333 -100 -74 -156 -74c-61.333 0 -109.833 20.333 -145.5 61s-53.5 98.334 -53.5 173.001c0 70 20.833 126.833 62.5 170.5s91.834 65.5 150.501 65.5c27.333 0 51.666 -4.66699 72.999 -14s45.333 -24.333 72 -45l-2 88v94h-170v33h170v105h44v-105h75z" />
    <glyph glyph-name="Emacron" unicode="&#x112;" horiz-adv-x="515" 
d="M97 0v659h361v-40h-315v-249h264v-40h-264v-290h325v-40h-371zM168 743v36h228v-36h-228z" />
    <glyph glyph-name="emacron" unicode="&#x113;" horiz-adv-x="483" 
d="M274 -12c-63.333 0 -116.167 22.667 -158.5 68s-63.5 106.333 -63.5 183c0 75.333 20.833 136.333 62.5 183s90.5 70 146.5 70c57.333 0 102.333 -19.5 135 -58.5s49 -93.5 49 -163.5c0 -16 -0.666992 -28 -2 -36h-346c1.33301 -61.333 18.5 -111.333 51.5 -150
s76.167 -58 129.5 -58c46 0 89 14.333 129 43l18 -34c-52 -31.333 -102.333 -47 -151 -47zM96.999 270h306c0 60 -12.5 105.667 -37.5 137s-59.5 47 -103.5 47c-42.667 0 -79.667 -16.667 -111 -50s-49.333 -78 -54 -134zM146.999 606v36h228v-36h-228z" />
    <glyph glyph-name="Ebreve" unicode="&#x114;" horiz-adv-x="515" 
d="M97 0v659h361v-40h-315v-249h264v-40h-264v-290h325v-40h-371zM282 710c-35.333 0 -63.002 10.833 -83.002 32.5s-31.667 47.5 -35 77.5h35c3.33301 -22.667 11.833 -41.334 25.5 -56.001s32.834 -22 57.501 -22s43.834 7.33301 57.501 22s22.167 33.334 25.5 56.001h35
c-3.33301 -30 -15 -55.833 -35 -77.5s-47.667 -32.5 -83 -32.5z" />
    <glyph glyph-name="ebreve" unicode="&#x115;" horiz-adv-x="483" 
d="M274 -12c-63.333 0 -116.167 22.667 -158.5 68s-63.5 106.333 -63.5 183c0 75.333 20.833 136.333 62.5 183s90.5 70 146.5 70c57.333 0 102.333 -19.5 135 -58.5s49 -93.5 49 -163.5c0 -16 -0.666992 -28 -2 -36h-346c1.33301 -61.333 18.5 -111.333 51.5 -150
s76.167 -58 129.5 -58c46 0 89 14.333 129 43l18 -34c-52 -31.333 -102.333 -47 -151 -47zM96.999 270h306c0 60 -12.5 105.667 -37.5 137s-59.5 47 -103.5 47c-42.667 0 -79.667 -16.667 -111 -50s-49.333 -78 -54 -134zM260.999 570c-37.333 0 -65.833 13.5 -85.5 40.5
s-31.5 56.833 -35.5 89.5h34c3.33301 -25.333 12.5 -47.666 27.5 -66.999s34.833 -29 59.5 -29s44.5 9.66699 59.5 29s24.167 41.666 27.5 66.999h34c-4 -32.667 -15.833 -62.5 -35.5 -89.5s-48.167 -40.5 -85.5 -40.5z" />
    <glyph glyph-name="Edotaccent" unicode="&#x116;" horiz-adv-x="515" 
d="M97 0v659h361v-40h-315v-249h264v-40h-264v-290h325v-40h-371zM282 721c-11.333 0 -20.833 3.83301 -28.5 11.5s-11.5 17.5 -11.5 29.5c0 11.333 3.83301 20.666 11.5 27.999s17.167 11 28.5 11s20.833 -3.66699 28.5 -11s11.5 -16.666 11.5 -27.999
c0 -12 -3.83301 -21.833 -11.5 -29.5s-17.167 -11.5 -28.5 -11.5z" />
    <glyph glyph-name="edotaccent" unicode="&#x117;" horiz-adv-x="483" 
d="M261 596c-11.333 0 -20.5 3.66699 -27.5 11s-10.5 17.333 -10.5 30c0 11.333 3.5 20.666 10.5 27.999s16.167 11 27.5 11s20.5 -3.66699 27.5 -11s10.5 -16.666 10.5 -27.999c0 -12.667 -3.5 -22.667 -10.5 -30s-16.167 -11 -27.5 -11zM274 -12
c-63.333 0 -116.167 22.667 -158.5 68s-63.5 106.333 -63.5 183c0 75.333 20.833 136.333 62.5 183s90.5 70 146.5 70c57.333 0 102.333 -19.5 135 -58.5s49 -93.5 49 -163.5c0 -16 -0.666992 -28 -2 -36h-346c1.33301 -61.333 18.5 -111.333 51.5 -150
s76.167 -58 129.5 -58c46 0 89 14.333 129 43l18 -34c-52 -31.333 -102.333 -47 -151 -47zM96.999 270h306c0 60 -12.5 105.667 -37.5 137s-59.5 47 -103.5 47c-42.667 0 -79.667 -16.667 -111 -50s-49.333 -78 -54 -134z" />
    <glyph glyph-name="Eogonek" unicode="&#x118;" horiz-adv-x="515" 
d="M415 -205c-24 0 -44 7.00098 -60 21.001s-24 34.333 -24 61c0 24 7 47.167 21 69.5s31.333 40.166 52 53.499h-307v659h361v-40h-315v-249h264v-40h-264v-290h325v-40h-3c-24 -4.66699 -45.667 -18.167 -65 -40.5s-29 -47.5 -29 -75.5c0 -16.667 5 -29.5 15 -38.5
s21.667 -13.5 35 -13.5c16.667 0 31 4.66699 43 14l17 -27c-20 -16 -42 -24 -66 -24z" />
    <glyph glyph-name="eogonek" unicode="&#x119;" horiz-adv-x="483" 
d="M355 -203c-24 0 -43.501 7 -58.501 21s-22.5 34 -22.5 60c0 43.333 21 83 63 119c-18 -6 -39 -9 -63 -9c-63.333 0 -116.166 22.667 -158.499 68s-63.5 106.333 -63.5 183c0 75.333 20.833 136.333 62.5 183s90.5 70 146.5 70c57.333 0 102.333 -19.5 135 -58.5
s49 -93.5 49 -163.5c0 -16 -0.666992 -28 -2 -36h-346c1.33301 -61.333 18.5 -111.333 51.5 -150s76.167 -58 129.5 -58c46 0 89 14.333 129 43l18 -34c-41.333 -30 -70.5 -56.833 -87.5 -80.5s-25.5 -47.167 -25.5 -70.5c0 -16.667 4.66699 -29.5 14 -38.5
s21 -13.5 35 -13.5c16.667 0 31 4.66699 43 14l16 -26c-18 -15.333 -39.667 -23 -65 -23zM96.999 270h306c0 60 -12.5 105.667 -37.5 137s-59.5 47 -103.5 47c-42.667 0 -79.667 -16.667 -111 -50s-49.333 -78 -54 -134z" />
    <glyph glyph-name="Ecaron" unicode="&#x11a;" horiz-adv-x="515" 
d="M260 709l-96 111h41l75 -77h4l75 77h41l-96 -111h-44zM97 0v659h361v-40h-315v-249h264v-40h-264v-290h325v-40h-371z" />
    <glyph glyph-name="ecaron" unicode="&#x11b;" horiz-adv-x="483" 
d="M240 572l-105 156h39l85 -118h4l85 118h39l-105 -156h-42zM274 -12c-63.333 0 -116.167 22.667 -158.5 68s-63.5 106.333 -63.5 183c0 75.333 20.833 136.333 62.5 183s90.5 70 146.5 70c57.333 0 102.333 -19.5 135 -58.5s49 -93.5 49 -163.5
c0 -16 -0.666992 -28 -2 -36h-346c1.33301 -61.333 18.5 -111.333 51.5 -150s76.167 -58 129.5 -58c46 0 89 14.333 129 43l18 -34c-52 -31.333 -102.333 -47 -151 -47zM96.999 270h306c0 60 -12.5 105.667 -37.5 137s-59.5 47 -103.5 47
c-42.667 0 -79.667 -16.667 -111 -50s-49.333 -78 -54 -134z" />
    <glyph glyph-name="Gcircumflex" unicode="&#x11c;" horiz-adv-x="605" 
d="M228 709l96 111h44l96 -111h-41l-75 76h-4l-75 -76h-41zM338 -12c-85.333 0 -153.831 31 -205.498 93s-77.5 145.333 -77.5 250c0 104 26.667 186.667 80 248s123.666 92 210.999 92c70 0 130 -26.333 180 -79l-27 -31c-41.333 45.333 -92 68 -152 68
c-75.333 0 -134.833 -26.667 -178.5 -80s-65.5 -126 -65.5 -218s21 -165.167 63 -219.5s100.333 -81.5 175 -81.5c65.333 0 114.666 16.667 147.999 50v205h-158v39h202v-261c-46.667 -50 -111.667 -75 -195 -75z" />
    <glyph glyph-name="gcircumflex" unicode="&#x11d;" horiz-adv-x="487" 
d="M135 572l105 156h42l105 -156h-39l-85 118h-4l-85 -118h-39zM249 -231c-60.667 0 -108.666 11.9971 -143.999 35.9971s-53 56.333 -53 97c0 42.667 23.667 81.334 71 116.001v4c-28 16.667 -42 42.334 -42 77.001c0 34 17.333 63.333 52 88v4
c-40 34.667 -60 78.667 -60 132c0 48.667 16.333 89 49 121s72.667 48 120 48c22 0 43 -4 63 -12h163v-37h-112c35.333 -30.667 53 -71 53 -121c0 -48.667 -16 -89 -48 -121s-71.667 -48 -119 -48c-30.667 0 -57.334 6.66699 -80.001 20c-26 -21.333 -39 -44.333 -39 -69
c0 -42 30.667 -63 92 -63h103c54 0 93.833 -8.83301 119.5 -26.5s38.5 -45.5 38.5 -83.5c0 -43.333 -21.167 -81.166 -63.5 -113.499s-96.833 -48.5 -163.5 -48.5zM242.001 187.997c34 0 63.167 12.667 87.5 38s36.5 57.666 36.5 96.999s-12 71.333 -36 96
s-53.333 37 -88 37c-35.333 0 -65 -12.167 -89 -36.5s-36 -56.5 -36 -96.5c0 -39.333 12.167 -71.666 36.5 -96.999s53.833 -38 88.5 -38zM254.001 -195.003c52 0 94.5 12.334 127.5 37.001s49.5 52.667 49.5 84c0 48.667 -37 73 -111 73h-103c-18 0 -38 2.66699 -60 8
c-42 -28.667 -63 -62.334 -63 -101.001c0 -30.667 14.167 -55.167 42.5 -73.5s67.5 -27.5 117.5 -27.5z" />
    <glyph glyph-name="Gbreve" unicode="&#x11e;" horiz-adv-x="605" 
d="M338 -12c-85.333 0 -153.831 31 -205.498 93s-77.5 145.333 -77.5 250c0 104 26.667 186.667 80 248s123.666 92 210.999 92c70 0 130 -26.333 180 -79l-27 -31c-41.333 45.333 -92 68 -152 68c-75.333 0 -134.833 -26.667 -178.5 -80s-65.5 -126 -65.5 -218
s21 -165.167 63 -219.5s100.333 -81.5 175 -81.5c65.333 0 114.666 16.667 147.999 50v205h-158v39h202v-261c-46.667 -50 -111.667 -75 -195 -75zM346.002 710c-35.333 0 -63.002 10.833 -83.002 32.5s-31.667 47.5 -35 77.5h35
c3.33301 -22.667 11.833 -41.334 25.5 -56.001s32.834 -22 57.501 -22s43.834 7.33301 57.501 22s22.167 33.334 25.5 56.001h35c-3.33301 -30 -15 -55.833 -35 -77.5s-47.667 -32.5 -83 -32.5z" />
    <glyph glyph-name="gbreve" unicode="&#x11f;" horiz-adv-x="487" 
d="M261 570c-37.333 0 -65.833 13.5 -85.5 40.5s-31.5 56.833 -35.5 89.5h34c3.33301 -25.333 12.5 -47.666 27.5 -66.999s34.833 -29 59.5 -29s44.5 9.66699 59.5 29s24.167 41.666 27.5 66.999h34c-4 -32.667 -15.833 -62.5 -35.5 -89.5s-48.167 -40.5 -85.5 -40.5z
M249 -231c-60.667 0 -108.666 11.9971 -143.999 35.9971s-53 56.333 -53 97c0 42.667 23.667 81.334 71 116.001v4c-28 16.667 -42 42.334 -42 77.001c0 34 17.333 63.333 52 88v4c-40 34.667 -60 78.667 -60 132c0 48.667 16.333 89 49 121s72.667 48 120 48
c22 0 43 -4 63 -12h163v-37h-112c35.333 -30.667 53 -71 53 -121c0 -48.667 -16 -89 -48 -121s-71.667 -48 -119 -48c-30.667 0 -57.334 6.66699 -80.001 20c-26 -21.333 -39 -44.333 -39 -69c0 -42 30.667 -63 92 -63h103c54 0 93.833 -8.83301 119.5 -26.5
s38.5 -45.5 38.5 -83.5c0 -43.333 -21.167 -81.166 -63.5 -113.499s-96.833 -48.5 -163.5 -48.5zM242.001 187.997c34 0 63.167 12.667 87.5 38s36.5 57.666 36.5 96.999s-12 71.333 -36 96s-53.333 37 -88 37c-35.333 0 -65 -12.167 -89 -36.5s-36 -56.5 -36 -96.5
c0 -39.333 12.167 -71.666 36.5 -96.999s53.833 -38 88.5 -38zM254.001 -195.003c52 0 94.5 12.334 127.5 37.001s49.5 52.667 49.5 84c0 48.667 -37 73 -111 73h-103c-18 0 -38 2.66699 -60 8c-42 -28.667 -63 -62.334 -63 -101.001c0 -30.667 14.167 -55.167 42.5 -73.5
s67.5 -27.5 117.5 -27.5z" />
    <glyph glyph-name="Gdotaccent" unicode="&#x120;" horiz-adv-x="605" 
d="M346 721c-11.333 0 -20.833 3.83301 -28.5 11.5s-11.5 17.5 -11.5 29.5c0 11.333 3.83301 20.666 11.5 27.999s17.167 11 28.5 11s20.833 -3.66699 28.5 -11s11.5 -16.666 11.5 -27.999c0 -12 -3.83301 -21.833 -11.5 -29.5s-17.167 -11.5 -28.5 -11.5zM338 -12
c-85.333 0 -153.831 31 -205.498 93s-77.5 145.333 -77.5 250c0 104 26.667 186.667 80 248s123.666 92 210.999 92c70 0 130 -26.333 180 -79l-27 -31c-41.333 45.333 -92 68 -152 68c-75.333 0 -134.833 -26.667 -178.5 -80s-65.5 -126 -65.5 -218s21 -165.167 63 -219.5
s100.333 -81.5 175 -81.5c65.333 0 114.666 16.667 147.999 50v205h-158v39h202v-261c-46.667 -50 -111.667 -75 -195 -75z" />
    <glyph glyph-name="gdotaccent" unicode="&#x121;" horiz-adv-x="487" 
d="M261 596c-11.333 0 -20.5 3.66699 -27.5 11s-10.5 17.333 -10.5 30c0 11.333 3.5 20.666 10.5 27.999s16.167 11 27.5 11s20.5 -3.66699 27.5 -11s10.5 -16.666 10.5 -27.999c0 -12.667 -3.5 -22.667 -10.5 -30s-16.167 -11 -27.5 -11zM249 -231
c-60.667 0 -108.666 11.9971 -143.999 35.9971s-53 56.333 -53 97c0 42.667 23.667 81.334 71 116.001v4c-28 16.667 -42 42.334 -42 77.001c0 34 17.333 63.333 52 88v4c-40 34.667 -60 78.667 -60 132c0 48.667 16.333 89 49 121s72.667 48 120 48c22 0 43 -4 63 -12h163
v-37h-112c35.333 -30.667 53 -71 53 -121c0 -48.667 -16 -89 -48 -121s-71.667 -48 -119 -48c-30.667 0 -57.334 6.66699 -80.001 20c-26 -21.333 -39 -44.333 -39 -69c0 -42 30.667 -63 92 -63h103c54 0 93.833 -8.83301 119.5 -26.5s38.5 -45.5 38.5 -83.5
c0 -43.333 -21.167 -81.166 -63.5 -113.499s-96.833 -48.5 -163.5 -48.5zM242.001 187.997c34 0 63.167 12.667 87.5 38s36.5 57.666 36.5 96.999s-12 71.333 -36 96s-53.333 37 -88 37c-35.333 0 -65 -12.167 -89 -36.5s-36 -56.5 -36 -96.5
c0 -39.333 12.167 -71.666 36.5 -96.999s53.833 -38 88.5 -38zM254.001 -195.003c52 0 94.5 12.334 127.5 37.001s49.5 52.667 49.5 84c0 48.667 -37 73 -111 73h-103c-18 0 -38 2.66699 -60 8c-42 -28.667 -63 -62.334 -63 -101.001c0 -30.667 14.167 -55.167 42.5 -73.5
s67.5 -27.5 117.5 -27.5z" />
    <glyph glyph-name="uni0122" unicode="&#x122;" horiz-adv-x="605" 
d="M263 -209l-7 30.001c42 2.66699 71.333 8.16699 88 16.5s25 20.166 25 35.499c0 27.333 -25.667 43 -77 47l13 29c38 -5.33301 64.667 -13.5 80 -24.5s23 -27.167 23 -48.5c0 -50.667 -48.333 -79 -145 -85zM338 -11.999c-85.333 0 -153.831 31 -205.498 93
s-77.5 145.333 -77.5 250c0 104 26.667 186.667 80 248s123.666 92 210.999 92c70 0 130 -26.333 180 -79l-27 -31c-41.333 45.333 -92 68 -152 68c-75.333 0 -134.833 -26.667 -178.5 -80s-65.5 -126 -65.5 -218s21 -165.167 63 -219.5s100.333 -81.5 175 -81.5
c65.333 0 114.666 16.667 147.999 50v205h-158v39h202v-261c-46.667 -50 -111.667 -75 -195 -75z" />
    <glyph glyph-name="uni0123" unicode="&#x123;" horiz-adv-x="487" 
d="M296 539c-38 5.33301 -64.667 13.499 -80 24.499s-23 27.167 -23 48.5c0 50.667 48.333 79 145 85l7 -30c-42 -2.66699 -71.333 -8.16699 -88 -16.5s-25 -20.166 -25 -35.499c0 -27.333 25.667 -43 77 -47zM249 -231.001c-60.667 0 -108.666 11.9971 -143.999 35.9971
s-53 56.333 -53 97c0 42.667 23.667 81.334 71 116.001v4c-28 16.667 -42 42.334 -42 77.001c0 34 17.333 63.333 52 88v4c-40 34.667 -60 78.667 -60 132c0 48.667 16.333 89 49 121s72.667 48 120 48c22 0 43 -4 63 -12h163v-37h-112c35.333 -30.667 53 -71 53 -121
c0 -48.667 -16 -89 -48 -121s-71.667 -48 -119 -48c-30.667 0 -57.334 6.66699 -80.001 20c-26 -21.333 -39 -44.333 -39 -69c0 -42 30.667 -63 92 -63h103c54 0 93.833 -8.83301 119.5 -26.5s38.5 -45.5 38.5 -83.5c0 -43.333 -21.167 -81.166 -63.5 -113.499
s-96.833 -48.5 -163.5 -48.5zM242.001 187.996c34 0 63.167 12.667 87.5 38s36.5 57.666 36.5 96.999s-12 71.333 -36 96s-53.333 37 -88 37c-35.333 0 -65 -12.167 -89 -36.5s-36 -56.5 -36 -96.5c0 -39.333 12.167 -71.666 36.5 -96.999s53.833 -38 88.5 -38z
M254.001 -195.004c52 0 94.5 12.334 127.5 37.001s49.5 52.667 49.5 84c0 48.667 -37 73 -111 73h-103c-18 0 -38 2.66699 -60 8c-42 -28.667 -63 -62.334 -63 -101.001c0 -30.667 14.167 -55.167 42.5 -73.5s67.5 -27.5 117.5 -27.5z" />
    <glyph glyph-name="Hcircumflex" unicode="&#x124;" horiz-adv-x="639" 
d="M97 0v659h46v-289h353v289h46v-659h-46v330h-353v-330h-46zM201 709l96 111h44l96 -111h-41l-75 76h-4l-75 -76h-41z" />
    <glyph glyph-name="hcircumflex" unicode="&#x125;" horiz-adv-x="528" 
d="M92 0v719.001h44v-208v-106c58 58 113.333 87 166 87c49.333 0 85.833 -15.167 109.5 -45.5s35.5 -76.5 35.5 -138.5v-308h-44v302c0 51.333 -8.66699 89.166 -26 113.499s-45.333 36.5 -84 36.5c-27.333 0 -52.5 -7 -75.5 -21s-50.167 -37 -81.5 -69v-362h-44z
M-2 748.001l96 111h44l96 -111h-41l-75 76h-4l-75 -76h-41z" />
    <glyph glyph-name="Hbar" unicode="&#x126;" horiz-adv-x="672" 
d="M516 370v125h-353v-125h353zM635 528v-33h-73v-495h-46v330h-353v-330h-46v495h-81v29l81 4v131h46v-131h353v131h46v-131h73z" />
    <glyph glyph-name="hbar" unicode="&#x127;" horiz-adv-x="528" 
d="M136 477v-105.999c58 58 113.333 87 166 87c49.333 0 85.833 -15.167 109.5 -45.5s35.5 -76.5 35.5 -138.5v-274h-44v268c0 51.333 -8.66699 89.166 -26 113.499s-45.333 36.5 -84 36.5c-27.333 0 -52.5 -7 -75.5 -21s-50.167 -37 -81.5 -69v-328h-44v581h-77v29l77 4
v105h44v-105h190v-33h-190v-104z" />
    <glyph glyph-name="Itilde" unicode="&#x128;" horiz-adv-x="240" 
d="M97 0v659h46v-659h-46zM181 716c-19.333 0 -41.666 9.33301 -66.999 28s-44 28 -56 28c-11.333 0 -20.833 -5.16699 -28.5 -15.5s-12.5 -23.833 -14.5 -40.5h-33c1.33301 24.667 9 46.167 23 64.5s32 27.5 54 27.5c19.333 0 41.666 -9.33301 66.999 -28s44 -28 56 -28
c11.333 0 20.833 5.16699 28.5 15.5s12.5 23.833 14.5 40.5h33c-1.33301 -24.667 -9 -46.167 -23 -64.5s-32 -27.5 -54 -27.5z" />
    <glyph glyph-name="itilde" unicode="&#x129;" horiz-adv-x="229" 
d="M92 0v480h44v-480h-44zM171 572c-17.333 0 -38.167 10.668 -62.5 32.001s-41.833 32 -52.5 32c-24.667 0 -39.667 -21.333 -45 -64h-34c2 27.333 9.66699 50.833 23 70.5s32.333 29.5 57 29.5c17.333 0 38.333 -10.833 63 -32.5s42 -32.5 52 -32.5
c24.667 0 39.667 21.333 45 64h34c-2 -26.667 -9.66699 -49.834 -23 -69.501s-32.333 -29.5 -57 -29.5z" />
    <glyph glyph-name="Imacron" unicode="&#x12a;" horiz-adv-x="240" 
d="M97 0v659h46v-659h-46zM6 743v36h228v-36h-228z" />
    <glyph glyph-name="imacron" unicode="&#x12b;" horiz-adv-x="229" 
d="M92 0v480h44v-480h-44zM0 606v36h228v-36h-228z" />
    <glyph glyph-name="uni012C" unicode="&#x12c;" horiz-adv-x="240" 
d="M97 0v659h46v-659h-46zM120 710c-35.333 0 -63.002 10.833 -83.002 32.5s-31.667 47.5 -35 77.5h35c3.33301 -22.667 11.833 -41.334 25.5 -56.001s32.834 -22 57.501 -22s43.834 7.33301 57.501 22s22.167 33.334 25.5 56.001h35c-3.33301 -30 -15 -55.833 -35 -77.5
s-47.667 -32.5 -83 -32.5z" />
    <glyph glyph-name="uni012D" unicode="&#x12d;" horiz-adv-x="229" 
d="M92 0v480h44v-480h-44zM115 570c-37.333 0 -65.833 13.5 -85.5 40.5s-31.5 56.833 -35.5 89.5h34c3.33301 -25.333 12.5 -47.666 27.5 -66.999s34.833 -29 59.5 -29s44.5 9.66699 59.5 29s24.167 41.666 27.5 66.999h34c-4 -32.667 -15.833 -62.5 -35.5 -89.5
s-48.167 -40.5 -85.5 -40.5z" />
    <glyph glyph-name="Iogonek" unicode="&#x12e;" horiz-adv-x="240" 
d="M128 -205c-24 0 -43.999 7.00098 -59.999 21.001s-24 34.333 -24 61c0 40.667 20.667 81.667 62 123h-9v659h46v-659c-40 -44.667 -60 -83.334 -60 -116.001c0 -16.667 5 -29.5 15 -38.5s22 -13.5 36 -13.5c16.667 0 31 4.66699 43 14l16 -27
c-18.667 -16 -40.334 -24 -65.001 -24z" />
    <glyph glyph-name="iogonek" unicode="&#x12f;" horiz-adv-x="229" 
d="M118 -203c-24 0 -43.499 7 -58.499 21s-22.5 34 -22.5 60c0 36 20.667 76.667 62 122h-7v480h44v-480c-40.667 -43.333 -61 -82 -61 -116c0 -16.667 4.83301 -29.5 14.5 -38.5s21.167 -13.5 34.5 -13.5c15.333 0 29.666 4.66699 42.999 14l16 -26
c-18 -15.333 -39.667 -23 -65 -23zM113.001 596c-10.667 0 -20 3.66699 -28 11s-12 16.666 -12 27.999c0 12 4 21.667 12 29s17.333 11 28 11c11.333 0 21 -3.66699 29 -11s12 -17 12 -29c0 -11.333 -4 -20.666 -12 -27.999s-17.667 -11 -29 -11z" />
    <glyph glyph-name="Idotaccent" unicode="&#x130;" horiz-adv-x="240" 
d="M97 0v659h46v-659h-46zM120 721c-11.333 0 -20.833 3.83301 -28.5 11.5s-11.5 17.5 -11.5 29.5c0 11.333 3.83301 20.666 11.5 27.999s17.167 11 28.5 11s20.833 -3.66699 28.5 -11s11.5 -16.666 11.5 -27.999c0 -12 -3.83301 -21.833 -11.5 -29.5
s-17.167 -11.5 -28.5 -11.5z" />
    <glyph glyph-name="dotlessi" unicode="&#x131;" horiz-adv-x="229" 
d="M92 0v480h44v-480h-44z" />
    <glyph glyph-name="uni0132" unicode="&#x132;" horiz-adv-x="481" 
d="M97 0v659h46v-659h-46zM274 -156c-23.333 0 -43.667 4.33301 -61 13l10 39c18 -6 34.667 -9 50 -9c25.333 0 42.5 8.83301 51.5 26.5s13.5 43.5 13.5 77.5v668h46v-674c0 -94 -36.667 -141 -110 -141z" />
    <glyph glyph-name="uni0133" unicode="&#x133;" horiz-adv-x="457" 
d="M92 0v480h44v-480h-44zM115 596c-11.333 0 -20.833 3.66699 -28.5 11s-11.5 16.666 -11.5 27.999c0 12 3.83301 21.667 11.5 29s17.167 11 28.5 11s20.833 -3.66699 28.5 -11s11.5 -17 11.5 -29c0 -11.333 -3.83301 -20.666 -11.5 -27.999s-17.167 -11 -28.5 -11z
M258 -229c-21.333 0 -42 3.99902 -62 11.999l11 36c20 -6.66699 36.667 -10 50 -10c25.333 0 42.333 8.83301 51 26.5s13 43.834 13 78.501v566h45v-569c0 -93.333 -36 -140 -108 -140zM344 595.999c-10.667 0 -20 3.66699 -28 11s-12 16.666 -12 27.999
c0 12 4 21.667 12 29s17.333 11 28 11c11.333 0 21 -3.66699 29 -11s12 -17 12 -29c0 -11.333 -4 -20.666 -12 -27.999s-17.667 -11 -29 -11z" />
    <glyph glyph-name="Jcircumflex" unicode="&#x134;" horiz-adv-x="462" 
d="M203 -12c-73.333 0 -127.333 32.333 -162 97l35 23c30 -52 72.333 -78 127 -78c40 0 69.667 12.333 89 37s29 63.667 29 117v475h46v-480c0 -57.333 -13.167 -103.5 -39.5 -138.5s-67.833 -52.5 -124.5 -52.5zM223 709l96 111h44l96 -111h-41l-75 76h-4l-75 -76h-41z" />
    <glyph glyph-name="jcircumflex" unicode="&#x135;" horiz-adv-x="229" 
d="M29 -229c-21.333 0 -42 3.99902 -62 11.999l11 36c20 -6.66699 36.667 -10 50 -10c25.333 0 42.333 8.83301 51 26.5s13 43.834 13 78.501v566h45v-569c0 -93.333 -36 -140 -108 -140zM-11 571.999l105 156h42l105 -156h-39l-85 118h-4l-85 -118h-39z" />
    <glyph glyph-name="uni0136" unicode="&#x136;" horiz-adv-x="558" 
d="M97 0v659h46v-366h2l319 366h55l-210 -244l239 -415h-53l-218 380l-134 -153v-227h-46zM245 -209l-7 30.001c42 2.66699 71.333 8.16699 88 16.5s25 20.166 25 35.499c0 27.333 -25.667 43 -77 47l13 29c38 -5.33301 64.667 -13.5 80 -24.5s23 -27.167 23 -48.5
c0 -50.667 -48.333 -79 -145 -85z" />
    <glyph glyph-name="uni0137" unicode="&#x137;" horiz-adv-x="464" 
d="M92 0v719h44v-530h2l237 291h51l-156 -190l182 -290h-49l-159 257l-108 -126v-131h-44zM180 -209l-7 30.001c42 2.66699 71.333 8.16699 88 16.5s25 20.166 25 35.499c0 27.333 -25.667 43 -77 47l13 29c38 -5.33301 64.667 -13.5 80 -24.5s23 -27.167 23 -48.5
c0 -50.667 -48.333 -79 -145 -85z" />
    <glyph glyph-name="kgreenlandic" unicode="&#x138;" horiz-adv-x="464" 
d="M92 0v480h44v-291h3l236 291h51l-156 -190l182 -290h-49l-159 257l-108 -127v-130h-44z" />
    <glyph glyph-name="Lacute" unicode="&#x139;" horiz-adv-x="467" 
d="M84 709l93 111h61l-112 -111h-42zM97 0v659h46v-619h304v-40h-350z" />
    <glyph glyph-name="lacute" unicode="&#x13a;" horiz-adv-x="237" 
d="M69 760l93 111h61l-112 -111h-42zM151 -12c-39.333 0 -59 25.333 -59 76v655h44v-661c0 -20.667 7 -31 21 -31c5.33301 0 11.333 0.666992 18 2l8 -36c-10 -3.33301 -20.667 -5 -32 -5z" />
    <glyph glyph-name="uni013B" unicode="&#x13b;" horiz-adv-x="467" 
d="M210 -209l-7 30.001c42 2.66699 71.333 8.16699 88 16.5s25 20.166 25 35.499c0 27.333 -25.667 43 -77 47l13 29c38 -5.33301 64.667 -13.5 80 -24.5s23 -27.167 23 -48.5c0 -50.667 -48.333 -79 -145 -85zM97 0.000976562v659h46v-619h304v-40h-350z" />
    <glyph glyph-name="uni013C" unicode="&#x13c;" horiz-adv-x="237" 
d="M81 -209l-7 30.001c42 2.66699 71.333 8.16699 88 16.5s25 20.166 25 35.499c0 27.333 -25.667 43 -77 47l13 29c38 -5.33301 64.667 -13.5 80 -24.5s23 -27.167 23 -48.5c0 -50.667 -48.333 -79 -145 -85zM151 -11.999c-39.333 0 -59 25.333 -59 76v655h44v-661
c0 -20.667 7 -31 21 -31c5.33301 0 11.333 0.666992 18 2l8 -36c-10 -3.33301 -20.667 -5 -32 -5z" />
    <glyph glyph-name="Lcaron" unicode="&#x13d;" horiz-adv-x="467" 
d="M322 517l-3 206h38v-50l-8 -156h-27zM97 0v659h46v-619h304v-40h-350z" />
    <glyph glyph-name="lcaron" unicode="&#x13e;" horiz-adv-x="234" 
d="M202 548l-3 206h38v-50l-8 -156h-27zM151 -12c-39.333 0 -59 25.333 -59 76v655h44v-661c0 -20.667 7 -31 21 -31c5.33301 0 11.333 0.666992 18 2l8 -36c-10 -3.33301 -20.667 -5 -32 -5z" />
    <glyph glyph-name="Ldot" unicode="&#x13f;" horiz-adv-x="467" 
d="M97 0v659h46v-619h304v-40h-350zM358 278c-11.333 0 -21.333 4.16699 -30 12.5s-13 19.166 -13 32.499c0 14 4.33301 25.167 13 33.5s18.667 12.5 30 12.5s21.166 -4.16699 29.499 -12.5s12.5 -19.5 12.5 -33.5c0 -13.333 -4.16699 -24.166 -12.5 -32.499
s-18.166 -12.5 -29.499 -12.5z" />
    <glyph glyph-name="ldot" unicode="&#x140;" horiz-adv-x="308" 
d="M151 -12c-39.333 0 -59 25.333 -59 76v655h44v-661c0 -20.667 7 -31 21 -31c5.33301 0 11.333 0.666992 18 2l8 -36c-10 -3.33301 -20.667 -5 -32 -5zM268 278c-11.333 0 -21.333 4.16699 -30 12.5s-13 19.166 -13 32.499c0 14 4.33301 25.167 13 33.5
s18.667 12.5 30 12.5s21.166 -4.16699 29.499 -12.5s12.5 -19.5 12.5 -33.5c0 -13.333 -4.16699 -24.166 -12.5 -32.499s-18.166 -12.5 -29.499 -12.5z" />
    <glyph glyph-name="Lslash" unicode="&#x141;" horiz-adv-x="468" 
d="M147 40h304v-40h-350v257l-87 -47v40l87 48v361h46v-341l194 101v-40l-194 -101v-238z" />
    <glyph glyph-name="lslash" unicode="&#x142;" horiz-adv-x="239" 
d="M211 437l-74 -49v-330c0 -20.667 7 -31 21 -31c5.33301 0 11.333 0.666992 18 2l8 -36c-10 -3.33301 -20.667 -5 -32 -5c-39.333 0 -59 25.333 -59 76v300l-65 -43v42l65 43v313h44v-288l74 49v-43z" />
    <glyph glyph-name="Nacute" unicode="&#x143;" horiz-adv-x="636" 
d="M285 709l93 111h61l-112 -111h-42zM97 0v659h48l278 -465l74 -131h4l-6 192v404h44v-659h-48l-278 465l-74 131h-4c0.666992 -14 1.5 -33.5 2.5 -58.5s1.83301 -48 2.5 -69s1 -40.833 1 -59.5v-409h-44z" />
    <glyph glyph-name="nacute" unicode="&#x144;" horiz-adv-x="532" 
d="M228 572l100 156h56l-116 -156h-40zM92 0v480.001h38l4 -74h3c57.333 57.333 112.333 86 165 86c49.333 0 85.833 -15.167 109.5 -45.5s35.5 -76.5 35.5 -138.5v-308h-44v302c0 51.333 -8.66699 89.166 -26 113.499s-45.333 36.5 -84 36.5c-27.333 0 -52.5 -7 -75.5 -21
s-50.167 -37 -81.5 -69v-362h-44z" />
    <glyph glyph-name="uni0145" unicode="&#x145;" horiz-adv-x="636" 
d="M242 -209l-7 30.001c42 2.66699 71.333 8.16699 88 16.5s25 20.166 25 35.499c0 27.333 -25.667 43 -77 47l13 29c38 -5.33301 64.667 -13.5 80 -24.5s23 -27.167 23 -48.5c0 -50.667 -48.333 -79 -145 -85zM97 0.000976562v659h48l278 -465l74 -131h4l-6 192v404h44
v-659h-48l-278 465l-74 131h-4c0.666992 -14 1.5 -33.5 2.5 -58.5s1.83301 -48 2.5 -69s1 -40.833 1 -59.5v-409h-44z" />
    <glyph glyph-name="uni0146" unicode="&#x146;" horiz-adv-x="532" 
d="M195 -209l-7 30.001c42 2.66699 71.333 8.16699 88 16.5s25 20.166 25 35.499c0 27.333 -25.667 43 -77 47l13 29c38 -5.33301 64.667 -13.5 80 -24.5s23 -27.167 23 -48.5c0 -50.667 -48.333 -79 -145 -85zM92 0.000976562v480.001h38l4 -74h3
c57.333 57.333 112.333 86 165 86c49.333 0 85.833 -15.167 109.5 -45.5s35.5 -76.5 35.5 -138.5v-308h-44v302c0 51.333 -8.66699 89.166 -26 113.499s-45.333 36.5 -84 36.5c-27.333 0 -52.5 -7 -75.5 -21s-50.167 -37 -81.5 -69v-362h-44z" />
    <glyph glyph-name="Ncaron" unicode="&#x147;" horiz-adv-x="636" 
d="M301 709l-96 111h41l75 -77h4l75 77h41l-96 -111h-44zM97 0v659h48l278 -465l74 -131h4l-6 192v404h44v-659h-48l-278 465l-74 131h-4c0.666992 -14 1.5 -33.5 2.5 -58.5s1.83301 -48 2.5 -69s1 -40.833 1 -59.5v-409h-44z" />
    <glyph glyph-name="ncaron" unicode="&#x148;" horiz-adv-x="532" 
d="M262 572l-105 156h39l85 -118h4l85 118h39l-105 -156h-42zM92 0v480.001h38l4 -74h3c57.333 57.333 112.333 86 165 86c49.333 0 85.833 -15.167 109.5 -45.5s35.5 -76.5 35.5 -138.5v-308h-44v302c0 51.333 -8.66699 89.166 -26 113.499s-45.333 36.5 -84 36.5
c-27.333 0 -52.5 -7 -75.5 -21s-50.167 -37 -81.5 -69v-362h-44z" />
    <glyph glyph-name="napostrophe" unicode="&#x149;" horiz-adv-x="729" 
d="M76 477l-17.998 23c23.333 19.333 40.333 38 51 56s16 40.667 16 68c-1.33301 -0.666992 -4 -1 -8 -1c-10.667 0 -19.834 3.16699 -27.501 9.5s-11.5 15.5 -11.5 27.5s3.66699 21.667 11 29s16.666 11 27.999 11c14 0 25 -5.83301 33 -17.5s12 -28.167 12 -49.5
c0 -66.667 -28.667 -118.667 -86 -156zM323.002 406l3 0.000976562c57.333 57.333 112.333 86 165 86c49.333 0 85.833 -15.167 109.5 -45.5s35.5 -76.5 35.5 -138.5v-308h-44v302c0 51.333 -8.66699 89.166 -26 113.499s-45.333 36.5 -84 36.5
c-27.333 0 -52.5 -7 -75.5 -21s-50.167 -37 -81.5 -69v-362h-44v480h38z" />
    <glyph glyph-name="uni014A" unicode="&#x14a;" horiz-adv-x="617" 
d="M403 -12c-30.667 0 -54.667 4.33301 -72 13l14 43c16.667 -7.33301 34.667 -11 54 -11c76.667 0 115 101.333 115 304c0 106.667 -16.333 182 -49 226s-79 66 -139 66c-29.333 0 -61.5 -10.333 -96.5 -31s-63.833 -45.667 -86.5 -75v-523h-46v659h46v-88
c24.667 28.667 54 52.5 88 71.5s68 28.5 102 28.5c70.667 0 126.5 -26.5 167.5 -79.5s61.5 -137.833 61.5 -254.5c0 -123.333 -14.5 -212.333 -43.5 -267s-67.5 -82 -115.5 -82z" />
    <glyph glyph-name="uni014B" unicode="&#x14b;" horiz-adv-x="532" 
d="M339 -229c-20.667 0 -41.001 4.00098 -61.001 12.001l10 36c20 -6.66699 36.667 -10 50 -10c25.333 0 42.5 9 51.5 27s13.5 44 13.5 78v388c0 51.333 -8.66699 89.166 -26 113.499s-45.333 36.5 -84 36.5c-27.333 0 -52.5 -7 -75.5 -21s-50.167 -37 -81.5 -69v-362h-44
v480h38l4 -74h3c57.333 57.333 112.333 86 165 86c49.333 0 85.833 -15.167 109.5 -45.5s35.5 -76.5 35.5 -138.5v-397c0 -47.333 -8.66699 -82.5 -26 -105.5s-44.666 -34.5 -81.999 -34.5z" />
    <glyph glyph-name="Omacron" unicode="&#x14c;" horiz-adv-x="652" 
d="M326 -12c-80 0 -145.167 31.5 -195.5 94.5s-75.5 146.167 -75.5 249.5c0 102.667 25.167 184.834 75.5 246.501s115.5 92.5 195.5 92.5c80.667 0 146.167 -30.833 196.5 -92.5s75.5 -143.834 75.5 -246.501c0 -103.333 -25.333 -186.5 -76 -249.5s-116 -94.5 -196 -94.5z
M326 30c67.333 0 121.333 27.5 162 82.5s61 128.167 61 219.5c0 90.667 -20.333 162.834 -61 216.501s-94.667 80.5 -162 80.5s-121.333 -26.833 -162 -80.5s-61 -125.834 -61 -216.501c0 -91.333 20.333 -164.5 61 -219.5s94.667 -82.5 162 -82.5zM212 743v36h228v-36h-228
z" />
    <glyph glyph-name="omacron" unicode="&#x14d;" horiz-adv-x="535" 
d="M153 606v36h228v-36h-228zM267 -12c-60 0 -110.833 22.667 -152.5 68s-62.5 106.333 -62.5 183c0 77.333 20.833 138.833 62.5 184.5s92.5 68.5 152.5 68.5c60.667 0 111.834 -22.833 153.501 -68.5s62.5 -107.167 62.5 -184.5c0 -76.667 -20.833 -137.667 -62.5 -183
s-92.834 -68 -153.501 -68zM267 27c48.667 0 89.167 19.667 121.5 59s48.5 90.333 48.5 153s-16.167 114 -48.5 154s-72.833 60 -121.5 60s-89 -19.833 -121 -59.5s-48 -91.167 -48 -154.5c0 -62.667 16 -113.667 48 -153s72.333 -59 121 -59z" />
    <glyph glyph-name="uni014E" unicode="&#x14e;" horiz-adv-x="652" 
d="M326 -12c-80 0 -145.167 31.5 -195.5 94.5s-75.5 146.167 -75.5 249.5c0 102.667 25.167 184.834 75.5 246.501s115.5 92.5 195.5 92.5c80.667 0 146.167 -30.833 196.5 -92.5s75.5 -143.834 75.5 -246.501c0 -103.333 -25.333 -186.5 -76 -249.5s-116 -94.5 -196 -94.5z
M326 30c67.333 0 121.333 27.5 162 82.5s61 128.167 61 219.5c0 90.667 -20.333 162.834 -61 216.501s-94.667 80.5 -162 80.5s-121.333 -26.833 -162 -80.5s-61 -125.834 -61 -216.501c0 -91.333 20.333 -164.5 61 -219.5s94.667 -82.5 162 -82.5zM326 710
c-35.333 0 -63.002 10.833 -83.002 32.5s-31.667 47.5 -35 77.5h35c3.33301 -22.667 11.833 -41.334 25.5 -56.001s32.834 -22 57.501 -22s43.834 7.33301 57.501 22s22.167 33.334 25.5 56.001h35c-3.33301 -30 -15 -55.833 -35 -77.5s-47.667 -32.5 -83 -32.5z" />
    <glyph glyph-name="uni014F" unicode="&#x14f;" horiz-adv-x="535" 
d="M267 570c-37.333 0 -65.833 13.5 -85.5 40.5s-31.5 56.833 -35.5 89.5h34c3.33301 -25.333 12.5 -47.666 27.5 -66.999s34.833 -29 59.5 -29s44.5 9.66699 59.5 29s24.167 41.666 27.5 66.999h34c-4 -32.667 -15.833 -62.5 -35.5 -89.5s-48.167 -40.5 -85.5 -40.5z
M267 -12c-60 0 -110.833 22.667 -152.5 68s-62.5 106.333 -62.5 183c0 77.333 20.833 138.833 62.5 184.5s92.5 68.5 152.5 68.5c60.667 0 111.834 -22.833 153.501 -68.5s62.5 -107.167 62.5 -184.5c0 -76.667 -20.833 -137.667 -62.5 -183s-92.834 -68 -153.501 -68z
M267 27c48.667 0 89.167 19.667 121.5 59s48.5 90.333 48.5 153s-16.167 114 -48.5 154s-72.833 60 -121.5 60s-89 -19.833 -121 -59.5s-48 -91.167 -48 -154.5c0 -62.667 16 -113.667 48 -153s72.333 -59 121 -59z" />
    <glyph glyph-name="Ohungarumlaut" unicode="&#x150;" horiz-adv-x="652" 
d="M232 709l78 111h51l-92 -111h-37zM378 709l78 111h51l-92 -111h-37zM326 -12c-80 0 -145.167 31.5 -195.5 94.5s-75.5 146.167 -75.5 249.5c0 102.667 25.167 184.834 75.5 246.501s115.5 92.5 195.5 92.5c80.667 0 146.167 -30.833 196.5 -92.5
s75.5 -143.834 75.5 -246.501c0 -103.333 -25.333 -186.5 -76 -249.5s-116 -94.5 -196 -94.5zM326 30c67.333 0 121.333 27.5 162 82.5s61 128.167 61 219.5c0 90.667 -20.333 162.834 -61 216.501s-94.667 80.5 -162 80.5s-121.333 -26.833 -162 -80.5
s-61 -125.834 -61 -216.501c0 -91.333 20.333 -164.5 61 -219.5s94.667 -82.5 162 -82.5z" />
    <glyph glyph-name="ohungarumlaut" unicode="&#x151;" horiz-adv-x="535" 
d="M183 570l82 158h46l-93 -158h-35zM317 570l82 158h47l-94 -158h-35zM267 -12c-60 0 -110.833 22.667 -152.5 68s-62.5 106.333 -62.5 183c0 77.333 20.833 138.833 62.5 184.5s92.5 68.5 152.5 68.5c60.667 0 111.834 -22.833 153.501 -68.5s62.5 -107.167 62.5 -184.5
c0 -76.667 -20.833 -137.667 -62.5 -183s-92.834 -68 -153.501 -68zM267 27c48.667 0 89.167 19.667 121.5 59s48.5 90.333 48.5 153s-16.167 114 -48.5 154s-72.833 60 -121.5 60s-89 -19.833 -121 -59.5s-48 -91.167 -48 -154.5c0 -62.667 16 -113.667 48 -153
s72.333 -59 121 -59z" />
    <glyph glyph-name="OE" unicode="&#x152;" horiz-adv-x="833" 
d="M367 0c-101.333 0 -178.667 29.667 -232 89s-80 140.333 -80 243c0 102 26.667 182 80 240s131 87 233 87h408v-40h-295v-249h245v-40h-245v-290h305v-40h-419zM371.999 39l63 -0.000976562v581h-63c-89.333 0 -156.5 -25.667 -201.5 -77s-67.5 -121.666 -67.5 -210.999
s22.667 -160.5 68 -213.5s112.333 -79.5 201 -79.5z" />
    <glyph glyph-name="oe" unicode="&#x153;" horiz-adv-x="848" 
d="M263 -12c-58.667 0 -108.504 22.668 -149.504 68.001s-61.5 106.333 -61.5 183c0 77.333 20.5 138.833 61.5 184.5s90.833 68.5 149.5 68.5c40 0 76.833 -12.333 110.5 -37s58.834 -59.667 75.501 -105c17.333 44 42 78.667 74 104s67 38 105 38
c56.667 0 101.334 -19.5 134.001 -58.5s49 -93.5 49 -163.5c0 -12 -1 -24 -3 -36h-337c0 -60 16.667 -109.5 50 -148.5s74.333 -58.5 123 -58.5c45.333 0 88 14.333 128 43l19 -35c-52 -31.333 -102.667 -47 -152 -47c-42 0 -79.667 12.667 -113 38
s-58.666 59.666 -75.999 102.999c-37.333 -94 -99.666 -141 -186.999 -141zM262.996 27.001c48 0 87.5 19.667 118.5 59s46.5 90.333 46.5 153c0 63.333 -15.5 114.833 -46.5 154.5s-70.5 59.5 -118.5 59.5c-47.333 0 -86.666 -20 -117.999 -60s-47 -91.333 -47 -154
s15.667 -113.667 47 -153s70.666 -59 117.999 -59zM470.996 268.001l298.001 0.000976562c0 60 -12.667 106 -38 138s-59.666 48 -102.999 48c-40.667 0 -75.834 -17.333 -105.501 -52s-46.834 -79.334 -51.501 -134.001z" />
    <glyph glyph-name="Racute" unicode="&#x154;" horiz-adv-x="544" 
d="M392 820l-112 -111h-42l93 111h61zM143 341h131c120.667 0 181 48 181 144c0 48 -15.167 82.5 -45.5 103.5s-75.5 31.5 -135.5 31.5h-131v-279zM515 0l-53 0.000976562l-179 303h-140v-303h-46v659h189c144 0 216 -58 216 -174c0 -51.333 -14.833 -92.333 -44.5 -123
s-71.167 -49.334 -124.5 -56.001z" />
    <glyph glyph-name="racute" unicode="&#x155;" horiz-adv-x="317" 
d="M145 572l100 156h56l-116 -156h-40zM92 0v480h38l4 -89h3c36.667 67.333 82 101 136 101c18.667 0 34.667 -3.33301 48 -10l-10 -40c-14 5.33301 -28.667 8 -44 8c-53.333 0 -97 -41 -131 -123v-327h-44z" />
    <glyph glyph-name="uni0156" unicode="&#x156;" horiz-adv-x="544" 
d="M243 -80l13 29.001c38 -5.33301 64.667 -13.5 80 -24.5s23 -27.167 23 -48.5c0 -50.667 -48.333 -79 -145 -85l-7 30c42 2.66699 71.333 8.16699 88 16.5s25 20.166 25 35.499c0 27.333 -25.667 43 -77 47zM143 341.001h131c120.667 0 181 48 181 144
c0 48 -15.167 82.5 -45.5 103.5s-75.5 31.5 -135.5 31.5h-131v-279zM333 306.001l182 -305.999h-53l-179 303h-140v-303h-46v659h189c144 0 216 -58 216 -174c0 -51.333 -14.833 -92.333 -44.5 -123s-71.167 -49.334 -124.5 -56.001z" />
    <glyph glyph-name="uni0157" unicode="&#x157;" horiz-adv-x="317" 
d="M92 0v480h38l4 -89h3c36.667 67.333 82 101 136 101c18.667 0 34.667 -3.33301 48 -10l-10 -40c-14 5.33301 -28.667 8 -44 8c-53.333 0 -97 -41 -131 -123v-327h-44zM35 -209l-7 30.001c42 2.66699 71.333 8.16699 88 16.5s25 20.166 25 35.499
c0 27.333 -25.667 43 -77 47l13 29c38 -5.33301 64.667 -13.5 80 -24.5s23 -27.167 23 -48.5c0 -50.667 -48.333 -79 -145 -85z" />
    <glyph glyph-name="Rcaron" unicode="&#x158;" horiz-adv-x="544" 
d="M298 709h-44l-96 111h41l75 -77h4l75 77h41zM143 341h131c120.667 0 181 48 181 144c0 48 -15.167 82.5 -45.5 103.5s-75.5 31.5 -135.5 31.5h-131v-279zM515 0l-53 0.000976562l-179 303h-140v-303h-46v659h189c144 0 216 -58 216 -174
c0 -51.333 -14.833 -92.333 -44.5 -123s-71.167 -49.334 -124.5 -56.001z" />
    <glyph glyph-name="rcaron" unicode="&#x159;" horiz-adv-x="317" 
d="M179 572l-105 156h39l85 -118h4l85 118h39l-105 -156h-42zM92 0v480h38l4 -89h3c36.667 67.333 82 101 136 101c18.667 0 34.667 -3.33301 48 -10l-10 -40c-14 5.33301 -28.667 8 -44 8c-53.333 0 -97 -41 -131 -123v-327h-44z" />
    <glyph glyph-name="Sacute" unicode="&#x15a;" horiz-adv-x="521" 
d="M269 -12c-89.333 0 -163.666 32.998 -222.999 98.998l30 32c52.667 -59.333 117 -89 193 -89c50 0 89.833 12.167 119.5 36.5s44.5 56.166 44.5 95.499c0 20 -2.83301 37.333 -8.5 52s-14.834 27.334 -27.501 38.001s-24.5 19 -35.5 25s-26.5 13.667 -46.5 23l-100 45
c-18 8 -33.333 15.833 -46 23.5s-26.5 17.834 -41.5 30.501s-26.5 28.334 -34.5 47.001s-12 39.667 -12 63c0 47.333 18.167 86.166 54.5 116.499s82.166 45.5 137.499 45.5c73.333 0 134.333 -26.333 183 -79l-26 -30c-43.333 44.667 -95.666 67 -156.999 67
c-44 0 -79.333 -10.667 -106 -32s-40 -50 -40 -86c0 -18 3.16699 -34 9.5 -48s16.5 -26.167 30.5 -36.5s25.5 -18 34.5 -23s22.167 -11.5 39.5 -19.5l100 -44c44.667 -20 79 -42.667 103 -68s36 -61 36 -107c0 -51.333 -19.333 -93.666 -58 -126.999s-89.667 -50 -153 -50z
M234 708.998l93 111h61l-112 -111h-42z" />
    <glyph glyph-name="sacute" unicode="&#x15b;" horiz-adv-x="405" 
d="M208 -12c-64.667 0 -123.332 22.002 -175.999 66.002l26 33c49.333 -40.667 100.333 -61 153 -61c36 0 64 9.16699 84 27.5s30 40.833 30 67.5s-10.5 47.667 -31.5 63s-49.5 29.666 -85.5 42.999c-19.333 6.66699 -34.333 12.167 -45 16.5s-24 10.666 -40 18.999
s-28 16.833 -36 25.5s-15.333 19.5 -22 32.5s-10 27.5 -10 43.5c0 36.667 13.833 67.167 41.5 91.5s65.5 36.5 113.5 36.5c51.333 0 97 -16.667 137 -50l-24 -31c-38 28.667 -76.333 43 -115 43c-34.667 0 -61.334 -8.5 -80.001 -25.5s-28 -37.5 -28 -61.5
c0 -13.333 2.83301 -25 8.5 -35s14.834 -19 27.501 -27s24 -14.167 34 -18.5s24.333 -9.83301 43 -16.5c55.333 -20.667 91.666 -37.667 108.999 -51c32 -24 48 -56 48 -96c0 -38 -14.5 -70 -43.5 -96s-68.5 -39 -118.5 -39zM156.002 572.002l100 156h56l-116 -156h-40z" />
    <glyph glyph-name="Scircumflex" unicode="&#x15c;" horiz-adv-x="521" 
d="M269 -12c-89.333 0 -163.666 32.998 -222.999 98.998l30 32c52.667 -59.333 117 -89 193 -89c50 0 89.833 12.167 119.5 36.5s44.5 56.166 44.5 95.499c0 20 -2.83301 37.333 -8.5 52s-14.834 27.334 -27.501 38.001s-24.5 19 -35.5 25s-26.5 13.667 -46.5 23l-100 45
c-18 8 -33.333 15.833 -46 23.5s-26.5 17.834 -41.5 30.501s-26.5 28.334 -34.5 47.001s-12 39.667 -12 63c0 47.333 18.167 86.166 54.5 116.499s82.166 45.5 137.499 45.5c73.333 0 134.333 -26.333 183 -79l-26 -30c-43.333 44.667 -95.666 67 -156.999 67
c-44 0 -79.333 -10.667 -106 -32s-40 -50 -40 -86c0 -18 3.16699 -34 9.5 -48s16.5 -26.167 30.5 -36.5s25.5 -18 34.5 -23s22.167 -11.5 39.5 -19.5l100 -44c44.667 -20 79 -42.667 103 -68s36 -61 36 -107c0 -51.333 -19.333 -93.666 -58 -126.999s-89.667 -50 -153 -50z
M154 708.998l96 111h44l96 -111h-41l-75 76h-4l-75 -76h-41z" />
    <glyph glyph-name="scircumflex" unicode="&#x15d;" horiz-adv-x="405" 
d="M85 572l105 156h42l105 -156h-39l-85 118h-4l-85 -118h-39zM208 -12c-64.667 0 -123.332 22.002 -175.999 66.002l26 33c49.333 -40.667 100.333 -61 153 -61c36 0 64 9.16699 84 27.5s30 40.833 30 67.5s-10.5 47.667 -31.5 63s-49.5 29.666 -85.5 42.999
c-19.333 6.66699 -34.333 12.167 -45 16.5s-24 10.666 -40 18.999s-28 16.833 -36 25.5s-15.333 19.5 -22 32.5s-10 27.5 -10 43.5c0 36.667 13.833 67.167 41.5 91.5s65.5 36.5 113.5 36.5c51.333 0 97 -16.667 137 -50l-24 -31c-38 28.667 -76.333 43 -115 43
c-34.667 0 -61.334 -8.5 -80.001 -25.5s-28 -37.5 -28 -61.5c0 -13.333 2.83301 -25 8.5 -35s14.834 -19 27.501 -27s24 -14.167 34 -18.5s24.333 -9.83301 43 -16.5c55.333 -20.667 91.666 -37.667 108.999 -51c32 -24 48 -56 48 -96c0 -38 -14.5 -70 -43.5 -96
s-68.5 -39 -118.5 -39z" />
    <glyph glyph-name="uni015E" unicode="&#x15e;" horiz-adv-x="521" 
d="M241 384l100 -44.002c44.667 -20 79 -42.667 103 -68s36 -61 36 -107c0 -48.667 -17.333 -89.334 -52 -122.001s-81 -50.667 -139 -54l-23 -43c47.333 -12 71 -35 71 -69c0 -50.667 -48.333 -79 -145 -85l-7 30c42 2.66699 71.333 8.33398 88 17.001s25 20.667 25 36
c0 14.667 -6 25.834 -18 33.501s-32 13.5 -60 17.5l34 62c-83.333 4 -152.666 37 -207.999 99l30 32c52.667 -59.333 117 -89 193 -89c50 0 89.833 12.167 119.5 36.5s44.5 56.166 44.5 95.499c0 20 -2.83301 37.333 -8.5 52s-14.834 27.334 -27.501 38.001
s-24.5 19 -35.5 25s-26.5 13.667 -46.5 23l-100 45c-18 8 -33.333 15.833 -46 23.5s-26.5 17.834 -41.5 30.501s-26.5 28.334 -34.5 47.001s-12 39.667 -12 63c0 47.333 18.167 86.166 54.5 116.499s82.166 45.5 137.499 45.5c73.333 0 134.333 -26.333 183 -79l-26 -30
c-43.333 44.667 -95.666 67 -156.999 67c-44 0 -79.333 -10.667 -106 -32s-40 -50 -40 -86c0 -18 3.16699 -34 9.5 -48s16.5 -26.167 30.5 -36.5s25.5 -18 34.5 -23s22.167 -11.5 39.5 -19.5z" />
    <glyph glyph-name="uni015F" unicode="&#x15f;" horiz-adv-x="405" 
d="M347 442l-23.999 -31c-38 28.667 -76.333 43 -115 43c-34.667 0 -61.334 -8.5 -80.001 -25.5s-28 -37.5 -28 -61.5c0 -13.333 2.83301 -25 8.5 -35s14.834 -19 27.501 -27s24 -14.167 34 -18.5s24.333 -9.83301 43 -16.5c55.333 -20.667 91.666 -37.667 108.999 -51
c32 -24 48 -56 48 -96c0 -34 -12 -63.667 -36 -89s-57.333 -40.333 -100 -45l-23 -43c47.333 -12 71 -35 71 -69c0 -50.667 -48.333 -79 -145 -85l-7 30c42 2.66699 71.333 8.33398 88 17.001s25 20.667 25 36c0 14.667 -6 25.834 -18 33.501s-32 13.5 -60 17.5l34 62
c-61.333 2.66699 -117 24.667 -167 66l26 33c49.333 -40.667 100.333 -61 153 -61c36 0 64 9.16699 84 27.5s30 40.833 30 67.5s-10.5 47.667 -31.5 63s-49.5 29.666 -85.5 42.999c-19.333 6.66699 -34.333 12.167 -45 16.5s-24 10.666 -40 18.999s-28 16.833 -36 25.5
s-15.333 19.5 -22 32.5s-10 27.5 -10 43.5c0 36.667 13.833 67.167 41.5 91.5s65.5 36.5 113.5 36.5c51.333 0 97 -16.667 137 -50z" />
    <glyph glyph-name="Scaron" unicode="&#x160;" horiz-adv-x="521" 
d="M269 -12c-89.333 0 -163.666 32.998 -222.999 98.998l30 32c52.667 -59.333 117 -89 193 -89c50 0 89.833 12.167 119.5 36.5s44.5 56.166 44.5 95.499c0 20 -2.83301 37.333 -8.5 52s-14.834 27.334 -27.501 38.001s-24.5 19 -35.5 25s-26.5 13.667 -46.5 23l-100 45
c-18 8 -33.333 15.833 -46 23.5s-26.5 17.834 -41.5 30.501s-26.5 28.334 -34.5 47.001s-12 39.667 -12 63c0 47.333 18.167 86.166 54.5 116.499s82.166 45.5 137.499 45.5c73.333 0 134.333 -26.333 183 -79l-26 -30c-43.333 44.667 -95.666 67 -156.999 67
c-44 0 -79.333 -10.667 -106 -32s-40 -50 -40 -86c0 -18 3.16699 -34 9.5 -48s16.5 -26.167 30.5 -36.5s25.5 -18 34.5 -23s22.167 -11.5 39.5 -19.5l100 -44c44.667 -20 79 -42.667 103 -68s36 -61 36 -107c0 -51.333 -19.333 -93.666 -58 -126.999s-89.667 -50 -153 -50z
M250 708.998l-96 111h41l75 -77h4l75 77h41l-96 -111h-44z" />
    <glyph glyph-name="scaron" unicode="&#x161;" horiz-adv-x="405" 
d="M190 572l-105 156h39l85 -118h4l85 118h39l-105 -156h-42zM208 -12c-64.667 0 -123.332 22.002 -175.999 66.002l26 33c49.333 -40.667 100.333 -61 153 -61c36 0 64 9.16699 84 27.5s30 40.833 30 67.5s-10.5 47.667 -31.5 63s-49.5 29.666 -85.5 42.999
c-19.333 6.66699 -34.333 12.167 -45 16.5s-24 10.666 -40 18.999s-28 16.833 -36 25.5s-15.333 19.5 -22 32.5s-10 27.5 -10 43.5c0 36.667 13.833 67.167 41.5 91.5s65.5 36.5 113.5 36.5c51.333 0 97 -16.667 137 -50l-24 -31c-38 28.667 -76.333 43 -115 43
c-34.667 0 -61.334 -8.5 -80.001 -25.5s-28 -37.5 -28 -61.5c0 -13.333 2.83301 -25 8.5 -35s14.834 -19 27.501 -27s24 -14.167 34 -18.5s24.333 -9.83301 43 -16.5c55.333 -20.667 91.666 -37.667 108.999 -51c32 -24 48 -56 48 -96c0 -38 -14.5 -70 -43.5 -96
s-68.5 -39 -118.5 -39z" />
    <glyph glyph-name="uni0162" unicode="&#x162;" horiz-adv-x="524" 
d="M285 0l-4 -0.00195312l-29 -54c47.333 -12 71 -35 71 -69c0 -50.667 -48.333 -79 -145 -85l-7 30c42 2.66699 71.333 8.33398 88 17.001s25 20.667 25 36c0 14.667 -6 25.834 -18 33.501s-32 13.5 -60 17.5l40 74h-7v619h-210v40h466v-40h-210v-619z" />
    <glyph glyph-name="uni0163" unicode="&#x163;" horiz-adv-x="312" 
d="M222 -12l-23.001 -42.0029c47.333 -12 71 -35 71 -69c0 -50.667 -48.333 -79 -145 -85l-7 30c42 2.66699 71.333 8.33398 88 17.001s25 20.667 25 36c0 14.667 -6 25.834 -18 33.501s-32 13.5 -60 17.5l35 65c-56.667 12 -85 59.333 -85 142v309h-75v34l76 4l6 139h38
v-139h139v-38h-139v-313c0 -33.333 5.83301 -58.666 17.5 -75.999s32.834 -26 63.501 -26c18.667 0 38.667 5 60 15l12 -36c-33.333 -12 -59.333 -18 -78 -18h-1z" />
    <glyph glyph-name="Tcaron" unicode="&#x164;" horiz-adv-x="524" 
d="M239 709l-96 111h41l75 -77h4l75 77h41l-96 -111h-44zM239 0v619h-210v40h466v-40h-210v-619h-46z" />
    <glyph glyph-name="tcaron" unicode="&#x165;" horiz-adv-x="312" 
d="M243 548l-3 206h38v-50l-8 -156h-27zM223 -12c-44 0 -75.001 12.499 -93.001 37.499s-27 60.833 -27 107.5v309h-75v34l76 4l6 139h38v-139h139v-38h-139v-313c0 -33.333 5.83301 -58.666 17.5 -75.999s32.834 -26 63.501 -26c18.667 0 38.667 5 60 15l12 -36
c-33.333 -12 -59.333 -18 -78 -18z" />
    <glyph glyph-name="uni0166" unicode="&#x166;" horiz-adv-x="524" 
d="M495 619h-210v-256h127v-33h-127v-330h-46v330h-127v31l86 2h41v256h-210v40h466v-40z" />
    <glyph glyph-name="uni0167" unicode="&#x167;" horiz-adv-x="312" 
d="M289 42l11.999 -36.001c-33.333 -12 -59.333 -18 -78 -18c-44 0 -75 12.5 -93 37.5s-27 60.833 -27 107.5v103h-75v29l75 4v173h-75v34l76 4l6 139h38v-139h139v-38h-139v-173h139v-33h-139v-107c0 -33.333 5.83301 -58.666 17.5 -75.999s32.834 -26 63.501 -26
c18.667 0 38.667 5 60 15z" />
    <glyph glyph-name="Utilde" unicode="&#x168;" horiz-adv-x="634" 
d="M316 -12c-30 0 -57.499 4.33301 -82.499 13s-48.333 22.667 -70 42s-38.5 46.833 -50.5 82.5s-18 78.167 -18 127.5v406h46v-401c0 -81.333 16.167 -139.666 48.5 -174.999s74.5 -53 126.5 -53c53.333 0 96.666 17.667 129.999 53s50 93.666 50 174.999v401h43v-406
c0 -49.333 -6.16699 -91.833 -18.5 -127.5s-29.333 -63.167 -51 -82.5s-45 -33.333 -70 -42s-52.833 -13 -83.5 -13zM378.001 716c-19.333 0 -41.666 9.33301 -66.999 28s-44 28 -56 28c-11.333 0 -20.833 -5.16699 -28.5 -15.5s-12.5 -23.833 -14.5 -40.5h-33
c1.33301 24.667 9 46.167 23 64.5s32 27.5 54 27.5c19.333 0 41.666 -9.33301 66.999 -28s44 -28 56 -28c11.333 0 20.833 5.16699 28.5 15.5s12.5 23.833 14.5 40.5h33c-1.33301 -24.667 -9 -46.167 -23 -64.5s-32 -27.5 -54 -27.5z" />
    <glyph glyph-name="utilde" unicode="&#x169;" horiz-adv-x="529" 
d="M230 -12c-49.333 0 -85.833 15.166 -109.5 45.499s-35.5 76.5 -35.5 138.5v308h44v-302c0 -51.333 8.66699 -89.166 26 -113.499s45 -36.5 83 -36.5c28 0 53.667 7.66699 77 23s49.333 40.333 78 75v354h44v-480h-37l-5 80h-2c-52.667 -61.333 -107 -92 -163 -92z
M322 571.999c-17.333 0 -38.167 10.668 -62.5 32.001s-41.833 32 -52.5 32c-24.667 0 -39.667 -21.333 -45 -64h-34c2 27.333 9.66699 50.833 23 70.5s32.333 29.5 57 29.5c17.333 0 38.333 -10.833 63 -32.5s42 -32.5 52 -32.5c24.667 0 39.667 21.333 45 64h34
c-2 -26.667 -9.66699 -49.834 -23 -69.501s-32.333 -29.5 -57 -29.5z" />
    <glyph glyph-name="Umacron" unicode="&#x16a;" horiz-adv-x="634" 
d="M316 -12c-30 0 -57.499 4.33301 -82.499 13s-48.333 22.667 -70 42s-38.5 46.833 -50.5 82.5s-18 78.167 -18 127.5v406h46v-401c0 -81.333 16.167 -139.666 48.5 -174.999s74.5 -53 126.5 -53c53.333 0 96.666 17.667 129.999 53s50 93.666 50 174.999v401h43v-406
c0 -49.333 -6.16699 -91.833 -18.5 -127.5s-29.333 -63.167 -51 -82.5s-45 -33.333 -70 -42s-52.833 -13 -83.5 -13zM203.001 743v36h228v-36h-228z" />
    <glyph glyph-name="umacron" unicode="&#x16b;" horiz-adv-x="529" 
d="M230 -12c-49.333 0 -85.833 15.166 -109.5 45.499s-35.5 76.5 -35.5 138.5v308h44v-302c0 -51.333 8.66699 -89.166 26 -113.499s45 -36.5 83 -36.5c28 0 53.667 7.66699 77 23s49.333 40.333 78 75v354h44v-480h-37l-5 80h-2c-52.667 -61.333 -107 -92 -163 -92z
M146 605.999v36h228v-36h-228z" />
    <glyph glyph-name="Ubreve" unicode="&#x16c;" horiz-adv-x="634" 
d="M316 -12c-30 0 -57.499 4.33301 -82.499 13s-48.333 22.667 -70 42s-38.5 46.833 -50.5 82.5s-18 78.167 -18 127.5v406h46v-401c0 -81.333 16.167 -139.666 48.5 -174.999s74.5 -53 126.5 -53c53.333 0 96.666 17.667 129.999 53s50 93.666 50 174.999v401h43v-406
c0 -49.333 -6.16699 -91.833 -18.5 -127.5s-29.333 -63.167 -51 -82.5s-45 -33.333 -70 -42s-52.833 -13 -83.5 -13zM317.001 710c-35.333 0 -63.002 10.833 -83.002 32.5s-31.667 47.5 -35 77.5h35c3.33301 -22.667 11.833 -41.334 25.5 -56.001s32.834 -22 57.501 -22
s43.834 7.33301 57.501 22s22.167 33.334 25.5 56.001h35c-3.33301 -30 -15 -55.833 -35 -77.5s-47.667 -32.5 -83 -32.5z" />
    <glyph glyph-name="ubreve" unicode="&#x16d;" horiz-adv-x="529" 
d="M230 -12c-49.333 0 -85.833 15.166 -109.5 45.499s-35.5 76.5 -35.5 138.5v308h44v-302c0 -51.333 8.66699 -89.166 26 -113.499s45 -36.5 83 -36.5c28 0 53.667 7.66699 77 23s49.333 40.333 78 75v354h44v-480h-37l-5 80h-2c-52.667 -61.333 -107 -92 -163 -92z
M265 569.999c-37.333 0 -65.833 13.5 -85.5 40.5s-31.5 56.833 -35.5 89.5h34c3.33301 -25.333 12.5 -47.666 27.5 -66.999s34.833 -29 59.5 -29s44.5 9.66699 59.5 29s24.167 41.666 27.5 66.999h34c-4 -32.667 -15.833 -62.5 -35.5 -89.5s-48.167 -40.5 -85.5 -40.5z" />
    <glyph glyph-name="Uring" unicode="&#x16e;" horiz-adv-x="634" 
d="M316 -12c-30 0 -57.499 4.33301 -82.499 13s-48.333 22.667 -70 42s-38.5 46.833 -50.5 82.5s-18 78.167 -18 127.5v406h46v-401c0 -81.333 16.167 -139.666 48.5 -174.999s74.5 -53 126.5 -53c53.333 0 96.666 17.667 129.999 53s50 93.666 50 174.999v401h43v-406
c0 -49.333 -6.16699 -91.833 -18.5 -127.5s-29.333 -63.167 -51 -82.5s-45 -33.333 -70 -42s-52.833 -13 -83.5 -13zM317.001 700c-24 0 -43.667 7.5 -59 22.5s-23 34.833 -23 59.5c0 24 7.66699 43.667 23 59s35 23 59 23c22.667 0 42 -7.66699 58 -23s24 -35 24 -59
c0 -24.667 -7.83301 -44.5 -23.5 -59.5s-35.167 -22.5 -58.5 -22.5zM317.001 726c14 0 26 5 36 15s15 23.667 15 41c0 16.667 -5 30.167 -15 40.5s-22 15.5 -36 15.5c-14.667 0 -27 -5 -37 -15s-15 -23.667 -15 -41c0 -18 4.83301 -31.833 14.5 -41.5
s22.167 -14.5 37.5 -14.5z" />
    <glyph glyph-name="uring" unicode="&#x16f;" horiz-adv-x="529" 
d="M230 -12c-49.333 0 -85.833 15.166 -109.5 45.499s-35.5 76.5 -35.5 138.5v308h44v-302c0 -51.333 8.66699 -89.166 26 -113.499s45 -36.5 83 -36.5c28 0 53.667 7.66699 77 23s49.333 40.333 78 75v354h44v-480h-37l-5 80h-2c-52.667 -61.333 -107 -92 -163 -92z
M265 538.999c-24 0 -43.667 8 -59 24s-23 36.667 -23 62c0 26 7.66699 47 23 63s35 24 59 24s43.667 -8 59 -24s23 -37 23 -63c0 -25.333 -7.66699 -46 -23 -62s-35 -24 -59 -24zM265 564.999c14.667 0 27 5.5 37 16.5s15 25.5 15 43.5s-5 32.667 -15 44s-22.333 17 -37 17
s-27 -5.66699 -37 -17s-15 -26 -15 -44s5 -32.5 15 -43.5s22.333 -16.5 37 -16.5z" />
    <glyph glyph-name="Uhungarumlaut" unicode="&#x170;" horiz-adv-x="634" 
d="M223 709l78 111h51l-92 -111h-37zM369 709l78 111h51l-92 -111h-37zM316 -12c-30 0 -57.499 4.33301 -82.499 13s-48.333 22.667 -70 42s-38.5 46.833 -50.5 82.5s-18 78.167 -18 127.5v406h46v-401c0 -81.333 16.167 -139.666 48.5 -174.999s74.5 -53 126.5 -53
c53.333 0 96.666 17.667 129.999 53s50 93.666 50 174.999v401h43v-406c0 -49.333 -6.16699 -91.833 -18.5 -127.5s-29.333 -63.167 -51 -82.5s-45 -33.333 -70 -42s-52.833 -13 -83.5 -13z" />
    <glyph glyph-name="uhungarumlaut" unicode="&#x171;" horiz-adv-x="529" 
d="M181 570l82 158h46l-93 -158h-35zM315 570l82 158h47l-94 -158h-35zM230 -12c-49.333 0 -85.833 15.166 -109.5 45.499s-35.5 76.5 -35.5 138.5v308h44v-302c0 -51.333 8.66699 -89.166 26 -113.499s45 -36.5 83 -36.5c28 0 53.667 7.66699 77 23s49.333 40.333 78 75
v354h44v-480h-37l-5 80h-2c-52.667 -61.333 -107 -92 -163 -92z" />
    <glyph glyph-name="Uogonek" unicode="&#x172;" horiz-adv-x="634" 
d="M346 -205c-24.667 0 -44.998 7.00293 -60.998 21.0029s-24 34.333 -24 61c0 5.33301 0.333008 10.666 1 15.999s2 10.5 4 15.5s3.66699 9.33301 5 13s3.66602 8.16699 6.99902 13.5s5.83301 9.16602 7.5 11.499s5 6.16602 10 11.499l9.5 9.99902l10.5 10.5l9.5 9.5
c-153.333 0 -230 88.333 -230 265v406h46v-401c0 -81.333 16.167 -139.666 48.5 -174.999s74.5 -53 126.5 -53c53.333 0 96.666 17.667 129.999 53s50 93.666 50 174.999v401h43v-406c0 -41.333 -3.83301 -77 -11.5 -107s-19.667 -54.667 -36 -74
s-32.166 -34.5 -47.499 -45.5s-35 -22.5 -59 -34.5c-25.333 -13.333 -45.666 -30.166 -60.999 -50.499s-23 -39.5 -23 -57.5c0 -16.667 5 -29.5 15 -38.5s22 -13.5 36 -13.5c15.333 0 29.666 4.66699 42.999 14l16 -27c-18.667 -16 -40.334 -24 -65.001 -24z" />
    <glyph glyph-name="uogonek" unicode="&#x173;" horiz-adv-x="529" 
d="M394 -203c-24 0 -43.5 7 -58.5 21s-22.5 34 -22.5 60c0 43.333 29 86.333 87 129l-5 73h-2c-52.667 -61.333 -107 -92 -163 -92c-49.333 0 -85.833 15.167 -109.5 45.5s-35.5 76.5 -35.5 138.5v308h44v-302c0 -52 8.5 -90 25.5 -114s44.833 -36 83.5 -36
c28 0 53.667 7.66699 77 23s49.333 40.333 78 75v354h44v-480c-57.333 -35.333 -86 -74 -86 -116c0 -16.667 4.83301 -29.5 14.5 -38.5s21.167 -13.5 34.5 -13.5c16.667 0 31 4.66699 43 14l16 -26c-18 -15.333 -39.667 -23 -65 -23z" />
    <glyph glyph-name="Wcircumflex" unicode="&#x174;" horiz-adv-x="770" 
d="M267 709l96 111h44l96 -111h-41l-75 76h-4l-75 -76h-41zM178 0l-149.999 658.999h48l83 -388l45 -215h4c16.667 74.667 33.667 146.334 51 215.001l103 388h47l103 -388l26.5 -107.5l26.5 -107.5h4l21 107.5c9.33301 47.667 16.666 83.5 21.999 107.5l83 388h45
l-147 -659h-51l-120 452c-2 10 -7.33301 32.333 -16 67s-15 62 -19 82h-4c-4 -18.667 -10.333 -44.5 -19 -77.5s-14.667 -56.833 -18 -71.5l-118 -452h-50z" />
    <glyph glyph-name="wcircumflex" unicode="&#x175;" horiz-adv-x="685" 
d="M217 572l105 156h42l105 -156h-39l-85 118h-4l-85 -118h-39zM166 0l-141.997 479.999h48l86 -311c14.667 -53.333 25.667 -96 33 -128h4l10.5 40c3.66699 14 8 29.667 13 47s8.83301 31 11.5 41l87 311h53l87 -311l19.5 -69.5l16.5 -58.5h4l16.5 61.5
c7.66699 28.333 13.5 50.5 17.5 66.5l85 311h45l-138 -480h-58l-84 298c-4.66699 16 -10.834 39 -18.501 69s-13.834 52.667 -18.501 68h-4c-12.667 -53.333 -25.334 -99.666 -38.001 -138.999l-83 -296h-53z" />
    <glyph glyph-name="Ycircumflex" unicode="&#x176;" horiz-adv-x="447" 
d="M200 0v267l-197 392h49l100 -206c35.333 -74 58.666 -121.333 69.999 -142h4c36.667 70.667 60.334 118 71.001 142l100 206h47l-198 -392v-267h-46zM105 709l96 111h44l96 -111h-41l-75 76h-4l-75 -76h-41z" />
    <glyph glyph-name="ycircumflex" unicode="&#x177;" horiz-adv-x="436" 
d="M73 -219c-18 0 -34.332 3.33301 -48.999 10l10 39c13.333 -5.33301 26.333 -8 39 -8c54 0 95 42.333 123 127l13 42l-197 489h48l116 -302c25.333 -67.333 42.666 -112 51.999 -134h4c3.33301 9.33301 18 54 44 134l103 302h45l-190 -540
c-35.333 -106 -89 -159 -161 -159zM103.001 572l105 156h42l105 -156h-39l-85 118h-4l-85 -118h-39z" />
    <glyph glyph-name="Ydieresis" unicode="&#x178;" horiz-adv-x="447" 
d="M200 0v267l-197 392h49l100 -206c35.333 -74 58.666 -121.333 69.999 -142h4c36.667 70.667 60.334 118 71.001 142l100 206h47l-198 -392v-267h-46zM144 725c-10.667 0 -19.334 3.33301 -26.001 10s-10 15.334 -10 26.001c0 11.333 3.33301 20.333 10 27
s15.334 10 26.001 10s19.5 -3.33301 26.5 -10s10.5 -15.667 10.5 -27c0 -10.667 -3.5 -19.334 -10.5 -26.001s-15.833 -10 -26.5 -10zM302 725c-10.667 0 -19.5 3.33301 -26.5 10s-10.5 15.334 -10.5 26.001c0 11.333 3.5 20.333 10.5 27s15.833 10 26.5 10
s19.334 -3.33301 26.001 -10s10 -15.667 10 -27c0 -10.667 -3.33301 -19.334 -10 -26.001s-15.334 -10 -26.001 -10z" />
    <glyph glyph-name="Zacute" unicode="&#x179;" horiz-adv-x="538" 
d="M50 0v27l379 592h-346v40h404v-27l-380 -592h383v-40h-440zM242 709l93 111h61l-112 -111h-42z" />
    <glyph glyph-name="zacute" unicode="&#x17a;" horiz-adv-x="404" 
d="M164 572l100 156h56l-116 -156h-40zM27 0v24l284 418h-253v38h310v-23l-283 -418h293v-39h-351z" />
    <glyph glyph-name="Zdotaccent" unicode="&#x17b;" horiz-adv-x="538" 
d="M50 0v27l379 592h-346v40h404v-27l-380 -592h383v-40h-440zM280 721c-11.333 0 -20.833 3.83301 -28.5 11.5s-11.5 17.5 -11.5 29.5c0 11.333 3.83301 20.666 11.5 27.999s17.167 11 28.5 11s20.833 -3.66699 28.5 -11s11.5 -16.666 11.5 -27.999
c0 -12 -3.83301 -21.833 -11.5 -29.5s-17.167 -11.5 -28.5 -11.5z" />
    <glyph glyph-name="zdotaccent" unicode="&#x17c;" horiz-adv-x="404" 
d="M219 596c-11.333 0 -20.5 3.66699 -27.5 11s-10.5 17.333 -10.5 30c0 11.333 3.5 20.666 10.5 27.999s16.167 11 27.5 11s20.5 -3.66699 27.5 -11s10.5 -16.666 10.5 -27.999c0 -12.667 -3.5 -22.667 -10.5 -30s-16.167 -11 -27.5 -11zM27 0v24l284 418h-253v38h310v-23
l-283 -418h293v-39h-351z" />
    <glyph glyph-name="Zcaron" unicode="&#x17d;" horiz-adv-x="538" 
d="M50 0v27l379 592h-346v40h404v-27l-380 -592h383v-40h-440zM258 709l-96 111h41l75 -77h4l75 77h41l-96 -111h-44z" />
    <glyph glyph-name="zcaron" unicode="&#x17e;" horiz-adv-x="404" 
d="M198 572l-105 156h39l85 -118h4l85 118h39l-105 -156h-42zM27 0v24l284 418h-253v38h310v-23l-283 -418h293v-39h-351z" />
    <glyph glyph-name="uni0180" unicode="&#x180;" horiz-adv-x="528" 
d="M136 340v-250.999c48.667 -41.333 96 -62 142 -62c48.667 0 88.667 19 120 57s47 86.667 47 146c0 57.333 -12.333 103.166 -37 137.499s-63 51.5 -115 51.5c-46 0 -98.333 -26.333 -157 -79zM136 477.001l-2.00098 -94c60 50 115.333 75 166 75
c62.667 0 110.334 -20.333 143.001 -61s49 -96 49 -166c0 -74 -20.667 -133 -62 -177s-91.333 -66 -150 -66c-46.667 0 -94.667 20.333 -144 61h-2l-5 -49h-37v581h-77v29l77 4v105h44v-105h190v-33h-190v-104z" />
    <glyph glyph-name="uni018F" unicode="&#x18f;" horiz-adv-x="648" 
d="M546 299h-437c2 -82.667 22.5 -148.667 61.5 -198s89.5 -74 151.5 -74c66.667 0 119.5 23.833 158.5 71.5s60.833 114.5 65.5 200.5zM155 565l-23.998 30.999c51.333 50 116.333 75 195 75c85.333 0 151.166 -29.5 197.499 -88.5s69.5 -142.833 69.5 -251.5
c0 -107.333 -24.333 -191.333 -73 -252s-114.667 -91 -198 -91c-81.333 0 -145 31 -191 93s-69 143.667 -69 245c0 0.666992 0.166992 2.33398 0.5 5.00098s0.5 4.66699 0.5 6h484c-1.33301 94 -20.833 166.667 -58.5 218s-91.834 77 -162.501 77
c-67.333 0 -124.333 -22.333 -171 -67z" />
    <glyph glyph-name="uni0192" unicode="&#x192;" horiz-adv-x="479" 
d="M443 653l-11.9971 -36c-22.667 10 -43.334 15 -62.001 15c-56 0 -90 -53.333 -102 -160l-7 -67h138v-37h-142l-29 -266c-6.66699 -65.333 -21.834 -115 -45.501 -149s-58.834 -51 -105.501 -51c-25.333 0 -47 5.33301 -65 16l13 34c16 -7.33301 33.333 -11 52 -11
c60.667 0 96.667 55 108 165l28 262h-95v33l67 4h32l7 63c15.333 135.333 64 203 146 203c22 0 46.667 -6 74 -18z" />
    <glyph glyph-name="uni0193" unicode="&#x193;" horiz-adv-x="605" 
d="M533 324l0.000976562 -261c-46.667 -50 -111.667 -75 -195 -75c-85.333 0 -153.833 31 -205.5 93s-77.5 145.333 -77.5 250c0 104 26.667 186.667 80 248s123.666 92 210.999 92c42.667 0 82.334 -7.66699 119.001 -23c-9.33301 18.667 -14 38 -14 58
c0 27.333 9 49 27 65s40.667 24 68 24c14 0 30.333 -4 49 -12l-10 -36c-18 6.66699 -30.333 10 -37 10c-17.333 0 -31 -5.66699 -41 -17s-15 -24.666 -15 -39.999c0 -24.667 11.333 -54.334 34 -89.001l-27 -31c-41.333 32.667 -92 49 -152 49
c-75.333 0 -134.833 -26.667 -178.5 -80s-65.5 -126 -65.5 -218s21 -165.167 63 -219.5s100.333 -81.5 175 -81.5c65.333 0 114.666 16.667 147.999 50v205h-158v39h202z" />
    <glyph glyph-name="Ohorn" unicode="&#x1a0;" horiz-adv-x="652" 
d="M330 30c67.333 0 121.333 27.5 162 82.5s61 128.167 61 219.5c0 90.667 -20.333 162.834 -61 216.501s-94.667 80.5 -162 80.5s-121.333 -26.833 -162 -80.5s-61 -125.834 -61 -216.501c0 -91.333 20.333 -164.5 61 -219.5s94.667 -82.5 162 -82.5zM535 781l39 18.999
c13.333 -22.667 20 -46 20 -70c0 -57.333 -34.333 -96 -103 -116c74 -61.333 111 -155.333 111 -282c0 -103.333 -25.333 -186.5 -76 -249.5s-116 -94.5 -196 -94.5s-145.167 31.5 -195.5 94.5s-75.5 146.167 -75.5 249.5c0 102.667 25.167 184.834 75.5 246.501
s115.5 92.5 195.5 92.5c46 0 87.667 -10.667 125 -32c62.667 10.667 94 40 94 88c0 20 -4.66699 38 -14 54z" />
    <glyph glyph-name="ohorn" unicode="&#x1a1;" horiz-adv-x="535" 
d="M267 27c48.667 0 89.167 19.667 121.5 59s48.5 90.333 48.5 153s-16.167 114 -48.5 154s-72.833 60 -121.5 60s-89 -19.833 -121 -59.5s-48 -91.167 -48 -154.5c0 -62.667 16 -113.667 48 -153s72.333 -59 121 -59zM443 622l38.001 19.999
c12.667 -23.333 19 -46.666 19 -69.999c0 -61.333 -34.667 -103 -104 -125c58 -46.667 87 -116 87 -208c0 -76.667 -20.833 -137.667 -62.5 -183s-92.834 -68 -153.501 -68c-60 0 -110.833 22.667 -152.5 68s-62.5 106.333 -62.5 183c0 77.333 20.833 138.833 62.5 184.5
s92.5 68.5 152.5 68.5c33.333 0 64 -7 92 -21c65.333 11.333 98 44 98 98c0 19.333 -4.66699 37 -14 53z" />
    <glyph glyph-name="Uhorn" unicode="&#x1af;" horiz-adv-x="645" 
d="M586 801l40.001 18.999c12.667 -23.333 19 -46.666 19 -69.999c0 -60 -35.333 -99 -106 -117v-380c0 -49.333 -6.16699 -91.833 -18.5 -127.5s-29.333 -63.167 -51 -82.5s-45 -33.333 -70 -42s-52.833 -13 -83.5 -13c-30 0 -57.5 4.33301 -82.5 13s-48.333 22.667 -70 42
s-38.5 46.833 -50.5 82.5s-18 78.167 -18 127.5v406h46v-401c0 -81.333 16.167 -139.666 48.5 -174.999s74.5 -53 126.5 -53c53.333 0 96.666 17.667 129.999 53s50 93.666 50 174.999v401h10c32.667 4.66699 56.5 14 71.5 28s22.5 34 22.5 60c0 20 -4.66699 38 -14 54z" />
    <glyph glyph-name="uhorn" unicode="&#x1b0;" horiz-adv-x="529" 
d="M472 632l37 19.999c13.333 -22.667 20 -46 20 -70c0 -62 -30.667 -103.667 -92 -125v-457h-37l-5 80h-2c-52.667 -61.333 -107 -92 -163 -92c-49.333 0 -85.833 15.167 -109.5 45.5s-35.5 76.5 -35.5 138.5v308h44v-302c0 -51.333 8.66699 -89.166 26 -113.499
s45 -36.5 83 -36.5c28 0 53.667 7.66699 77 23s49.333 40.333 78 75v354h7c57.333 11.333 86 44.333 86 99c0 18 -4.66699 35.667 -14 53z" />
    <glyph glyph-name="uni01C2" unicode="&#x1c2;" horiz-adv-x="263" 
d="M257 332h-101v-123h101v-33h-101v-426h-36v426h-114v29l78 4h36v123h-114v29l78 4h36v385h36v-385h101v-33z" />
    <glyph glyph-name="uni01CD" unicode="&#x1cd;" horiz-adv-x="526" 
d="M285 709h-44l-96 111h41l75 -77h4l75 77h41zM146 265h234l-42 123c-30.667 88.667 -55 164.667 -73 228h-4c-18 -63.333 -42.333 -139.333 -73 -228zM470 0l-77 226h-261l-78 -226h-46l232 659h46l232 -659h-48z" />
    <glyph glyph-name="uni01CE" unicode="&#x1ce;" horiz-adv-x="491" 
d="M197 -12c-40.667 0 -74.001 11.168 -100.001 33.501s-39 55.166 -39 98.499c0 52.667 24.5 93 73.5 121s127.833 48 236.5 60c1.33301 101.333 -36.667 152 -114 152c-50.667 0 -101.667 -18.667 -153 -56l-20 33c58.667 41.333 118.334 62 179.001 62
c53.333 0 92 -16.833 116 -50.5s36 -78.5 36 -134.5v-307h-38l-4 62h-3c-62 -49.333 -118.667 -74 -170 -74zM204.999 26.001c47.333 0 101.667 26.001 163 78.001v163c-96 -11.333 -164.167 -28.5 -204.5 -51.5s-60.5 -54.167 -60.5 -93.5
c0 -32.667 9.5 -56.834 28.5 -72.501s43.5 -23.5 73.5 -23.5zM234 572.002l-105 156h39l85 -118h4l85 118h39l-105 -156h-42z" />
    <glyph glyph-name="uni01CF" unicode="&#x1cf;" horiz-adv-x="240" 
d="M97 0v659h46v-659h-46zM98 709l-96 111h41l75 -77h4l75 77h41l-96 -111h-44z" />
    <glyph glyph-name="uni01D0" unicode="&#x1d0;" horiz-adv-x="229" 
d="M93 572l-105 156h39l85 -118h4l85 118h39l-105 -156h-42zM92 0v480h44v-480h-44z" />
    <glyph glyph-name="uni01D1" unicode="&#x1d1;" horiz-adv-x="652" 
d="M304 709l-96 111h41l75 -77h4l75 77h41l-96 -111h-44zM326 -12c-80 0 -145.167 31.5 -195.5 94.5s-75.5 146.167 -75.5 249.5c0 102.667 25.167 184.834 75.5 246.501s115.5 92.5 195.5 92.5c80.667 0 146.167 -30.833 196.5 -92.5s75.5 -143.834 75.5 -246.501
c0 -103.333 -25.333 -186.5 -76 -249.5s-116 -94.5 -196 -94.5zM326 30c67.333 0 121.333 27.5 162 82.5s61 128.167 61 219.5c0 90.667 -20.333 162.834 -61 216.501s-94.667 80.5 -162 80.5s-121.333 -26.833 -162 -80.5s-61 -125.834 -61 -216.501
c0 -91.333 20.333 -164.5 61 -219.5s94.667 -82.5 162 -82.5z" />
    <glyph glyph-name="uni01D2" unicode="&#x1d2;" horiz-adv-x="535" 
d="M246 572l-105 156h39l85 -118h4l85 118h39l-105 -156h-42zM267 -12c-60 0 -110.833 22.667 -152.5 68s-62.5 106.333 -62.5 183c0 77.333 20.833 138.833 62.5 184.5s92.5 68.5 152.5 68.5c60.667 0 111.834 -22.833 153.501 -68.5s62.5 -107.167 62.5 -184.5
c0 -76.667 -20.833 -137.667 -62.5 -183s-92.834 -68 -153.501 -68zM267 27c48.667 0 89.167 19.667 121.5 59s48.5 90.333 48.5 153s-16.167 114 -48.5 154s-72.833 60 -121.5 60s-89 -19.833 -121 -59.5s-48 -91.167 -48 -154.5c0 -62.667 16 -113.667 48 -153
s72.333 -59 121 -59z" />
    <glyph glyph-name="uni01D3" unicode="&#x1d3;" horiz-adv-x="634" 
d="M295 709l-96 111h41l75 -77h4l75 77h41l-96 -111h-44zM316 -12c-30 0 -57.499 4.33301 -82.499 13s-48.333 22.667 -70 42s-38.5 46.833 -50.5 82.5s-18 78.167 -18 127.5v406h46v-401c0 -81.333 16.167 -139.666 48.5 -174.999s74.5 -53 126.5 -53
c53.333 0 96.666 17.667 129.999 53s50 93.666 50 174.999v401h43v-406c0 -49.333 -6.16699 -91.833 -18.5 -127.5s-29.333 -63.167 -51 -82.5s-45 -33.333 -70 -42s-52.833 -13 -83.5 -13z" />
    <glyph glyph-name="uni01D4" unicode="&#x1d4;" horiz-adv-x="529" 
d="M244 572l-105 156h39l85 -118h4l85 118h39l-105 -156h-42zM230 -12c-49.333 0 -85.833 15.166 -109.5 45.499s-35.5 76.5 -35.5 138.5v308h44v-302c0 -51.333 8.66699 -89.166 26 -113.499s45 -36.5 83 -36.5c28 0 53.667 7.66699 77 23s49.333 40.333 78 75v354h44v-480
h-37l-5 80h-2c-52.667 -61.333 -107 -92 -163 -92z" />
    <glyph glyph-name="uni01D5" unicode="&#x1d5;" horiz-adv-x="634" 
d="M238 725c-10 0 -18.333 3.16699 -25 9.5s-10 14.833 -10 25.5s3.33301 19.334 10 26.001s15 10 25 10s18.5 -3.33301 25.5 -10s10.5 -15.334 10.5 -26.001s-3.5 -19.167 -10.5 -25.5s-15.5 -9.5 -25.5 -9.5zM203 854v33h228v-33h-228zM396 725
c-10 0 -18.5 3.16699 -25.5 9.5s-10.5 14.833 -10.5 25.5s3.5 19.334 10.5 26.001s15.5 10 25.5 10s18.333 -3.33301 25 -10s10 -15.334 10 -26.001s-3.33301 -19.167 -10 -25.5s-15 -9.5 -25 -9.5zM316 -12c-30 0 -57.499 4.33301 -82.499 13s-48.333 22.667 -70 42
s-38.5 46.833 -50.5 82.5s-18 78.167 -18 127.5v406h46v-401c0 -81.333 16.167 -139.666 48.5 -174.999s74.5 -53 126.5 -53c53.333 0 96.666 17.667 129.999 53s50 93.666 50 174.999v401h43v-406c0 -49.333 -6.16699 -91.833 -18.5 -127.5s-29.333 -63.167 -51 -82.5
s-45 -33.333 -70 -42s-52.833 -13 -83.5 -13z" />
    <glyph glyph-name="uni01D6" unicode="&#x1d6;" horiz-adv-x="529" 
d="M230 -12c-49.333 0 -85.833 15.166 -109.5 45.499s-35.5 76.5 -35.5 138.5v308h44v-302c0 -51.333 8.66699 -89.166 26 -113.499s45 -36.5 83 -36.5c28 0 53.667 7.66699 77 23s49.333 40.333 78 75v354h44v-480h-37l-5 80h-2c-52.667 -61.333 -107 -92 -163 -92z
M186 597.999c-10 0 -18.333 3.5 -25 10.5s-10 15.5 -10 25.5s3.33301 18.333 10 25s15 10 25 10s18.5 -3.33301 25.5 -10s10.5 -15 10.5 -25s-3.5 -18.5 -10.5 -25.5s-15.5 -10.5 -25.5 -10.5zM150 746.999v33h228v-33h-228zM344 597.999c-10 0 -18.5 3.5 -25.5 10.5
s-10.5 15.5 -10.5 25.5s3.5 18.333 10.5 25s15.5 10 25.5 10s18.333 -3.33301 25 -10s10 -15 10 -25s-3.33301 -18.5 -10 -25.5s-15 -10.5 -25 -10.5z" />
    <glyph glyph-name="uni01D7" unicode="&#x1d7;" horiz-adv-x="634" 
d="M238 725c-10 0 -18.333 3.16699 -25 9.5s-10 14.833 -10 25.5s3.33301 19.334 10 26.001s15 10 25 10s18.5 -3.33301 25.5 -10s10.5 -15.334 10.5 -26.001s-3.5 -19.167 -10.5 -25.5s-15.5 -9.5 -25.5 -9.5zM280 829l94 106h54l-109 -106h-39zM396 725
c-10 0 -18.5 3.16699 -25.5 9.5s-10.5 14.833 -10.5 25.5s3.5 19.334 10.5 26.001s15.5 10 25.5 10s18.333 -3.33301 25 -10s10 -15.334 10 -26.001s-3.33301 -19.167 -10 -25.5s-15 -9.5 -25 -9.5zM316 -12c-30 0 -57.499 4.33301 -82.499 13s-48.333 22.667 -70 42
s-38.5 46.833 -50.5 82.5s-18 78.167 -18 127.5v406h46v-401c0 -81.333 16.167 -139.666 48.5 -174.999s74.5 -53 126.5 -53c53.333 0 96.666 17.667 129.999 53s50 93.666 50 174.999v401h43v-406c0 -49.333 -6.16699 -91.833 -18.5 -127.5s-29.333 -63.167 -51 -82.5
s-45 -33.333 -70 -42s-52.833 -13 -83.5 -13z" />
    <glyph glyph-name="uni01D8" unicode="&#x1d8;" horiz-adv-x="529" 
d="M186 598c-10 0 -18.333 3.5 -25 10.5s-10 15.5 -10 25.5s3.33301 18.333 10 25s15 10 25 10s18.5 -3.33301 25.5 -10s10.5 -15 10.5 -25s-3.5 -18.5 -10.5 -25.5s-15.5 -10.5 -25.5 -10.5zM222 710l80 98h52l-96 -98h-36zM344 598c-10 0 -18.5 3.5 -25.5 10.5
s-10.5 15.5 -10.5 25.5s3.5 18.333 10.5 25s15.5 10 25.5 10s18.333 -3.33301 25 -10s10 -15 10 -25s-3.33301 -18.5 -10 -25.5s-15 -10.5 -25 -10.5zM230 -12c-49.333 0 -85.833 15.166 -109.5 45.499s-35.5 76.5 -35.5 138.5v308h44v-302
c0 -51.333 8.66699 -89.166 26 -113.499s45 -36.5 83 -36.5c28 0 53.667 7.66699 77 23s49.333 40.333 78 75v354h44v-480h-37l-5 80h-2c-52.667 -61.333 -107 -92 -163 -92z" />
    <glyph glyph-name="uni01D9" unicode="&#x1d9;" horiz-adv-x="634" 
d="M296 829l-96 106h40l75 -72h4l75 72h40l-96 -106h-42zM238 725c-10 0 -18.333 3.16699 -25 9.5s-10 14.833 -10 25.5s3.33301 19.334 10 26.001s15 10 25 10s18.5 -3.33301 25.5 -10s10.5 -15.334 10.5 -26.001s-3.5 -19.167 -10.5 -25.5s-15.5 -9.5 -25.5 -9.5zM396 725
c-10 0 -18.5 3.16699 -25.5 9.5s-10.5 14.833 -10.5 25.5s3.5 19.334 10.5 26.001s15.5 10 25.5 10s18.333 -3.33301 25 -10s10 -15.334 10 -26.001s-3.33301 -19.167 -10 -25.5s-15 -9.5 -25 -9.5zM316 -12c-30 0 -57.499 4.33301 -82.499 13s-48.333 22.667 -70 42
s-38.5 46.833 -50.5 82.5s-18 78.167 -18 127.5v406h46v-401c0 -81.333 16.167 -139.666 48.5 -174.999s74.5 -53 126.5 -53c53.333 0 96.666 17.667 129.999 53s50 93.666 50 174.999v401h43v-406c0 -49.333 -6.16699 -91.833 -18.5 -127.5s-29.333 -63.167 -51 -82.5
s-45 -33.333 -70 -42s-52.833 -13 -83.5 -13z" />
    <glyph glyph-name="uni01DA" unicode="&#x1da;" horiz-adv-x="529" 
d="M245 710l-93 98h39l72 -67h4l72 67h39l-93 -98h-40zM186 598c-10 0 -18.333 3.5 -25 10.5s-10 15.5 -10 25.5s3.33301 18.333 10 25s15 10 25 10s18.5 -3.33301 25.5 -10s10.5 -15 10.5 -25s-3.5 -18.5 -10.5 -25.5s-15.5 -10.5 -25.5 -10.5zM344 598
c-10 0 -18.5 3.5 -25.5 10.5s-10.5 15.5 -10.5 25.5s3.5 18.333 10.5 25s15.5 10 25.5 10s18.333 -3.33301 25 -10s10 -15 10 -25s-3.33301 -18.5 -10 -25.5s-15 -10.5 -25 -10.5zM230 -12c-49.333 0 -85.833 15.166 -109.5 45.499s-35.5 76.5 -35.5 138.5v308h44v-302
c0 -51.333 8.66699 -89.166 26 -113.499s45 -36.5 83 -36.5c28 0 53.667 7.66699 77 23s49.333 40.333 78 75v354h44v-480h-37l-5 80h-2c-52.667 -61.333 -107 -92 -163 -92z" />
    <glyph glyph-name="uni01DB" unicode="&#x1db;" horiz-adv-x="634" 
d="M238 725c-10 0 -18.333 3.16699 -25 9.5s-10 14.833 -10 25.5s3.33301 19.334 10 26.001s15 10 25 10s18.5 -3.33301 25.5 -10s10.5 -15.334 10.5 -26.001s-3.5 -19.167 -10.5 -25.5s-15.5 -9.5 -25.5 -9.5zM315 829l-109 106h54l94 -106h-39zM396 725
c-10 0 -18.5 3.16699 -25.5 9.5s-10.5 14.833 -10.5 25.5s3.5 19.334 10.5 26.001s15.5 10 25.5 10s18.333 -3.33301 25 -10s10 -15.334 10 -26.001s-3.33301 -19.167 -10 -25.5s-15 -9.5 -25 -9.5zM316 -12c-30 0 -57.499 4.33301 -82.499 13s-48.333 22.667 -70 42
s-38.5 46.833 -50.5 82.5s-18 78.167 -18 127.5v406h46v-401c0 -81.333 16.167 -139.666 48.5 -174.999s74.5 -53 126.5 -53c53.333 0 96.666 17.667 129.999 53s50 93.666 50 174.999v401h43v-406c0 -49.333 -6.16699 -91.833 -18.5 -127.5s-29.333 -63.167 -51 -82.5
s-45 -33.333 -70 -42s-52.833 -13 -83.5 -13z" />
    <glyph glyph-name="uni01DC" unicode="&#x1dc;" horiz-adv-x="529" 
d="M230 -12c-49.333 0 -85.833 15.166 -109.5 45.499s-35.5 76.5 -35.5 138.5v308h44v-302c0 -51.333 8.66699 -89.166 26 -113.499s45 -36.5 83 -36.5c28 0 53.667 7.66699 77 23s49.333 40.333 78 75v354h44v-480h-37l-5 80h-2c-52.667 -61.333 -107 -92 -163 -92z
M186 597.999c-10 0 -18.333 3.5 -25 10.5s-10 15.5 -10 25.5s3.33301 18.333 10 25s15 10 25 10s18.5 -3.33301 25.5 -10s10.5 -15 10.5 -25s-3.5 -18.5 -10.5 -25.5s-15.5 -10.5 -25.5 -10.5zM272 709.999l-96 98h52l80 -98h-36zM344 597.999c-10 0 -18.5 3.5 -25.5 10.5
s-10.5 15.5 -10.5 25.5s3.5 18.333 10.5 25s15.5 10 25.5 10s18.333 -3.33301 25 -10s10 -15 10 -25s-3.33301 -18.5 -10 -25.5s-15 -10.5 -25 -10.5z" />
    <glyph glyph-name="uni01E2" unicode="&#x1e2;" horiz-adv-x="809" 
d="M694 781v-36h-228v36h228zM210 255h201v364h-4l-124 -231zM457 40h305v-40h-351v217h-222l-119 -217h-49l365 659h366v-40h-295v-249h245v-40h-245v-290z" />
    <glyph glyph-name="uni01E3" unicode="&#x1e3;" horiz-adv-x="784" 
d="M205 -12c-40.667 0 -74.168 11.168 -100.501 33.501s-39.5 54.833 -39.5 97.5c0 52.667 24.5 93.167 73.5 121.5s126.167 48.5 231.5 60.5c1.33301 101.333 -36.334 152 -113.001 152c-48.667 0 -98 -18.667 -148 -56l-20 33c58.667 41.333 116 62 172 62
c38 0 68.833 -10.5 92.5 -31.5s39.5 -50.5 47.5 -88.5c18 37.333 41.667 66.666 71 87.999s61.333 32 96 32c56 0 99.667 -19.333 131 -58s47 -93.334 47 -164.001c0 -16 -0.666992 -28 -2 -36h-332c0 -60 16.333 -109.5 49 -148.5s73.334 -58.5 122.001 -58.5
c43.333 0 85 14.333 125 43l19 -35c-16.667 -10 -30.167 -17.667 -40.5 -23s-25.333 -10.666 -45 -15.999s-40.5 -8 -62.5 -8c-67.333 0 -124.666 33 -171.999 99c-31.333 -30 -65.333 -54 -102 -72s-70 -27 -100 -27zM211.999 26.001c26.667 0 56.5 8.33301 89.5 25
s62.833 39.334 89.5 68.001c-14 28.667 -21 69 -21 121l-1 27c-92 -11.333 -158 -28.5 -198 -51.5s-60 -54.167 -60 -93.5c0 -32.667 9.33301 -56.834 28 -72.501s43 -23.5 73 -23.5zM411.999 268.001h292.999c0 60.667 -12.167 106.834 -36.5 138.501
s-58.166 47.5 -101.499 47.5c-40 0 -74.667 -17.333 -104 -52s-46.333 -79.334 -51 -134.001zM299.998 606.001v36h228v-36h-228z" />
    <glyph glyph-name="Gcaron" unicode="&#x1e6;" horiz-adv-x="605" 
d="M324 709l-96 111h41l75 -77h4l75 77h41l-96 -111h-44zM338 -12c-85.333 0 -153.831 31 -205.498 93s-77.5 145.333 -77.5 250c0 104 26.667 186.667 80 248s123.666 92 210.999 92c70 0 130 -26.333 180 -79l-27 -31c-41.333 45.333 -92 68 -152 68
c-75.333 0 -134.833 -26.667 -178.5 -80s-65.5 -126 -65.5 -218s21 -165.167 63 -219.5s100.333 -81.5 175 -81.5c65.333 0 114.666 16.667 147.999 50v205h-158v39h202v-261c-46.667 -50 -111.667 -75 -195 -75z" />
    <glyph glyph-name="gcaron" unicode="&#x1e7;" horiz-adv-x="487" 
d="M240 572l-105 156h39l85 -118h4l85 118h39l-105 -156h-42zM249 -231c-60.667 0 -108.666 11.9971 -143.999 35.9971s-53 56.333 -53 97c0 42.667 23.667 81.334 71 116.001v4c-28 16.667 -42 42.334 -42 77.001c0 34 17.333 63.333 52 88v4
c-40 34.667 -60 78.667 -60 132c0 48.667 16.333 89 49 121s72.667 48 120 48c22 0 43 -4 63 -12h163v-37h-112c35.333 -30.667 53 -71 53 -121c0 -48.667 -16 -89 -48 -121s-71.667 -48 -119 -48c-30.667 0 -57.334 6.66699 -80.001 20c-26 -21.333 -39 -44.333 -39 -69
c0 -42 30.667 -63 92 -63h103c54 0 93.833 -8.83301 119.5 -26.5s38.5 -45.5 38.5 -83.5c0 -43.333 -21.167 -81.166 -63.5 -113.499s-96.833 -48.5 -163.5 -48.5zM242.001 187.997c34 0 63.167 12.667 87.5 38s36.5 57.666 36.5 96.999s-12 71.333 -36 96
s-53.333 37 -88 37c-35.333 0 -65 -12.167 -89 -36.5s-36 -56.5 -36 -96.5c0 -39.333 12.167 -71.666 36.5 -96.999s53.833 -38 88.5 -38zM254.001 -195.003c52 0 94.5 12.334 127.5 37.001s49.5 52.667 49.5 84c0 48.667 -37 73 -111 73h-103c-18 0 -38 2.66699 -60 8
c-42 -28.667 -63 -62.334 -63 -101.001c0 -30.667 14.167 -55.167 42.5 -73.5s67.5 -27.5 117.5 -27.5z" />
    <glyph glyph-name="uni01EA" unicode="&#x1ea;" horiz-adv-x="652" 
d="M357 -205c-24 0 -44.001 7 -60.001 21s-24 34.333 -24 61c0 42 20.333 79 61 111c-85.333 0 -153.166 31.333 -203.499 94s-75.5 146 -75.5 250c0 102.667 25.167 184.834 75.5 246.501s115.5 92.5 195.5 92.5c80.667 0 146.167 -30.833 196.5 -92.5
s75.5 -143.834 75.5 -246.501c0 -86 -17 -156.5 -51 -211.5s-84.667 -97.833 -152 -128.5c-26.667 -12 -47 -28 -61 -48s-21 -40 -21 -60c0 -16.667 5 -29.5 15 -38.5s21.667 -13.5 35 -13.5c16.667 0 31 4.66699 43 14l17 -27c-20 -16 -42 -24 -66 -24zM325.999 30
c67.333 0 121.333 27.5 162 82.5s61 128.167 61 219.5c0 90.667 -20.333 162.834 -61 216.501s-94.667 80.5 -162 80.5s-121.333 -26.833 -162 -80.5s-61 -125.834 -61 -216.501c0 -91.333 20.333 -164.5 61 -219.5s94.667 -82.5 162 -82.5z" />
    <glyph glyph-name="uni01EB" unicode="&#x1eb;" horiz-adv-x="535" 
d="M294 -203c-23.333 0 -42.668 6.99902 -58.001 20.999s-23 34 -23 60c0 22.667 5.83301 43.834 17.5 63.501s24.5 35.167 38.5 46.5c-62 1.33301 -113.667 24.5 -155 69.5s-62 105.5 -62 181.5c0 77.333 20.833 138.833 62.5 184.5s92.5 68.5 152.5 68.5
c60.667 0 111.834 -22.833 153.501 -68.5s62.5 -107.167 62.5 -184.5c0 -64.667 -13.5 -116.167 -40.5 -154.5s-65.833 -68.833 -116.5 -91.5c-22 -10 -40 -25.333 -54 -46s-21 -41.667 -21 -63c0 -16.667 4.83301 -29.5 14.5 -38.5s21.167 -13.5 34.5 -13.5
c16.667 0 31 4.66699 43 14l16 -26c-18 -15.333 -39.667 -23 -65 -23zM266.998 26.999c48.667 0 89.167 19.667 121.5 59s48.5 90.333 48.5 153s-16.167 114 -48.5 154s-72.833 60 -121.5 60s-89 -19.833 -121 -59.5s-48 -91.167 -48 -154.5c0 -62.667 16 -113.667 48 -153
s72.333 -59 121 -59z" />
    <glyph glyph-name="uni01F4" unicode="&#x1f4;" horiz-adv-x="605" 
d="M307 709l93 111h61l-112 -111h-42zM338 -12c-85.333 0 -153.831 31 -205.498 93s-77.5 145.333 -77.5 250c0 104 26.667 186.667 80 248s123.666 92 210.999 92c70 0 130 -26.333 180 -79l-27 -31c-41.333 45.333 -92 68 -152 68c-75.333 0 -134.833 -26.667 -178.5 -80
s-65.5 -126 -65.5 -218s21 -165.167 63 -219.5s100.333 -81.5 175 -81.5c65.333 0 114.666 16.667 147.999 50v205h-158v39h202v-261c-46.667 -50 -111.667 -75 -195 -75z" />
    <glyph glyph-name="uni01F5" unicode="&#x1f5;" horiz-adv-x="487" 
d="M206 572l100 156h56l-116 -156h-40zM249 -231c-60.667 0 -108.666 11.9971 -143.999 35.9971s-53 56.333 -53 97c0 42.667 23.667 81.334 71 116.001v4c-28 16.667 -42 42.334 -42 77.001c0 34 17.333 63.333 52 88v4c-40 34.667 -60 78.667 -60 132
c0 48.667 16.333 89 49 121s72.667 48 120 48c22 0 43 -4 63 -12h163v-37h-112c35.333 -30.667 53 -71 53 -121c0 -48.667 -16 -89 -48 -121s-71.667 -48 -119 -48c-30.667 0 -57.334 6.66699 -80.001 20c-26 -21.333 -39 -44.333 -39 -69c0 -42 30.667 -63 92 -63h103
c54 0 93.833 -8.83301 119.5 -26.5s38.5 -45.5 38.5 -83.5c0 -43.333 -21.167 -81.166 -63.5 -113.499s-96.833 -48.5 -163.5 -48.5zM242.001 187.997c34 0 63.167 12.667 87.5 38s36.5 57.666 36.5 96.999s-12 71.333 -36 96s-53.333 37 -88 37
c-35.333 0 -65 -12.167 -89 -36.5s-36 -56.5 -36 -96.5c0 -39.333 12.167 -71.666 36.5 -96.999s53.833 -38 88.5 -38zM254.001 -195.003c52 0 94.5 12.334 127.5 37.001s49.5 52.667 49.5 84c0 48.667 -37 73 -111 73h-103c-18 0 -38 2.66699 -60 8
c-42 -28.667 -63 -62.334 -63 -101.001c0 -30.667 14.167 -55.167 42.5 -73.5s67.5 -27.5 117.5 -27.5z" />
    <glyph glyph-name="uni01F8" unicode="&#x1f8;" horiz-adv-x="636" 
d="M319 709l-112 111h61l93 -111h-42zM97 0v659h48l278 -465l74 -131h4l-6 192v404h44v-659h-48l-278 465l-74 131h-4c0.666992 -14 1.5 -33.5 2.5 -58.5s1.83301 -48 2.5 -69s1 -40.833 1 -59.5v-409h-44z" />
    <glyph glyph-name="uni01F9" unicode="&#x1f9;" horiz-adv-x="532" 
d="M297 572l-116 156h56l100 -156h-40zM92 0v480.001h38l4 -74h3c57.333 57.333 112.333 86 165 86c49.333 0 85.833 -15.167 109.5 -45.5s35.5 -76.5 35.5 -138.5v-308h-44v302c0 51.333 -8.66699 89.166 -26 113.499s-45.333 36.5 -84 36.5c-27.333 0 -52.5 -7 -75.5 -21
s-50.167 -37 -81.5 -69v-362h-44z" />
    <glyph glyph-name="uni01FC" unicode="&#x1fc;" horiz-adv-x="809" 
d="M696 822l-112 -111h-42l93 111h61zM210 255h201v364h-4l-124 -231zM457 40h305v-40h-351v217h-222l-119 -217h-49l365 659h366v-40h-295v-249h245v-40h-245v-290z" />
    <glyph glyph-name="uni01FD" unicode="&#x1fd;" horiz-adv-x="784" 
d="M359 572l100 156h56l-116 -156h-40zM205 -12c-40.667 0 -74.168 11.168 -100.501 33.501s-39.5 54.833 -39.5 97.5c0 52.667 24.5 93.167 73.5 121.5s126.167 48.5 231.5 60.5c1.33301 101.333 -36.334 152 -113.001 152c-48.667 0 -98 -18.667 -148 -56l-20 33
c58.667 41.333 116 62 172 62c38 0 68.833 -10.5 92.5 -31.5s39.5 -50.5 47.5 -88.5c18 37.333 41.667 66.666 71 87.999s61.333 32 96 32c56 0 99.667 -19.333 131 -58s47 -93.334 47 -164.001c0 -16 -0.666992 -28 -2 -36h-332c0 -60 16.333 -109.5 49 -148.5
s73.334 -58.5 122.001 -58.5c43.333 0 85 14.333 125 43l19 -35c-16.667 -10 -30.167 -17.667 -40.5 -23s-25.333 -10.666 -45 -15.999s-40.5 -8 -62.5 -8c-67.333 0 -124.666 33 -171.999 99c-31.333 -30 -65.333 -54 -102 -72s-70 -27 -100 -27zM211.999 26.001
c26.667 0 56.5 8.33301 89.5 25s62.833 39.334 89.5 68.001c-14 28.667 -21 69 -21 121l-1 27c-92 -11.333 -158 -28.5 -198 -51.5s-60 -54.167 -60 -93.5c0 -32.667 9.33301 -56.834 28 -72.501s43 -23.5 73 -23.5zM411.999 268.001h292.999
c0 60.667 -12.167 106.834 -36.5 138.501s-58.166 47.5 -101.499 47.5c-40 0 -74.667 -17.333 -104 -52s-46.333 -79.334 -51 -134.001z" />
    <glyph glyph-name="uni0218" unicode="&#x218;" horiz-adv-x="521" 
d="M269 -12c-89.333 0 -163.666 32.998 -222.999 98.998l30 32c52.667 -59.333 117 -89 193 -89c50 0 89.833 12.167 119.5 36.5s44.5 56.166 44.5 95.499c0 20 -2.83301 37.333 -8.5 52s-14.834 27.334 -27.501 38.001s-24.5 19 -35.5 25s-26.5 13.667 -46.5 23l-100 45
c-18 8 -33.333 15.833 -46 23.5s-26.5 17.834 -41.5 30.501s-26.5 28.334 -34.5 47.001s-12 39.667 -12 63c0 47.333 18.167 86.166 54.5 116.499s82.166 45.5 137.499 45.5c73.333 0 134.333 -26.333 183 -79l-26 -30c-43.333 44.667 -95.666 67 -156.999 67
c-44 0 -79.333 -10.667 -106 -32s-40 -50 -40 -86c0 -18 3.16699 -34 9.5 -48s16.5 -26.167 30.5 -36.5s25.5 -18 34.5 -23s22.167 -11.5 39.5 -19.5l100 -44c44.667 -20 79 -42.667 103 -68s36 -61 36 -107c0 -51.333 -19.333 -93.666 -58 -126.999s-89.667 -50 -153 -50z
M192 -209.002l-7 30.001c42 2.66699 71.333 8.16699 88 16.5s25 20.166 25 35.499c0 27.333 -25.667 43 -77 47l13 29c38 -5.33301 64.667 -13.5 80 -24.5s23 -27.167 23 -48.5c0 -50.667 -48.333 -79 -145 -85z" />
    <glyph glyph-name="uni0219" unicode="&#x219;" horiz-adv-x="405" 
d="M208 -12c-64.667 0 -123.332 22.002 -175.999 66.002l26 33c49.333 -40.667 100.333 -61 153 -61c36 0 64 9.16699 84 27.5s30 40.833 30 67.5s-10.5 47.667 -31.5 63s-49.5 29.666 -85.5 42.999c-19.333 6.66699 -34.333 12.167 -45 16.5s-24 10.666 -40 18.999
s-28 16.833 -36 25.5s-15.333 19.5 -22 32.5s-10 27.5 -10 43.5c0 36.667 13.833 67.167 41.5 91.5s65.5 36.5 113.5 36.5c51.333 0 97 -16.667 137 -50l-24 -31c-38 28.667 -76.333 43 -115 43c-34.667 0 -61.334 -8.5 -80.001 -25.5s-28 -37.5 -28 -61.5
c0 -13.333 2.83301 -25 8.5 -35s14.834 -19 27.501 -27s24 -14.167 34 -18.5s24.333 -9.83301 43 -16.5c55.333 -20.667 91.666 -37.667 108.999 -51c32 -24 48 -56 48 -96c0 -38 -14.5 -70 -43.5 -96s-68.5 -39 -118.5 -39zM140.002 -208.998l-7 30.001
c42 2.66699 71.333 8.16699 88 16.5s25 20.166 25 35.499c0 27.333 -25.667 43 -77 47l13 29c38 -5.33301 64.667 -13.5 80 -24.5s23 -27.167 23 -48.5c0 -50.667 -48.333 -79 -145 -85z" />
    <glyph glyph-name="uni021A" unicode="&#x21a;" horiz-adv-x="524" 
d="M186 -209l-7 30.001c42 2.66699 71.333 8.16699 88 16.5s25 20.166 25 35.499c0 27.333 -25.667 43 -77 47l13 29c38 -5.33301 64.667 -13.5 80 -24.5s23 -27.167 23 -48.5c0 -50.667 -48.333 -79 -145 -85zM239 0.000976562v619h-210v40h466v-40h-210v-619h-46z" />
    <glyph glyph-name="uni021B" unicode="&#x21b;" horiz-adv-x="312" 
d="M123 -209l-7 30.001c42 2.66699 71.333 8.16699 88 16.5s25 20.166 25 35.499c0 27.333 -25.667 43 -77 47l13 29c38 -5.33301 64.667 -13.5 80 -24.5s23 -27.167 23 -48.5c0 -50.667 -48.333 -79 -145 -85zM223 -11.999c-44 0 -75.001 12.499 -93.001 37.499
s-27 60.833 -27 107.5v309h-75v34l76 4l6 139h38v-139h139v-38h-139v-313c0 -33.333 5.83301 -58.666 17.5 -75.999s32.834 -26 63.501 -26c18.667 0 38.667 5 60 15l12 -36c-33.333 -12 -59.333 -18 -78 -18z" />
    <glyph glyph-name="uni0237" unicode="&#x237;" horiz-adv-x="229" 
d="M29 -229c-21.333 0 -42 3.99902 -62 11.999l11 36c20 -6.66699 36.667 -10 50 -10c25.333 0 42.333 8.83301 51 26.5s13 43.834 13 78.501v566h45v-569c0 -93.333 -36 -140 -108 -140z" />
    <glyph glyph-name="uni0243" unicode="&#x243;" horiz-adv-x="588" 
d="M157 37h133c67.333 0 119.5 13 156.5 39s55.5 65 55.5 117c0 47.333 -18.333 82.833 -55 106.5s-89 35.5 -157 35.5h-133v-124h166v-33h-166v-141zM157 622v-252h113c66.667 0 115.167 10.833 145.5 32.5s45.5 54.5 45.5 98.5c0 80.667 -61.667 121 -185 121h-119z
M389 357v-4c49.333 -7.33301 88 -24.5 116 -51.5s42 -63.167 42 -108.5c0 -62.667 -21.833 -110.5 -65.5 -143.5s-103.5 -49.5 -179.5 -49.5h-191v178h-78v30l78 3v448h178c68 0 121.167 -13.333 159.5 -40s57.5 -66.667 57.5 -120c0 -34.667 -10 -64.5 -30 -89.5
s-49 -42.5 -87 -52.5z" />
    <glyph glyph-name="uni0250" unicode="&#x250;" horiz-adv-x="499" 
d="M266 -12c-64 0 -110.333 17.832 -139 53.499s-43 82.834 -43 141.501v297h38l5 -72h2c56 56 116.333 84 181 84c37.333 0 68 -10.167 92 -30.5s36 -50.5 36 -90.5c0 -55.333 -24.5 -98 -73.5 -128s-127.5 -51.333 -235.5 -64c-1.33301 -41.333 8.66699 -77 30 -107
s58.333 -45 111 -45c48 0 96 18.667 144 56l20 -33c-55.333 -41.333 -111.333 -62 -168 -62zM129 212.999c96 12 164 30.167 204 54.5s60 57.5 60 99.5c0 30 -8.5 52 -25.5 66s-39.167 21 -66.5 21c-56 0 -113.333 -29.667 -172 -89v-152z" />
    <glyph glyph-name="uni0251" unicode="&#x251;" horiz-adv-x="544" 
d="M251 -12c-61.333 0 -109.832 21.833 -145.499 65.5s-53.5 105.5 -53.5 185.5c0 75.333 20.833 136.333 62.5 183s92.167 70 151.5 70c47.333 0 94.666 -19.333 141.999 -58h2l3 46h39v-480h-38l-4 62h-3c-49.333 -49.333 -101.333 -74 -156 -74zM257.001 27
c48 0 98.334 26.333 151.001 79v285c-46.667 41.333 -93.334 62 -140.001 62c-48 0 -88.167 -20.5 -120.5 -61.5s-48.5 -91.833 -48.5 -152.5c0 -64.667 13.833 -116.167 41.5 -154.5s66.5 -57.5 116.5 -57.5z" />
    <glyph glyph-name="uni0252" unicode="&#x252;" horiz-adv-x="544" 
d="M280 -12c-43.333 0 -91.333 19.333 -144 58h-2l-3 -46h-39v480h38l4 -62h3c59.333 49.333 113.666 74 162.999 74c62.667 0 110.334 -21.833 143.001 -65.5s49 -103.5 49 -179.5c0 -78.667 -20.667 -141.5 -62 -188.5s-91.333 -70.5 -150 -70.5zM278 27
c48.667 0 88.667 20.5 120 61.5s47 93.833 47 158.5c0 63.333 -12.333 113.5 -37 150.5s-63 55.5 -115 55.5c-44.667 0 -97 -26.333 -157 -79v-285c50.667 -41.333 98 -62 142 -62z" />
    <glyph glyph-name="uni0253" unicode="&#x253;" horiz-adv-x="544" 
d="M280 -12c-47.333 0 -95.334 19 -144.001 57h-2l-5 -45h-37v558c0 54.667 13 97.167 39 127.5s62.333 45.5 109 45.5c24.667 0 48.667 -5.33301 72 -16l-14 -36c-18.667 9.33301 -37.667 14 -57 14c-68.667 0 -103.667 -46 -105 -138l-2 -140c60 50 115.333 75 166 75
c62.667 0 110.334 -21.667 143.001 -65s49 -103 49 -179c0 -78 -20.667 -140.5 -62 -187.5s-91.333 -70.5 -150 -70.5zM277.999 27c48.667 0 88.667 20.5 120 61.5s47 93.5 47 157.5c0 62.667 -12.333 112.5 -37 149.5s-63 55.5 -115 55.5c-46 0 -98.333 -26.333 -157 -79
v-283c48.667 -41.333 96 -62 142 -62z" />
    <glyph glyph-name="uni0254" unicode="&#x254;" horiz-adv-x="449" 
d="M179 -12c-54 0 -104.999 21 -152.999 63l22 31c40 -36.667 83 -55 129 -55c51.333 0 93 19.5 125 58.5s48 90.167 48 153.5s-15.667 114.833 -47 154.5s-70.333 59.5 -117 59.5c-46 0 -87 -17 -123 -51l-26 31c44 39.333 95 59 153 59
c57.333 0 106.166 -22.667 146.499 -68s60.5 -107 60.5 -185c0 -77.333 -20.667 -138.5 -62 -183.5s-93.333 -67.5 -156 -67.5z" />
    <glyph glyph-name="uni0255" unicode="&#x255;" horiz-adv-x="449" 
d="M278 26c28.667 0 52.5 5.66699 71.5 17s28.5 26 28.5 44c0 14 -5.33301 26.167 -16 36.5s-25.667 15.5 -45 15.5c-45.333 0 -90.666 -27.667 -135.999 -83c29.333 -20 61.666 -30 96.999 -30zM412 433l-25.999 -29.999c-36.667 34 -74.667 51 -114 51
c-50 0 -91.667 -20.167 -125 -60.5s-50 -91.833 -50 -154.5c0 -64.667 18.667 -117.334 56 -158.001c50 62.667 105.333 94 166 94c31.333 0 55.833 -8 73.5 -24s26.5 -36.667 26.5 -62c0 -28.667 -12.833 -52.667 -38.5 -72s-59.834 -29 -102.501 -29
c-44 0 -84.333 11.667 -121 35c-16.667 -27.333 -30.667 -57.333 -42 -90l-38 15c14.667 38 31.334 70.667 50.001 98c-50 46.667 -75 111 -75 193c0 77.333 21.167 138.833 63.5 184.5s94.166 68.5 155.499 68.5c50.667 0 97.667 -19.667 141 -59z" />
    <glyph glyph-name="uni0256" unicode="&#x256;" horiz-adv-x="544" 
d="M505 -179c-33.333 0 -57.833 10.332 -73.5 30.999s-23.5 53.334 -23.5 98.001l2 113c-52.667 -50 -105.667 -75 -159 -75c-61.333 0 -109.833 21.833 -145.5 65.5s-53.5 105.5 -53.5 185.5c0 75.333 20.833 136.333 62.5 183s91.834 70 150.501 70
c27.333 0 51.666 -4.66699 72.999 -14s45.333 -24.333 72 -45l-2 88v210h44v-773c0 -65.333 18 -98 54 -98c12 0 25.667 3 41 9l10 -36c-14.667 -8 -32 -12 -52 -12zM257 26.999c48 0 98.334 26.333 151.001 79v285c-46.667 41.333 -93.334 62 -140.001 62
c-48 0 -88.167 -20.5 -120.5 -61.5s-48.5 -91.833 -48.5 -152.5c0 -64.667 13.833 -116.167 41.5 -154.5s66.5 -57.5 116.5 -57.5z" />
    <glyph glyph-name="uni0257" unicode="&#x257;" horiz-adv-x="544" 
d="M251 -12c-61.333 0 -109.833 21.833 -145.5 65.5s-53.5 105.5 -53.5 185.5c0 75.333 20.833 136.333 62.5 183s91.834 70 150.501 70c27.333 0 51.666 -4.66699 72.999 -14s45.333 -24.333 72 -45l-2 163c0 91.333 35 137 105 137c18 0 34.333 -3.33301 49 -10l-10 -36
c-13.333 5.33301 -26 8 -38 8c-41.333 0 -62 -34.667 -62 -104v-591h-38l-4 62h-3c-49.333 -49.333 -101.333 -74 -156 -74zM257 27c48 0 98.334 26.333 151.001 79v285c-46.667 41.333 -93.334 62 -140.001 62c-48 0 -88.167 -20.5 -120.5 -61.5
s-48.5 -91.833 -48.5 -152.5c0 -64.667 13.833 -116.167 41.5 -154.5s66.5 -57.5 116.5 -57.5z" />
    <glyph glyph-name="uni0258" unicode="&#x258;" horiz-adv-x="483" 
d="M213 -12c-52.667 0 -104.333 15.668 -155 47.001l18 34c40 -28.667 84.333 -43 133 -43c54.667 0 97.5 19.167 128.5 57.5s47.167 88.5 48.5 150.5h-346c-1.33301 8 -2 20 -2 36c0 69.333 17.833 123.666 53.5 162.999s82.5 59 140.5 59s105.667 -22.833 143 -68.5
s56 -107.167 56 -184.5s-20.333 -138.5 -61 -183.5s-93 -67.5 -157 -67.5zM79.001 270.001h307c-5.33301 58 -21.5 103.167 -48.5 135.5s-62.5 48.5 -106.5 48.5c-44.667 0 -81.167 -15.833 -109.5 -47.5s-42.5 -77.167 -42.5 -136.5z" />
    <glyph glyph-name="uni0259" unicode="&#x259;" horiz-adv-x="483" 
d="M231 -12c-57.333 0 -103.834 20.168 -139.501 60.501s-53.5 97.166 -53.5 170.499c0 17.333 0.666992 30 2 38h346c-1.33301 58 -16.5 105.333 -45.5 142s-68.5 55 -118.5 55c-46.667 0 -92 -15.333 -136 -46l-18 34c49.333 33.333 102.333 50 159 50
c60.667 0 109.834 -22.333 147.501 -67s56.5 -106 56.5 -184c0 -77.333 -18.667 -138.833 -56 -184.5s-85.333 -68.5 -144 -68.5zM229.999 26.001c44.667 0 80.667 17.333 108 52s43.333 82.334 48 143.001h-307c0 -64.667 13.667 -113.334 41 -146.001s64 -49 110 -49z" />
    <glyph glyph-name="uni025A" unicode="&#x25a;" horiz-adv-x="613" 
d="M385 285l-303 -119c7.33301 -44 25.333 -78.333 54 -103s64 -37 106 -37c44.667 0 80.167 20.333 106.5 61s39.5 90.667 39.5 150c0 16.667 -1 32.667 -3 48zM615 285l17.999 -28.002c-20.667 -16 -40.667 -24 -60 -24s-36.666 7.66699 -51.999 23s-25.333 39 -30 71
l-63 -25c3.33301 -21.333 5 -42.333 5 -63c0 -70.667 -17.5 -130.167 -52.5 -178.5s-81.167 -72.5 -138.5 -72.5c-58 0 -105 18.833 -141 56.5s-57 84.834 -63 141.501l340 135c-11.333 43.333 -30.833 76.333 -58.5 99s-60.167 34 -97.5 34c-45.333 0 -90 -15.333 -134 -46
l-18 34c48 33.333 99.667 50 155 50c46 0 86.5 -13.333 121.5 -40s59.5 -64.667 73.5 -114l74 29l30 -12c4 -35.333 10 -58.666 18 -69.999s19.667 -17 35 -17c14 0 26.667 5.66699 38 17z" />
    <glyph glyph-name="uni025B" unicode="&#x25b;" horiz-adv-x="427" 
d="M238 -12c-54 0 -98.334 13.1641 -133.001 39.4971s-52 60.5 -52 102.5c0 32.667 10.5 59.334 31.5 80.001s46.833 35 77.5 43v4c-25.333 10 -45.333 24.833 -60 44.5s-22 41.834 -22 66.501c0 39.333 15.5 69.833 46.5 91.5s69.5 32.5 115.5 32.5
c52 0 99 -16.667 141 -50l-21 -32c-41.333 29.333 -81.666 44 -120.999 44c-33.333 0 -60.833 -7.66699 -82.5 -23s-32.5 -37.666 -32.5 -66.999c0 -28 11.5 -50.667 34.5 -68s57.5 -26 103.5 -26h47v-36h-61c-48 0 -85.167 -9 -111.5 -27s-39.5 -43 -39.5 -75
s13.333 -57.667 40 -77s61.667 -29 105 -29c48.667 0 95 17.333 139 52l22 -32c-50 -38.667 -105.667 -58 -167 -58z" />
    <glyph glyph-name="uni025C" unicode="&#x25c;" horiz-adv-x="444" 
d="M207 -12c-61.333 0 -117.334 19.3359 -168.001 58.0029l22 32c44.667 -34.667 91.334 -52 140.001 -52c43.333 0 78.333 9.66699 105 29s40 45 40 77s-13.333 57 -40 75s-64 27 -112 27h-61v36h47c46 0 80.5 8.66699 103.5 26s34.5 40 34.5 68
c0 29.333 -10 51.666 -30 66.999s-46.333 23 -79 23c-42 0 -84.333 -14.667 -127 -44l-20 32c42 33.333 91 50 147 50c45.333 0 82.5 -10.833 111.5 -32.5s43.5 -52.167 43.5 -91.5c0 -24.667 -7.33301 -46.834 -22 -66.501s-34.667 -34.5 -60 -44.5v-4
c30.667 -8 56.5 -22.333 77.5 -43s31.5 -47.334 31.5 -80.001c0 -42 -17.167 -76.167 -51.5 -102.5s-78.5 -39.5 -132.5 -39.5z" />
    <glyph glyph-name="uni025E" unicode="&#x25e;" horiz-adv-x="534" 
d="M252 -12c-59.333 0 -107.333 12.998 -144 38.998s-55 60.333 -55 103c0 32.667 10.5 59.334 31.5 80.001s46.833 35 77.5 43v4c-25.333 10 -45.333 24.833 -60 44.5s-22 41.834 -22 66.501c0 39.333 15.5 69.833 46.5 91.5s71.167 32.5 120.5 32.5
c69.333 0 126 -22 170 -66s66 -106.333 66 -187c0 -80 -21.5 -141.833 -64.5 -185.5s-98.5 -65.5 -166.5 -65.5zM254 25.998c56 0 100.332 18.8311 132.999 56.498s49 89.834 49 156.501s-17 119.167 -51 157.5s-79.667 57.5 -137 57.5
c-36.667 0 -66.167 -7.66699 -88.5 -23s-33.5 -37.666 -33.5 -66.999c0 -28 11.5 -50.667 34.5 -68s57.167 -26 102.5 -26h25v-36h-39c-47.333 0 -84.166 -9 -110.499 -27s-39.5 -43 -39.5 -75c0 -32.667 14 -58.5 42 -77.5s65.667 -28.5 113 -28.5z" />
    <glyph glyph-name="uni025F" unicode="&#x25f;" horiz-adv-x="241" 
d="M232 269v-33.001h-89v-325c0 -93.333 -36 -140 -108 -140c-21.333 0 -42 4 -62 12l11 36c20 -6.66699 36.667 -10 50 -10c25.333 0 42.333 8.83301 51 26.5s13 43.834 13 78.501v322h-93v29l93 4v211h45v-211h89z" />
    <glyph glyph-name="uni0260" unicode="&#x260;" horiz-adv-x="545" 
d="M258 -229c-61.333 0 -117.329 17.333 -167.996 52l20 35c46 -33.333 95.333 -50 148 -50c48.667 0 85.834 13.833 111.501 41.5s38.5 66.167 38.5 115.5l1 109c-49.333 -49.333 -102 -74 -158 -74c-60.667 0 -108.834 21.5 -144.501 64.5s-53.5 103.5 -53.5 181.5
c0 74 20.667 133.5 62 178.5s91.666 67.5 150.999 67.5c26.667 0 50.667 -4.66699 72 -14s45.333 -24.333 72 -45l-1 46c0 44.667 9.16699 78.5 27.5 101.5s44.166 34.5 77.499 34.5c17.333 0 33.666 -3.33301 48.999 -10l-10 -36c-14.667 5.33301 -27.334 8 -38.001 8
c-42 0 -63 -34.667 -63 -104v-515c0 -58 -17 -103.667 -51 -137s-81.667 -50 -143 -50zM258.004 39c48.667 0 98.667 26.333 150 79v273c-46 41.333 -92.667 62 -140 62s-87.333 -19.833 -120 -59.5s-49 -88.834 -49 -147.501c0 -63.333 14 -113.666 42 -150.999
s67 -56 117 -56z" />
    <glyph glyph-name="uni0261" unicode="&#x261;" horiz-adv-x="545" 
d="M258 -229c-61.333 0 -117.332 17.333 -167.999 52l20 35c46 -33.333 95.333 -50 148 -50c48.667 0 85.834 13.833 111.501 41.5s38.5 66.167 38.5 115.5l1 109c-49.333 -49.333 -102 -74 -158 -74c-60.667 0 -108.834 21.5 -144.501 64.5s-53.5 103.5 -53.5 181.5
c0 74 20.667 133.5 62 178.5s91.666 67.5 150.999 67.5c47.333 0 94 -18.667 140 -56h3l4 44h39v-522c0 -58 -17 -103.667 -51 -137s-81.667 -50 -143 -50zM258.001 39c48.667 0 98.667 26.333 150 79v273c-46 41.333 -92.667 62 -140 62s-87.333 -19.833 -120 -59.5
s-49 -88.834 -49 -147.501c0 -63.333 14 -113.666 42 -150.999s67 -56 117 -56z" />
    <glyph glyph-name="uni0262" unicode="&#x262;" horiz-adv-x="486" 
d="M276 -12c-66.667 0 -120.668 22.6689 -162.001 68.002s-62 107.666 -62 186.999c0 75.333 21.167 135.666 63.5 180.999s97.5 68 165.5 68c56 0 104.667 -20 146 -60l-26 -30c-33.333 34.667 -72.666 52 -117.999 52c-54.667 0 -99.5 -19.167 -134.5 -57.5
s-52.5 -89.5 -52.5 -153.5c0 -67.333 16.667 -120.333 50 -159s78 -58 134 -58c44 0 80.667 13.333 110 40v139h-122v37h164v-195c-40.667 -39.333 -92.667 -59 -156 -59z" />
    <glyph glyph-name="uni0263" unicode="&#x263;" horiz-adv-x="434" 
d="M220 3l-4 0.000976562c-26.667 -54.667 -40 -101 -40 -139c0 -39.333 14 -59 42 -59c28.667 0 43 19.667 43 59s-13.667 85.666 -41 138.999zM422 480.001l-174 -445.998c31.333 -70.667 49 -117.334 53 -140.001c2 -9.33301 3 -18.333 3 -27
c0 -30 -7.33301 -53.833 -22 -71.5s-36 -26.5 -64 -26.5s-49.167 8.83301 -63.5 26.5s-21.5 41.5 -21.5 71.5c0 14 3 30.833 9 50.5s11.333 35.167 16 46.5s15 34.666 31 69.999l-177 446h48l108 -289c5.33301 -16 13.5 -37.5 24.5 -64.5s18.833 -47.167 23.5 -60.5h4
c4.66699 12.667 12.5 32.667 23.5 60l25.5 65l108 289h45z" />
    <glyph glyph-name="uni0264" unicode="&#x264;" horiz-adv-x="477" 
d="M238 -12c-52.667 0 -92.332 14 -118.999 42s-40 67 -40 117c0 68.667 42.667 144 128 226c-46 53.333 -88.333 80 -127 80c-19.333 0 -35 -4.66699 -47 -14l-17 33c19.333 13.333 42.333 20 69 20c48 0 99 -30.667 153 -92c54 61.333 105 92 153 92
c27.333 0 50.666 -6.66699 69.999 -20l-17 -33c-12 9.33301 -27.667 14 -47 14c-40 0 -82.333 -26.667 -127 -80c85.333 -84 128 -159.333 128 -226c0 -50 -13.333 -89 -40 -117s-66.667 -42 -120 -42zM238.002 27c37.333 0 65.834 11.333 85.501 34s29.5 51.667 29.5 87
c0 62 -38.333 129 -115 201c-76 -72 -114 -139 -114 -201c0 -35.333 9.66699 -64.333 29 -87s47.666 -34 84.999 -34z" />
    <glyph glyph-name="uni0265" unicode="&#x265;" horiz-adv-x="532" 
d="M395 -217v186.999l3 113c-56 -63.333 -112 -95 -168 -95c-49.333 0 -85.833 15.167 -109.5 45.5s-35.5 76.5 -35.5 138.5v308h44v-302c0 -51.333 8.66699 -89.166 26 -113.499s45 -36.5 83 -36.5c28 0 53.833 7.5 77.5 22.5s50.167 40.167 79.5 75.5v354h44v-697h-44z
" />
    <glyph glyph-name="uni0266" unicode="&#x266;" horiz-adv-x="528" 
d="M92 0v558.001c0 54.667 13 97.167 39 127.5s62.333 45.5 109 45.5c24.667 0 48.667 -5.33301 72 -16l-14 -36c-18.667 9.33301 -37.667 14 -57 14c-68.667 0 -103.667 -46 -105 -138v-152c58 58 113.333 87 166 87c49.333 0 85.833 -15.167 109.5 -45.5
s35.5 -76.5 35.5 -138.5v-306h-44v300c0 51.333 -8.66699 89.166 -26 113.499s-45.333 36.5 -84 36.5c-27.333 0 -52.5 -7 -75.5 -21s-50.167 -37 -81.5 -69v-360h-44z" />
    <glyph glyph-name="uni0267" unicode="&#x267;" horiz-adv-x="528" 
d="M339 -229c-20.667 0 -41.001 4.00098 -61.001 12.001l10 36c20 -6.66699 36.667 -10 50 -10c25.333 0 42.5 9 51.5 27s13.5 44 13.5 78v386c0 51.333 -8.66699 89.166 -26 113.499s-45.333 36.5 -84 36.5c-27.333 0 -52.5 -7 -75.5 -21s-50.167 -37 -81.5 -69v-360h-44
v558c0 54.667 13 97.167 39 127.5s62.333 45.5 109 45.5c24.667 0 48.667 -5.33301 72 -16l-14 -36c-18.667 9.33301 -37.667 14 -57 14c-68.667 0 -103.667 -46 -105 -138v-152c58 58 113.333 87 166 87c49.333 0 85.833 -15.167 109.5 -45.5s35.5 -76.5 35.5 -138.5v-395
c0 -47.333 -8.66699 -82.5 -26 -105.5s-44.666 -34.5 -81.999 -34.5z" />
    <glyph glyph-name="uni0268" unicode="&#x268;" horiz-adv-x="241" 
d="M121 596c-11.333 0 -20.833 3.66699 -28.5 11s-11.5 16.666 -11.5 27.999c0 12 3.83301 21.667 11.5 29s17.167 11 28.5 11s20.833 -3.66699 28.5 -11s11.5 -17 11.5 -29c0 -11.333 -3.83301 -20.666 -11.5 -27.999s-17.167 -11 -28.5 -11zM232 269v-33h-90v-236h-44v236
h-93v29l93 4v211h44v-211h90z" />
    <glyph glyph-name="uni026A" unicode="&#x26a;" horiz-adv-x="310" 
d="M43 0v39h90v403h-90v38h224v-38h-90v-403h90v-39h-224z" />
    <glyph glyph-name="uni026C" unicode="&#x26c;" horiz-adv-x="258" 
d="M105 367h18v9c0 47.333 -17 71 -51 71c-24.667 0 -37 -12.333 -37 -37c0 -12.667 5.83301 -23 17.5 -31s29.167 -12 52.5 -12zM257 334l-90 0.000976562v-276c0 -20.667 7 -31 21 -31c5.33301 0 11.333 0.666992 18 2l8 -36c-10 -3.33301 -20.667 -5 -32 -5
c-39.333 0 -59 25.333 -59 76v270h-11c-37.333 0 -65.833 7.16699 -85.5 21.5s-29.5 33.166 -29.5 56.499c0 19.333 6.5 35.5 19.5 48.5s29.833 19.5 50.5 19.5c24 0 42.667 -8.33301 56 -25v264h44v-352h90v-33z" />
    <glyph glyph-name="uni026D" unicode="&#x26d;" horiz-adv-x="237" 
d="M190 -179c-34 0 -58.832 10.833 -74.499 32.5s-23.5 55.5 -23.5 101.5v764h44v-761c0 -65.333 18.333 -98 55 -98c11.333 0 24.666 3 39.999 9l10 -36c-14.667 -8 -31.667 -12 -51 -12z" />
    <glyph glyph-name="uni026E" unicode="&#x26e;" horiz-adv-x="540" 
d="M503 457l-212 -288.001c69.333 13.333 125.333 2 168 -34s64 -86 64 -150c0 -66 -19.167 -118.167 -57.5 -156.5s-83.833 -57.5 -136.5 -57.5c-73.333 0 -137 25 -191 75l26 31c46 -44.667 100.667 -67 164 -67c41.333 0 76.5 16.167 105.5 48.5s43.5 73.5 43.5 123.5
c0 48.667 -13.5 86.834 -40.5 114.501s-65.5 41.5 -115.5 41.5c-17.333 0 -39.333 -6.33301 -66 -19l-24 31l215 292h-227h-36h-47v-442h-44v719h44v-239h47h36h284v-23z" />
    <glyph glyph-name="uni026F" unicode="&#x26f;" horiz-adv-x="812" 
d="M236 -12c-96 0 -144.002 61.3311 -144.002 183.998v308h44v-302c0 -51.333 8.83301 -89.166 26.5 -113.499s44.834 -36.5 81.501 -36.5c42.667 0 90.667 30 144 90v362h44v-302c0 -51.333 8.83301 -89.166 26.5 -113.499s44.834 -36.5 81.501 -36.5
c42.667 0 90.334 30 143.001 90v362h45v-480h-38l-5 75h-2c-50.667 -58 -101.334 -87 -152.001 -87c-69.333 0 -113.333 32.667 -132 98c-60 -65.333 -114.333 -98 -163 -98z" />
    <glyph glyph-name="uni0270" unicode="&#x270;" horiz-adv-x="812" 
d="M683 -217l-0.00195312 184.998l3 110c-52.667 -60 -104.334 -90 -155.001 -90c-69.333 0 -113.333 32.667 -132 98c-60 -65.333 -114.333 -98 -163 -98c-96 0 -144 61.333 -144 184v308h44v-302c0 -51.333 8.83301 -89.166 26.5 -113.499s44.834 -36.5 81.501 -36.5
c42.667 0 90.667 30 144 90v362h44v-302c0 -51.333 8.83301 -89.166 26.5 -113.499s44.834 -36.5 81.501 -36.5c42.667 0 90.334 30 143.001 90v362h45v-697h-45z" />
    <glyph glyph-name="uni0271" unicode="&#x271;" horiz-adv-x="812" 
d="M621 -229c-20.667 0 -41 4 -61 12l11 36c18 -6.66699 34.333 -10 49 -10c24.667 0 41.334 8.83301 50.001 26.5s13 43.834 13 78.501v388c0 100 -35.667 150 -107 150c-42.667 0 -90.667 -30 -144 -90v-362h-44v302c0 51.333 -8.83301 89.166 -26.5 113.499
s-44.834 36.5 -81.501 36.5c-42.667 0 -90.667 -30 -144 -90v-362h-44v480h38l4 -74h3c50 57.333 100.333 86 151 86c70 0 114.333 -32.667 133 -98c60 65.333 114.333 98 163 98c96 0 144 -61.333 144 -184v-397c0 -93.333 -35.667 -140 -107 -140z" />
    <glyph glyph-name="uni0272" unicode="&#x272;" horiz-adv-x="532" 
d="M39 -179c-20 0 -37.333 4.00098 -52 12.001l10 36c15.333 -6 29 -9 41 -9c36 0 54 32.667 54 98v522h41l1 -74h3c57.333 57.333 112.333 86 165 86c49.333 0 85.833 -15.167 109.5 -45.5s35.5 -76.5 35.5 -138.5v-308h-44v302c0 51.333 -8.66699 89.166 -26 113.499
s-45.333 36.5 -84 36.5c-27.333 0 -52.5 -7 -75.5 -21s-50.167 -37 -81.5 -69v-407c0 -46 -7.66699 -79.833 -23 -101.5s-40 -32.5 -74 -32.5z" />
    <glyph glyph-name="uni0273" unicode="&#x273;" horiz-adv-x="532" 
d="M500 -179c-34 0 -58.668 10.834 -74.001 32.501s-23 55.5 -23 101.5v347c0 51.333 -8.66699 89.166 -26 113.499s-45.333 36.5 -84 36.5c-27.333 0 -52.5 -7 -75.5 -21s-50.167 -37 -81.5 -69v-362h-44v480h38l4 -74h3c57.333 57.333 112.333 86 165 86
c49.333 0 85.833 -15.167 109.5 -45.5s35.5 -76.5 35.5 -138.5v-350c0 -65.333 18 -98 54 -98c12.667 0 26.334 3 41.001 9l10 -36c-14.667 -8 -32 -12 -52 -12z" />
    <glyph glyph-name="uni0274" unicode="&#x274;" horiz-adv-x="532" 
d="M92 0v479.999h44l200 -313c6.66699 -10 17 -27.333 31 -52s24.333 -42 31 -52h4c-3.33301 70 -5 129 -5 177v240h43v-480h-43l-201 314c-6.66699 10 -17.167 27.5 -31.5 52.5s-24.5 42.167 -30.5 51.5h-4c3.33301 -71.333 5 -130.666 5 -177.999v-240h-43z" />
    <glyph glyph-name="uni0275" unicode="&#x275;" horiz-adv-x="535" 
d="M440 234h-345c0.666992 -64 17 -114.667 49 -152s73 -56 123 -56c50.667 0 92 18.667 124 56s48.333 88 49 152zM96 270h342.998c-5.33301 56.667 -23.666 101.5 -54.999 134.5s-70.333 49.5 -117 49.5c-46 0 -84.667 -16.5 -116 -49.5s-49.666 -77.833 -54.999 -134.5z
M266.998 492c62 0 113.5 -22.167 154.5 -66.5s61.5 -106.5 61.5 -186.5c0 -79.333 -20.5 -141 -61.5 -185s-92.5 -66 -154.5 -66c-61.333 0 -112.5 22 -153.5 66s-61.5 105.667 -61.5 185c0 80 20.5 142.167 61.5 186.5s92.167 66.5 153.5 66.5z" />
    <glyph glyph-name="uni0276" unicode="&#x276;" horiz-adv-x="684" 
d="M285 -12c-68.667 0 -124.667 22.333 -168 67s-65 106.667 -65 186c0 78.667 21.5 140.167 64.5 184.5s99.167 66.5 168.5 66.5c34.667 0 66.334 -4 95.001 -12h277v-37h-243v-173h202v-36h-202v-197h253v-37h-287c-28.667 -8 -60.334 -12 -95.001 -12zM288 27
c22 0 48.667 5 80 15v397c-33.333 9.33301 -60 14 -80 14c-56 0 -101.333 -18.5 -136 -55.5s-52 -89.167 -52 -156.5c0 -68 17.333 -120.667 52 -158s80 -56 136 -56z" />
    <glyph glyph-name="uni0278" unicode="&#x278;" horiz-adv-x="647" 
d="M345 454v-428c56.667 2 104.667 22.667 144 62s59 90.333 59 153c0 63.333 -19 114.333 -57 153s-86.667 58.667 -146 60zM302 26v428c-56.667 -1.33301 -104.834 -21.5 -144.501 -60.5s-59.5 -89.833 -59.5 -152.5s19.833 -113.667 59.5 -153s87.834 -60 144.501 -62z
M345 719v-229.001c70 -1.33301 129.167 -24.166 177.5 -68.499s72.5 -104.5 72.5 -180.5c0 -75.333 -24.667 -135.666 -74 -180.999s-108 -68.666 -176 -69.999v-207h-43v207c-68 1.33301 -126.667 24.666 -176 69.999s-74 105.666 -74 180.999s24.667 135.333 74 180
s108 67.667 176 69v229h43z" />
    <glyph glyph-name="uni0279" unicode="&#x279;" horiz-adv-x="317" 
d="M44 -12c-18.667 0 -34.665 3.33301 -47.998 10l10 40c15.333 -5.33301 30 -8 44 -8c23.333 0 46.666 10 69.999 30s43.666 51.333 60.999 94v326h44v-480h-37l-5 90h-2c-38 -68 -83.667 -102 -137 -102z" />
    <glyph glyph-name="uni027A" unicode="&#x27a;" horiz-adv-x="317" 
d="M44 -12c-18.667 0 -34.665 3.33301 -47.998 10l10 40c15.333 -5.33301 30 -8 44 -8c23.333 0 46.666 10 69.999 30s43.666 51.333 60.999 94v565h44v-719h-37l-5 90h-2c-38 -68 -83.667 -102 -137 -102z" />
    <glyph glyph-name="uni027B" unicode="&#x27b;" horiz-adv-x="317" 
d="M278 -179c-32.667 0 -56.666 10.5 -71.999 31.5s-23 54.167 -23 99.5v138h-2c-38 -68 -83.667 -102 -137 -102c-18.667 0 -34.667 3.33301 -48 10l10 40c15.333 -5.33301 30 -8 44 -8c23.333 0 46.666 10 69.999 30s43.666 51.333 60.999 94v326h44v-522
c0 -65.333 18 -98 54 -98c12.667 0 26.334 3 41.001 9l10 -36c-14.667 -8 -32 -12 -52 -12z" />
    <glyph glyph-name="uni027D" unicode="&#x27d;" horiz-adv-x="317" 
d="M190 -179c-34 0 -58.832 10.833 -74.499 32.5s-23.5 55.5 -23.5 101.5v525h38l4 -89h3c36.667 67.333 82 101 136 101c18.667 0 34.667 -3.33301 48 -10l-10 -40c-14 5.33301 -28.667 8 -44 8c-53.333 0 -97 -41 -131 -123v-369c0 -65.333 18.333 -98 55 -98
c11.333 0 24.666 3 39.999 9l10 -36c-14.667 -8 -31.667 -12 -51 -12z" />
    <glyph glyph-name="uni027E" unicode="&#x27e;" horiz-adv-x="306" 
d="M92 0l0.000976562 320c0 55.333 13.833 97.833 41.5 127.5s63.167 44.5 106.5 44.5c28.667 0 52 -4.66699 70 -14l-10 -38c-15.333 8 -35 12 -59 12c-30.667 0 -55.834 -12.5 -75.501 -37.5s-29.5 -59.167 -29.5 -102.5v-312h-44z" />
    <glyph glyph-name="uni0280" unicode="&#x280;" horiz-adv-x="474" 
d="M136 246h98c43.333 0 77 8.66699 101 26s36 42.333 36 75c0 64 -45.667 96 -137 96h-98v-197zM432 0h-50l-134 209h-112v-209h-44v480h153c114.667 0 172 -44 172 -132c0 -39.333 -11.333 -70.333 -34 -93s-53 -37 -91 -43z" />
    <glyph glyph-name="uni0281" unicode="&#x281;" horiz-adv-x="474" 
d="M338 38v200h-98c-43.333 0 -77 -8.83301 -101 -26.5s-36 -43.167 -36 -76.5c0 -64.667 45.667 -97 137 -97h98zM338 480h44v-480h-153c-114.667 0 -172 44.667 -172 134c0 39.333 11.333 70.5 34 93.5s53 37.5 91 43.5l-140 209h50l134 -206h112v206z" />
    <glyph glyph-name="uni0282" unicode="&#x282;" horiz-adv-x="405" 
d="M347 442l-23.999 -30.998c-38 28.667 -76.333 43 -115 43c-34.667 0 -61.334 -8.5 -80.001 -25.5s-28 -37.5 -28 -61.5c0 -13.333 2.83301 -25 8.5 -35s14.834 -19 27.501 -27s24 -14.167 34 -18.5s24.333 -9.83301 43 -16.5c55.333 -20.667 91.666 -37.667 108.999 -51
c32 -24 48 -56 48 -96c0 -38 -14.5 -70 -43.5 -96s-68.5 -39 -118.5 -39c-46 0 -90.667 10.333 -134 31v-57c0 -34 4.5 -60 13.5 -78s26.167 -27 51.5 -27c13.333 0 30 3.33301 50 10l11 -36c-20 -8 -40.667 -12 -62 -12c-70.667 0 -106 46.667 -106 140v86l26 32
c48 -34 99 -51 153 -51c36 0 64 9.16699 84 27.5s30 40.833 30 67.5s-10.5 47.667 -31.5 63s-49.5 29.666 -85.5 42.999c-19.333 6.66699 -34.333 12.167 -45 16.5s-24 10.666 -40 18.999s-28 16.833 -36 25.5s-15.333 19.5 -22 32.5s-10 27.5 -10 43.5
c0 36.667 13.833 67.167 41.5 91.5s65.5 36.5 113.5 36.5c51.333 0 97 -16.667 137 -50z" />
    <glyph glyph-name="uni0283" unicode="&#x283;" horiz-adv-x="229" 
d="M29 -229c-21.333 0 -41.999 4 -61.999 12l11 36c20 -6.66699 36.667 -10 50 -10c25.333 0 42.333 8.83301 51 26.5s13 43.834 13 78.501v679c0 93.333 39.333 140 118 140c17.333 0 34.666 -4 51.999 -12l-11 -36c-16.667 6.66699 -30 10 -40 10
c-28.667 0 -48.167 -8.83301 -58.5 -26.5s-15.5 -43.834 -15.5 -78.501v-679c0 -93.333 -36 -140 -108 -140z" />
    <glyph glyph-name="uni0284" unicode="&#x284;" horiz-adv-x="241" 
d="M268 721l-10.999 -36c-16.667 6.66699 -30 10 -40 10c-28.667 0 -48.167 -8.83301 -58.5 -26.5s-15.5 -43.834 -15.5 -78.501v-321h89v-33h-89v-325c0 -93.333 -36 -140 -108 -140c-21.333 0 -42 4 -62 12l11 36c20 -6.66699 36.667 -10 50 -10
c25.333 0 42.333 8.83301 51 26.5s13 43.834 13 78.501v322h-93v29l93 4v324c0 93.333 39.333 140 118 140c17.333 0 34.666 -4 51.999 -12z" />
    <glyph glyph-name="uni0288" unicode="&#x288;" horiz-adv-x="312" 
d="M223 -181c-44 0 -75.001 12.5 -93.001 37.5s-27 60.833 -27 107.5v478h-75v34l76 4l6 139h38v-139h139v-38h-139v-481c0 -34 5.83301 -59.667 17.5 -77s32.834 -26 63.501 -26c16 0 36 5 60 15l12 -36c-37.333 -12 -63.333 -18 -78 -18z" />
    <glyph glyph-name="uni0289" unicode="&#x289;" horiz-adv-x="549" 
d="M407 126v132.999h-264v-81c0 -51.333 8.66699 -89.166 26 -113.499s45 -36.5 83 -36.5c28 0 53.667 7.66699 77 23s49.333 40.333 78 75zM540 291.999v-33h-89v-259h-37l-5 80h-2c-52.667 -61.333 -107 -92 -163 -92c-49.333 0 -85.833 15.167 -109.5 45.5
s-35.5 76.5 -35.5 138.5v87h-94v29l94 4v188h44v-188h264v188h44v-188h89z" />
    <glyph glyph-name="uni028A" unicode="&#x28a;" horiz-adv-x="532" 
d="M266 -12c-64.667 0 -116.167 22.167 -154.5 66.5s-57.5 97.5 -57.5 159.5c0 91.333 31.667 166.666 95 225.999v2h-107v38h169v-29c-74 -52 -111 -128 -111 -228c0 -54.667 14.833 -101 44.5 -139s70.167 -57 121.5 -57s91.833 19 121.5 57s44.5 84.333 44.5 139
c0 100 -37 176 -111 228v29h168v-38h-106v-2c63.333 -59.333 95 -134.666 95 -225.999c0 -62 -19.167 -115.167 -57.5 -159.5s-89.833 -66.5 -154.5 -66.5z" />
    <glyph glyph-name="uni028B" unicode="&#x28b;" horiz-adv-x="517" 
d="M255 -12c-50.667 0 -91.667 16.833 -123 50.5s-47 85.5 -47 155.5v286h44v-277c0 -60 11.833 -104.333 35.5 -133s54.167 -43 91.5 -43c48.667 0 87 23.333 115 70s42 105.334 42 176.001c0 120.667 -31.333 181 -94 181c-11.333 0 -22.666 -2.66699 -33.999 -8l-11 38
c15.333 5.33301 32.666 8 51.999 8c89.333 0 134 -71 134 -213c0 -84.667 -18 -154.334 -54 -209.001s-86.333 -82 -151 -82z" />
    <glyph glyph-name="uni028C" unicode="&#x28c;" horiz-adv-x="434" 
d="M12 0l178 480h52l180 -480h-48l-108 301l-48 138h-4l-49 -138l-108 -301h-45z" />
    <glyph glyph-name="uni028D" unicode="&#x28d;" horiz-adv-x="685" 
d="M24 0l137 480.001h58l85 -298c4.66699 -16 10.834 -39.167 18.501 -69.5l17.5 -67.5h4c17.333 67.333 30.333 113.666 39 138.999l82 296h54l142 -480h-48l-87 311l-10.5 41l-12 47c-3.66699 14 -6.83398 27.333 -9.50098 40h-4l-35 -128l-88 -311h-52l-88 311l-35 128
h-4l-35 -128l-84 -311h-45z" />
    </font>
</defs>
</svg>
